<?xml version="1.0" encoding="UTF-8"?>
<svg id="_圖層_2" data-name="圖層 2" xmlns="http://www.w3.org/2000/svg" viewBox="0 0 192.67 163.83">
  <defs>
    <style>
      .cls-1 {
        opacity: .35;
      }

      .cls-2 {
        fill: none;
      }

      .cls-2, .cls-3, .cls-4, .cls-5, .cls-6, .cls-7 {
        stroke-width: 0px;
      }

      .cls-3 {
        fill: #fff;
      }

      .cls-4 {
        fill: #de9652;
      }

      .cls-5 {
        fill: #e7b984;
      }

      .cls-6 {
        fill: #ebf6ff;
      }

      .cls-7 {
        fill: #a85340;
      }

      .cls-8 {
        opacity: .79;
      }
    </style>
  </defs>
  <g id="_圖層_6" data-name="圖層 6">
    <g class="cls-8">
      <g>
        <path class="cls-4" d="m160.28,19.47l29.79,66.43c.69,1.53.92,3.16.75,4.72-.33,3.14-2.28,6.03-5.37,7.42l-140.92,63.2c-3.09,1.39-6.54.92-9.11-.92-1.28-.91-2.33-2.17-3.02-3.7L2.6,90.19c-.99-2.2-1.04-4.58-.32-6.7.79-2.33,2.52-4.34,4.94-5.43L148.14,14.85c4.63-2.08,10.06,0,12.13,4.62Z"/>
        <path class="cls-2" d="m186.18,99.67l-140.92,63.2c-3.55,1.59-7.73,1.17-10.89-1.1-1.57-1.13-2.82-2.66-3.61-4.42L.96,90.92c-1.14-2.54-1.27-5.38-.38-8.01.98-2.88,3.13-5.25,5.91-6.49L147.41,13.22c5.52-2.48,12.03,0,14.51,5.52l29.79,66.43c.79,1.77,1.1,3.72.9,5.64-.41,3.87-2.87,7.27-6.42,8.86ZM7.96,79.69c-1.87.84-3.32,2.43-3.98,4.37-.6,1.77-.51,3.68.26,5.39l29.79,66.43c.53,1.19,1.37,2.22,2.43,2.98,2.13,1.53,4.94,1.81,7.33.74l140.92-63.2c2.39-1.07,4.05-3.36,4.32-5.97.14-1.29-.07-2.61-.61-3.8l-29.79-66.43c-1.67-3.72-6.05-5.38-9.76-3.72L7.96,79.69Z"/>
      </g>
      <path class="cls-5" d="m62.47,85.23l19.51,43.51c2.21,4.92,0,10.69-4.91,12.9l-41.66,18.68c-1.28-.91-2.33-2.17-3.02-3.7L6.78,99.51l42.79-19.19c4.92-2.21,10.69,0,12.9,4.91Z"/>
      <g class="cls-1">
        <path class="cls-5" d="m164.46,28.8l25.61,57.1c.69,1.53.92,3.16.75,4.72l-16.67,7.48c-4.92,2.21-10.69,0-12.9-4.91l-19.51-43.51c-2.21-4.92,0-10.69,4.91-12.9l17.81-7.99Z"/>
      </g>
      <path class="cls-5" d="m149.53,47.91c2.92,6.5,0,14.14-6.49,17.06l-10.56-23.55c6.5-2.92,14.14,0,17.06,6.49Z"/>
      <path class="cls-5" d="m70.17,120.48c1.93,4.31,6.99,6.23,11.3,4.3l-7-15.6c-4.31,1.93-6.23,6.99-4.3,11.3Z"/>
      <g>
        <rect class="cls-4" x="58.61" y="8.76" width="83.73" height="117.83" rx="10.01" ry="10.01" transform="translate(-18.89 47.04) rotate(-24.16)"/>
        <path class="cls-2" d="m147.14,113.28l-43.63,19.57c-9.94,4.46-21.65,0-26.1-9.94L43.88,48.17c-4.46-9.94,0-21.65,9.94-26.1L97.45,2.49c9.94-4.46,21.65,0,26.1,9.94l33.52,74.74c4.46,9.94,0,21.65-9.94,26.1ZM55.29,25.34c-8.13,3.65-11.78,13.23-8.13,21.36l33.52,74.74c3.65,8.13,13.23,11.78,21.36,8.13l43.63-19.57c8.13-3.65,11.78-13.23,8.13-21.36L120.28,13.9c-3.65-8.13-13.23-11.78-21.36-8.13l-43.63,19.57Z"/>
      </g>
      <g class="cls-1">
        <rect class="cls-5" x="71.27" y="25.82" width="65.9" height="102.94" rx="9.79" ry="9.79" transform="translate(-22.5 49.42) rotate(-24.16)"/>
      </g>
      <g>
        <circle class="cls-4" cx="107.39" cy="83.09" r="42.65" transform="translate(-11.62 17.72) rotate(-8.95)"/>
        <path class="cls-2" d="m125.58,123.64c-22.36,10.03-48.71,0-58.74-22.36-10.03-22.36,0-48.71,22.36-58.74,22.36-10.03,48.71,0,58.74,22.37,10.03,22.36,0,48.71-22.37,58.74Zm-34.91-77.83c-20.56,9.22-29.78,33.44-20.56,54,9.22,20.56,33.44,29.78,54,20.56,20.56-9.22,29.78-33.44,20.56-54-9.22-20.56-33.44-29.78-54-20.56Z"/>
      </g>
      <g>
        <g>
          <circle class="cls-4" cx="107.39" cy="83.09" r="32.21" transform="translate(-24.6 51.22) rotate(-24.16)"/>
          <path class="cls-2" d="m121.31,114.12c-17.11,7.67-37.27,0-44.94-17.11-7.67-17.11,0-37.27,17.11-44.94,17.11-7.67,37.27,0,44.94,17.11,7.67,17.11,0,37.27-17.11,44.94Zm-26.36-58.78c-15.3,6.86-22.17,24.9-15.3,40.2s24.9,22.17,40.2,15.31c15.3-6.86,22.17-24.9,15.31-40.2-6.86-15.3-24.9-22.17-40.2-15.31Z"/>
        </g>
        <path class="cls-5" d="m121.02,113.48c-16.76,7.52-36.51,0-44.03-16.76-7.52-16.76,0-36.51,16.76-44.03,16.76-7.52,36.51,0,44.03,16.76,7.52,16.76,0,36.51-16.76,44.03Zm-26.36-58.78c-15.65,7.02-22.67,25.46-15.65,41.12,7.02,15.65,25.46,22.67,41.12,15.65,15.65-7.02,22.67-25.46,15.65-41.12-7.02-15.65-25.46-22.67-41.12-15.65Z"/>
      </g>
      <g>
        <circle class="cls-7" cx="107.39" cy="83.09" r="23.11" transform="translate(-10.01 14.87) rotate(-7.57)"/>
        <path class="cls-5" d="m117.58,105.81c-12.53,5.62-27.29,0-32.91-12.53s0-27.29,12.53-32.91c12.53-5.62,27.29,0,32.91,12.53,5.62,12.53,0,27.29-12.53,32.91Zm-18.91-42.17c-10.72,4.81-15.53,17.45-10.73,28.17,4.81,10.72,17.45,15.53,28.17,10.73,10.72-4.81,15.53-17.45,10.73-28.17s-17.45-15.53-28.17-10.73Z"/>
      </g>
      <rect class="cls-5" x="57.96" y="18.2" width="43.86" height="7.13" rx=".99" ry=".99" transform="translate(-1.91 34.6) rotate(-24.16)"/>
      <rect class="cls-3" x="138.48" y="22.3" width="12.95" height="3.3" transform="translate(2.89 61.41) rotate(-24.16)"/>
      <rect class="cls-3" x="140.56" y="27.46" width="8.12" height="3.3" transform="translate(.75 61.73) rotate(-24.16)"/>
      <rect class="cls-3" x="174.9" y="90.84" width="8.3" height="3.25" transform="translate(-22.16 81.37) rotate(-24.16)"/>
      <rect class="cls-5" x="129.21" y="14" width="18.4" height="4.98" transform="translate(5.37 58.09) rotate(-24.16)"/>
      <g class="cls-1">
        <path class="cls-5" d="m35.21,72.9l2.11,4.71c.86,1.92.37,4.02-1.09,4.67l-30.95,13.88-2.68-5.97c-.99-2.2-1.02-4.78-.32-6.7l28.71-12.88c1.46-.66,3.36.38,4.22,2.29Z"/>
      </g>
      <path class="cls-5" d="m31.49,76.65c.65,1.45-2.25,4.17-6.48,6.07-4.23,1.9-8.19,2.26-8.84.8s2.25-4.17,6.48-6.07c4.23-1.9,8.19-2.26,8.84-.8Z"/>
      <rect class="cls-5" x="57.94" y="9.67" width="36.2" height="4.2" transform="translate(1.84 32.15) rotate(-24.16)"/>
      <path class="cls-6" d="m99.84,72.38c.91,2.03,0,4.42-2.03,5.33-2.03.91-4.42,0-5.33-2.03-.91-2.03,0-4.42,2.03-5.33,2.03-.91,4.42,0,5.33,2.03Z"/>
      <circle class="cls-6" cx="97.51" cy="86.91" r="7.26"/>
    </g>
  </g>
</svg>