<?xml version="1.0" encoding="UTF-8"?>
<svg id="_圖層_2" data-name="圖層 2" xmlns="http://www.w3.org/2000/svg" xmlns:xlink="http://www.w3.org/1999/xlink" viewBox="0 0 71.19 64.78">
  <defs>
    <style>
      .cls-1 {
        fill: url(#_未命名漸層_959-2);
      }

      .cls-1, .cls-2, .cls-3, .cls-4, .cls-5 {
        stroke-width: 0px;
      }

      .cls-2 {
        fill: url(#_未命名漸層_959);
      }

      .cls-3 {
        fill: url(#_未命名漸層_959-4);
      }

      .cls-4 {
        fill: url(#_未命名漸層_959-3);
      }

      .cls-5 {
        fill: url(#_未命名漸層_959-5);
      }
    </style>
    <linearGradient id="_未命名漸層_959" data-name="未命名漸層 959" x1="36.41" y1="-10.57" x2="78.01" y2="44.89" gradientUnits="userSpaceOnUse">
      <stop offset="0" stop-color="#e9ac5e"/>
      <stop offset="1" stop-color="#c36e3f"/>
    </linearGradient>
    <linearGradient id="_未命名漸層_959-2" data-name="未命名漸層 959" x1="21.28" y1=".78" x2="62.87" y2="56.25" xlink:href="#_未命名漸層_959"/>
    <linearGradient id="_未命名漸層_959-3" data-name="未命名漸層 959" x1="-8.9" y1="23.41" x2="32.7" y2="78.87" xlink:href="#_未命名漸層_959"/>
    <linearGradient id="_未命名漸層_959-4" data-name="未命名漸層 959" x1="20.51" y1="1.36" x2="62.11" y2="56.82" xlink:href="#_未命名漸層_959"/>
    <linearGradient id="_未命名漸層_959-5" data-name="未命名漸層 959" x1="-4.29" y1="19.96" x2="37.3" y2="75.42" xlink:href="#_未命名漸層_959"/>
  </defs>
  <g id="_圖層_6" data-name="圖層 6">
    <g>
      <path class="cls-2" d="m41.38,19.56c3.98.9,8.68-.18,12.74-3.06l.43,3.32,2.95-.38-1.13-4.77c4.45-4.24,6.43-9.91,5.6-14.68l-4.96,4.71-10.56-1.43c-.04-.14-.1-.27-.2-.38-.36-.38-1-.36-1.43.05-.43.41-.49,1.05-.13,1.43.14.15.32.21.51.24l.85,10.51-4.66,4.43Zm14.84-14.1l-4.37,4.15-4.96-5.22,9.32,1.07Zm-9.97-.41l4.94,5.19-4.35,4.13-.59-9.33Z"/>
      <path class="cls-1" d="m61.45,20.08l-28.4,3.67c-5.91,1.42-5.45,4.78-5.45,4.78l.17,1.3,3.09,23.86,20.39-2.64c.35-3.74,3.12-6.85,6.84-7.33,3.73-.48,7.19,1.82,8.48,5.35l4.63-.6-3.09-23.86-.17-1.3s-.41-3.37-6.49-3.23Z"/>
      <path class="cls-4" d="m16.6,52.24c-3.32.43-5.67,3.58-5.22,7.02s3.51,5.89,6.84,5.46c3.32-.43,5.67-3.58,5.22-7.02s-3.51-5.89-6.84-5.46Zm1.05,8.1c-.98.13-1.88-.6-2.01-1.62s.56-1.96,1.54-2.09,1.88.6,2.02,1.63-.55,1.96-1.54,2.08Z"/>
      <path class="cls-3" d="m58.43,46.75c-3.32.43-5.67,3.58-5.22,7.02s3.51,5.89,6.84,5.46c3.32-.43,5.67-3.58,5.22-7.02-.45-3.44-3.51-5.89-6.84-5.46Zm1.05,8.1c-.98.13-1.88-.6-2.01-1.62s.56-1.96,1.53-2.08c.98-.13,1.89.6,2.02,1.62s-.56,1.95-1.54,2.08Z"/>
      <path class="cls-5" d="m20.46,27.61l-7.36.95s-5.07-.6-13.1,13.3c0,0,.14,10.76,2.01,15.56l6.9-.89.45-.06c.35-3.74,3.12-6.85,6.85-7.33,3.73-.48,7.19,1.82,8.48,5.35l3.09-.4-3.03-23.45s0-3.58-4.29-3.03Zm-.68,13.4l-13.23,1.71,7.67-9.54,4.47-.58,1.09,8.41Z"/>
    </g>
  </g>
</svg>