<?xml version="1.0" encoding="UTF-8"?>
<svg id="_圖層_2" data-name="圖層 2" xmlns="http://www.w3.org/2000/svg" xmlns:xlink="http://www.w3.org/1999/xlink" viewBox="0 0 503 460.33">
  <defs>
    <style>
      .cls-1 {
        fill: #e2a365;
      }

      .cls-1, .cls-2, .cls-3, .cls-4, .cls-5, .cls-6, .cls-7, .cls-8, .cls-9, .cls-10, .cls-11, .cls-12, .cls-13, .cls-14, .cls-15, .cls-16, .cls-17, .cls-18, .cls-19 {
        stroke-width: 0px;
      }

      .cls-1, .cls-2, .cls-3, .cls-5, .cls-19 {
        fill-rule: evenodd;
      }

      .cls-2 {
        fill: #6e3121;
      }

      .cls-3 {
        fill: url(#_未命名漸層_965-2);
      }

      .cls-4 {
        fill: url(#_未命名漸層_940-7);
      }

      .cls-5 {
        fill: #a15934;
      }

      .cls-6 {
        fill: url(#_未命名漸層_940-8);
      }

      .cls-7 {
        fill: #e3ab75;
      }

      .cls-8 {
        fill: url(#_未命名漸層_940-6);
      }

      .cls-9 {
        fill: url(#_未命名漸層_940);
      }

      .cls-10 {
        fill: #fff;
      }

      .cls-11 {
        fill: url(#_未命名漸層_940-2);
      }

      .cls-12 {
        fill: url(#_未命名漸層_940-3);
      }

      .cls-13 {
        fill: url(#_未命名漸層_940-5);
      }

      .cls-14 {
        fill: #90492c;
      }

      .cls-15, .cls-19 {
        fill: #8e4331;
      }

      .cls-16 {
        fill: url(#_未命名漸層_940-4);
      }

      .cls-17 {
        fill: url(#_未命名漸層_965);
      }

      .cls-18 {
        fill: url(#_未命名漸層_965-3);
      }
    </style>
    <linearGradient id="_未命名漸層_965" data-name="未命名漸層 965" x1="67.26" y1="237.65" x2="336.57" y2="381.76" gradientUnits="userSpaceOnUse">
      <stop offset=".06" stop-color="#5c310c"/>
      <stop offset=".16" stop-color="#a9542e"/>
      <stop offset=".27" stop-color="#e8a66a"/>
      <stop offset=".37" stop-color="#c27e45"/>
      <stop offset=".47" stop-color="#4a2a0c"/>
    </linearGradient>
    <linearGradient id="_未命名漸層_940" data-name="未命名漸層 940" x1="335.52" y1="198.11" x2="296.93" y2="213.08" gradientUnits="userSpaceOnUse">
      <stop offset=".06" stop-color="#5c310c"/>
      <stop offset=".16" stop-color="#a9542e"/>
      <stop offset=".37" stop-color="#e8a66a"/>
      <stop offset=".66" stop-color="#c27e45"/>
      <stop offset="1" stop-color="#4a2a0c"/>
    </linearGradient>
    <linearGradient id="_未命名漸層_940-2" data-name="未命名漸層 940" x1="-562.08" y1="1773.79" x2="-505.15" y2="1773.79" gradientTransform="translate(1068.32 1895.59) rotate(139.11)" xlink:href="#_未命名漸層_940"/>
    <linearGradient id="_未命名漸層_940-3" data-name="未命名漸層 940" x1="308.47" y1="181.04" x2="288.39" y2="217.66" xlink:href="#_未命名漸層_940"/>
    <linearGradient id="_未命名漸層_940-4" data-name="未命名漸層 940" x1="302.05" y1="176.88" x2="281.38" y2="221.18" xlink:href="#_未命名漸層_940"/>
    <linearGradient id="_未命名漸層_940-5" data-name="未命名漸層 940" x1="-1085.71" y1="2234.66" x2="-1115.67" y2="2246.28" gradientTransform="translate(-1217.24 2497.84) rotate(-176.56)" xlink:href="#_未命名漸層_940"/>
    <linearGradient id="_未命名漸層_940-6" data-name="未命名漸層 940" x1="1846.55" y1="1162.05" x2="1890.76" y2="1162.05" gradientTransform="translate(-2169.97 541.61) rotate(-37.45)" xlink:href="#_未命名漸層_940"/>
    <linearGradient id="_未命名漸層_940-7" data-name="未命名漸層 940" x1="-1106.71" y1="2221.4" x2="-1122.31" y2="2249.84" gradientTransform="translate(-1217.24 2497.84) rotate(-176.56)" xlink:href="#_未命名漸層_940"/>
    <linearGradient id="_未命名漸層_940-8" data-name="未命名漸層 940" x1="-1111.7" y1="2218.18" x2="-1127.75" y2="2252.57" gradientTransform="translate(-1217.24 2497.84) rotate(-176.56)" xlink:href="#_未命名漸層_940"/>
    <linearGradient id="_未命名漸層_965-2" data-name="未命名漸層 965" x1="232.71" y1="298.18" x2="125.22" y2="212.74" gradientTransform="translate(-149.1 -42.48) rotate(-8.81)" xlink:href="#_未命名漸層_965"/>
    <linearGradient id="_未命名漸層_965-3" data-name="未命名漸層 965" x1="339.25" y1="180.17" x2="536.58" y2="448.17" xlink:href="#_未命名漸層_965"/>
  </defs>
  <g id="_圖層_2-2" data-name="圖層 2">
    <image width="998" height="998" transform="translate(31.67) scale(.46)" xlink:href="time.png"/>
    <g>
      <g>
        <path class="cls-7" d="m134.79,246.22c-7.62,0-13.81-6.21-13.81-13.85,0-6.27,4.23-11.77,10.29-13.38l119.67-31.8c1.18-.31,2.38-.47,3.58-.47,7.62,0,13.81,6.21,13.81,13.85,0,6.27-4.23,11.77-10.29,13.38l-119.67,31.8c-1.18.31-2.38.47-3.58.47Z"/>
        <path class="cls-14" d="m254.53,187.72h0c7.06,0,12.81,5.76,12.81,12.85,0,5.81-3.92,10.92-9.54,12.41l-119.67,31.8c-1.1.29-2.21.44-3.33.44-7.06,0-12.81-5.76-12.81-12.85,0-5.81,3.92-10.92,9.54-12.41l119.67-31.8c1.1-.29,2.21-.44,3.33-.44m0-2c-1.26,0-2.55.16-3.84.51l-119.67,31.8c-6.5,1.73-11.03,7.61-11.03,14.34,0,8.41,6.87,14.85,14.81,14.85,1.26,0,2.55-.16,3.84-.51l119.67-31.8c6.5-1.73,11.03-7.61,11.03-14.34h0c0-8.41-6.87-14.85-14.81-14.85h0Z"/>
      </g>
      <g>
        <path class="cls-14" d="m135.51,224.77c0-.37.16-.59.48-.65l2.56-.51c.18-.03.39-.03.61-.02.25.19.14.45-.33.78-.18.14-.28.35-.28.63v4.97c0,.29.14.4.42.32l2.39-.64c.28-.07.56-.32.87-.75.38-.6.78-1.2,1.21-1.81.05-.02.24.06.59.26l1.21.71c.41.26.55.48.4.67-.16.21-.42.35-.76.45l-5.88,1.58c-.29.08-.43.25-.43.53v7.65c0,.35-.17.59-.52.74l-1.9.75c-.42.16-.62.06-.62-.28v-8.03c0-.29-.14-.4-.42-.32l-5.21,1.4c-.35.09-.55.09-.62-.02-.08-.16.04-.29.35-.37l5.47-1.47c.29-.08.43-.25.43-.53v-6.02Z"/>
        <path class="cls-14" d="m153.92,219.87c0-.35.17-.49.52-.43.4.05.81.12,1.21.21.38.12.71.11,1,0l4.26-1.14c.28-.07.57-.33.88-.76.35-.47.68-.66,1-.55l1.18.38c.43.17.63.29.62.35-.02.06-.12.2-.29.41-.18.18-.28.4-.28.68v9.29c-.05.4-.25.79-.62,1.15-.33.32-.9.61-1.7.87-.35.09-.54-.03-.59-.36-.08-.46-.21-.77-.38-.94-.15-.22-.5-.19-1.06.11-.38.14-.57.07-.57-.19s-.12-.38-.35-.32c-.24.07-.36.28-.36.63s-.17.63-.52.78l-.67.25c-.35.13-.52.02-.52-.33v-4.36c0-.35.17-.5.52-.45.69.2,1.18.22,1.45.08.29-.08.53-.26.73-.54.2-.27.47-.35.81-.24l.45.16c.51.06.62.27.35.63-.07.1-.1.29-.1.56v1.9c0,.29.09.41.28.36.2-.05.29-.22.29-.49v-3.81c0-.33-.02-.47-.05-.4-.01.04-.19.1-.54.2l-4.1,1.1c-.29.08-.43.25-.43.53.2,1.79-.28,3.65-1.42,5.57-.3.43-.63.86-.99,1.3-.31.34-.29.49.05.47l1.28-.26,9.4-2.52c.35-.09.52-.09.54.01,0,.1-.06.24-.19.4-.29.54-.46,1.14-.5,1.81-.02.35-.21.57-.55.67l-8.05,2.16c-1.34.07-2.44-.64-3.3-2.13-.13-.28-.31-.22-.54.18-.61,1.07-1.21,2.16-1.78,3.26-.15.46-.26.7-.33.75-.07.02-.16,0-.28-.06-.37-.59-.72-1.19-1.04-1.8-.17-.3-.09-.61.26-.92l.83-.71c.3-.25.45-.51.45-.78v-3.74c0-.29-.14-.4-.42-.32l-.5.13c-.35.09-.56.07-.64-.07-.06-.15.09-.27.43-.36l.67-.18c.28-.07.59-.32.93-.73.3-.36.63-.46,1-.32l1.25.5c.48.11.55.32.21.62-.17.16-.26.38-.26.66v2.73c.01.15.04.31.09.48.13.24.26.17.41-.21.35-1.27.53-2.63.55-4.08v-7.84Zm-4.71,4.15c.05-.12.24-.22.57-.31.39-.08.8-.15,1.23-.21,1.33-.11,1.97.37,1.92,1.46-.25.91-.74,1.42-1.45,1.53-.78-.04-1.18-.4-1.18-1.07.01-.28-.16-.58-.5-.9-.44-.24-.63-.41-.59-.5Zm.54-3.15c.05-.14.22-.25.54-.33.44-.12.89-.2,1.37-.25.62-.07,1.08,0,1.38.25.53.44.62.99.28,1.66-.45.74-1.01,1.06-1.68.93-.4-.09-.65-.33-.73-.72.05-.4-.18-.8-.69-1.2-.33-.15-.49-.27-.47-.34Zm11.71-1.58c0-.3-.13-.41-.4-.34l-4.29,1.15c-.29.08-.43.25-.43.53v3.27c0,.29.14.4.42.32l.4-.11c.29-.08.43-.25.43-.53v-.62c0-.29-.13-.4-.4-.33-.28.07-.45.04-.52-.1-.07-.14.06-.26.4-.35.35-.09.52-.28.52-.55v-.76c0-.35.17-.57.52-.66l1.9-.37c.38.05.37.23-.02.54-.09.07-.14.26-.14.56,0,.39.11.41.35.05.21-.32.44-.39.71-.21.26.19.37.36.33.5.02.27-.29.45-.95.53-.29.08-.43.25-.43.53v.62c0,.28.05.41.16.39.1-.03.24-.2.4-.5.2-.35.41-.44.64-.28.28.2.42.16.42-.13v-3.15Zm-2.35,6.7c0-.29-.12-.4-.35-.34-.24.07-.36.24-.36.51v1.66c0,.29.12.4.35.34.24-.07.36-.24.36-.51v-1.66Z"/>
        <path class="cls-14" d="m170.52,215.2c.09-.36.36-.56.8-.59.96-.13,1.91-.24,2.87-.32.39.2.3.45-.28.77-.13.1-.29.36-.5.77-.2.4-.16.56.12.49l6.71-1.8c.28-.07.56-.32.86-.75l.57-.83c.3-.41.63-.53.99-.35l.88.49c.42.26.56.48.43.68-.13.2-.36.34-.69.43l-4.27,1.15c-.29.08-.43.25-.43.53v2.75c0,.29.14.4.42.32l.83-.22c.28-.07.56-.32.85-.75.16-.27.34-.55.54-.84.29-.41.61-.51.95-.31l.87.49c.4.25.55.47.43.66-.13.18-.36.32-.69.41l-3.76,1.01c-.29.08-.43.25-.43.53v3.51c0,.29.14.4.42.32l1.3-.35c.28-.07.56-.32.87-.75.27-.36.51-.71.73-1.06.25-.37.58-.43.99-.2l1.04.59c.36.2.47.4.35.6-.15.21-.4.37-.74.46l-4.5,1.21c-.29.08-.43.25-.43.53v3.41c0,.35-.17.59-.52.74l-1.9.75c-.4.15-.61.06-.61-.29v-3.79c0-.29-.14-.4-.42-.32l-6.59,1.77c-.35.09-.55.07-.62-.08-.07-.15.07-.28.42-.37l.9-.24c.29-.08.43-.25.43-.53v-4.57c.14-.54-.09-.5-.69.13-.44.3-.69.43-.74.37-.06-.05.02-.28.22-.68.93-1.9,1.62-3.87,2.06-5.9Zm5.04,1.51c0-.3-.13-.41-.4-.34l-1.94.52c-.28.07-.55.32-.83.74-.45.74-.99,1.46-1.61,2.16-.31.3-.34.47-.09.51l1.61.3c.2.04.43.02.71-.05l2.11-.57c.29-.08.43-.25.43-.53v-2.73Zm0,4.07c0-.3-.13-.41-.4-.34l-2.3.62c-.29.08-.43.25-.43.53v3.51c0,.29.14.4.42.32l2.28-.61c.29-.08.43-.25.43-.53v-3.5Z"/>
        <path class="cls-14" d="m190.02,210.28c0-.33.17-.55.5-.64l1.9-.37c.35-.1.6-.09.76.06.02.14-.09.31-.35.49-.17.14-.26.35-.26.62v2.41c0,.3.13.28.38-.07.25-.34.57-.43.93-.27l.35.18c.42.21.58.41.48.58-.1.19-.32.33-.64.41l-1.07.29c-.29.08-.43.25-.43.53v2.18c0,.28.17.33.52.17l.74-.42c.39-.22.6-.3.62-.25.05.14-.13.4-.52.78l-.95.86c-.28.26-.42.53-.42.8v5.93c0,.35-.17.59-.52.74-.48.18-.97.37-1.45.58-.39.16-.59.09-.59-.22v-4.65c0-.28-.18-.25-.55.08l-.83.74c-.1.11-.18.23-.24.38-.17.39-.34.56-.5.5-.14-.11-.25-.35-.33-.71-.13-.61-.28-1.22-.45-1.83-.09-.36.06-.61.47-.77l2.01-.83c.29-.12.43-.32.43-.6v-2.75c0-.29-.1-.4-.31-.35-.22.06-.4.28-.55.67-.24.72-.73,1.6-1.47,2.64-.37.47-.58.69-.62.67-.06-.04-.05-.25.02-.61.32-1.61.53-3.44.62-5.5.02-.44.21-.66.57-.65h1.33c.28-.03.42-.17.42-.45v-1.35Zm0,3.06c0-.25-.07-.21-.21.13l-.12.46c-.1.33-.08.47.07.43.17-.05.26-.21.26-.48v-.54Zm6.23-4.82c0-.33.17-.55.5-.64.6-.14,1.22-.26,1.85-.36.35-.12.62-.14.83-.08.22.1.17.28-.16.54-.13.1-.19.29-.19.57v1.14c0,.29.16.39.47.31.32-.09.63-.34.93-.77l.42-.63c.28-.37.61-.46.99-.26.23.11.46.24.69.39.38.21.52.41.42.6-.12.2-.35.35-.69.44l-2.79.75c-.29.08-.43.25-.43.53v1.78c0,.29.14.4.42.32l.47-.13c.28-.07.56-.32.85-.75l.43-.64c.31-.44.63-.57.97-.4l.88.49c.37.2.5.39.38.57-.13.2-.36.34-.71.43l-9.03,2.42c-.35.09-.55.08-.61-.03-.09-.16.02-.28.33-.37l2.35-.63c.29-.08.43-.25.43-.53v-1.78c0-.29-.14-.4-.42-.32l-1.19.32c-.35.09-.56.07-.64-.07-.06-.16.09-.28.43-.38l1.38-.37c.29-.08.43-.25.43-.53v-1.96Zm2.28,6.05c0-.35.17-.56.5-.64.63-.14,1.27-.25,1.9-.35.23-.07.46-.11.69-.1.4.03.39.25-.03.65-.29.17-.39.52-.29,1.05,0,.36.14.34.42-.06l.33-.5c.29-.43.58-.53.88-.27l.12.12c.35.31.48.56.42.74-.09.21-.31.36-.64.45l-1.09.29c-.29.08-.43.25-.43.53v4.93c-.09.72-.5,1.29-1.23,1.71-.46.27-.92.48-1.38.61-.42.12-.65.02-.69-.32-.02-.4-.16-.77-.4-1.1-.15-.21-.48-.37-.99-.48-.4,0-.59-.09-.57-.28.01-.05.19-.12.54-.21l1.52-.41c.29-.08.43-.25.43-.53v-3.17c0-.29-.14-.4-.42-.32l-2.32.62c-.36.1-.39.19-.09.28.84.09,1.3.51,1.37,1.26.06.38-.06.8-.36,1.27-1.03,1.12-1.66.98-1.89-.41.02-.57-.12-1.1-.42-1.58-.17-.25-.38-.35-.62-.28-.24.06-.41.03-.5-.11-.09-.14.03-.25.38-.34l4.43-1.19c.29-.08.43-.25.43-.53v-1.33Z"/>
        <path class="cls-14" d="m207.1,205.86c0-.37.17-.54.5-.51l1.19.08c.6.08,1.04.07,1.33-.05l1.85-.5c.28-.07.59-.31.93-.72.31-.36.65-.48,1-.36l1.25.48c.5.09.56.32.19.69-.16.15-.24.34-.24.57v3.63c0,.35-.17.59-.52.74l-1.56.62c-.4.15-.61.1-.61-.17,0-.29-.14-.4-.42-.32l-.55.15c-.28.07-.43.29-.47.64l-.05,1.19c-.02.32.09.44.35.37l.45-.12c.28-.07.59-.32.93-.75.42-.51.8-.7,1.14-.57l1.56.62c.29.2.23.45-.17.76-.2.13-.29.33-.29.6-.03,2.48-.25,4.25-.66,5.31-.13.41-.36.77-.71,1.06-.53.33-1.13.58-1.8.76-.42.12-.62-.02-.62-.42.05-.69-.25-1.15-.9-1.39-.28-.02-.42-.08-.42-.18,0-.15.17-.27.52-.36l1.09-.29c.28-.07.46-.31.54-.7.2-1.04.31-2.27.33-3.69,0-.29-.14-.4-.42-.32l-.59.16c-.28.07-.44.29-.48.65-.08.89-.28,1.8-.59,2.75-.54,1.7-1.56,3.3-3.06,4.8-.34.34-.56.51-.67.51-.12-.03-.05-.25.19-.67.6-1.18.99-2.2,1.18-3.08.3-1.6.48-3.42.55-5.46,0-.28-.17-.35-.52-.22l-.17.08c-.39.16-.59.07-.59-.27v-6.11Zm5.33-.16c0-.3-.13-.41-.4-.34l-1.8.48c-.29.08-.43.25-.43.53v3.37c0,.29.14.4.42.32l1.78-.48c.29-.08.43-.25.43-.53v-3.36Zm3.34-.31c0-.36.17-.57.52-.64.62-.14,1.26-.27,1.92-.39.33-.07.51-.01.52.16-.05.09-.13.19-.26.28-.15.1-.22.27-.22.53v8.01c0,.35-.17.59-.52.74-.46.17-.93.36-1.4.57-.37.16-.55.07-.55-.25v-9Zm3.51-3.03c0-.35.17-.55.5-.62.63-.14,1.27-.25,1.9-.35.32-.09.6-.11.83-.07.15.13.07.33-.24.58-.21.17-.31.39-.31.67v13.31c-.08.62-.36,1.12-.85,1.49-.44.33-1.01.59-1.71.81-.35.1-.54-.01-.59-.34-.07-.85-.5-1.34-1.3-1.47-.35-.05-.52-.11-.54-.2.01-.1.19-.19.54-.28l1.33-.36c.29-.08.43-.25.43-.53v-12.63Z"/>
        <path class="cls-14" d="m237.9,196.99c.43-.33.81-.42,1.14-.27l1.75.78c.45.18.61.41.47.71-.14.21-.36.3-.67.28-.24.04-.48.13-.73.26l-2.51.95c-.28.12-.42.32-.42.6v2.18c0,.29.14.4.42.32l.76-.2c.28-.07.56-.32.87-.75.22-.35.46-.7.71-1.06.26-.38.58-.47.95-.25l1.04.62c.38.22.52.42.42.6-.15.21-.39.36-.73.45l-4,1.07c-.29.08-.43.25-.43.53v2.49c0,.29.07.41.22.37s.38-.28.69-.7c.13-.21.27-.42.43-.64.27-.38.59-.51.97-.38l1.73.63c.55.14.61.44.16.91-.22.26-.33.52-.33.8v3.96c0,.35-.17.59-.52.74l-2.13.85c-.39.15-.59.07-.59-.24v-.43c0-.29-.14-.4-.42-.32l-3.24.87c-.29.08-.43.28-.43.62s-.17.59-.52.74l-2.08.83c-.35.13-.52.02-.52-.33v-7.08c0-.35.17-.5.52-.45l2.59.48c.48.14.67-.02.55-.46v-2.47c0-.29-.14-.4-.41-.32l-2.79.75c-.35.09-.54.11-.57.05-.03-.06-.1.1-.21.47l-1.04,4.4c-.16.5-.21.98-.14,1.42.48.84.72,1.7.71,2.6-.12.79-.51,1.36-1.18,1.7-.55.29-1.03.33-1.44.13-.28-.14-.44-.41-.48-.8-.02-.27.03-.77.16-1.49.15-.64.23-1.12.24-1.45.07-.42-.12-.68-.55-.77-.4-.02-.61-.09-.61-.2,0-.09.17-.2.52-.33.24-.08.46-.23.66-.47l1.51-3.14c.15-.32.08-.31-.21.02-1,.83-1.63.62-1.89-.64.02-.28-.09-.6-.35-.95-.35-.31-.49-.53-.43-.65.03-.09.22-.18.57-.27.45-.12.9-.19,1.35-.21,1.07.07,1.55.55,1.42,1.45-.07.31-.01.27.17-.1l1.11-2.29c.23-.5.38-.73.45-.69.06.02.04.23-.05.64l-.17.72c-.08.34,0,.48.24.42l2.98-.8c.29-.08.43-.25.43-.53v-1.99c0-.29-.17-.38-.52-.28l-2.34.66c-.35.1-.53.11-.55.01-.03-.11.13-.25.48-.42,2.56-1.3,4.82-2.72,6.78-4.26Zm-11.13,3.28c.06-.12.24-.22.54-.3.74-.21,1.44-.26,2.09-.16.54.15.88.48,1,.98.12.45-.02.95-.42,1.5-.55.66-1.13.86-1.73.6-.31-.19-.48-.49-.5-.89.02-.42-.16-.83-.54-1.24-.35-.23-.5-.39-.45-.48Zm10.8,7.21c0-.29-.14-.4-.42-.32l-3.24.87c-.29.08-.43.25-.43.53v3.37c0,.29.14.4.42.32l3.24-.87c.29-.08.43-.25.43-.53v-3.37Z"/>
        <path class="cls-14" d="m250.95,193.51c.39-.34.74-.43,1.04-.3.65.27,1.29.55,1.94.87.3.1.38.25.23.42-.09.06-.25.1-.48.13-.16-.04-.39.01-.69.15l-1.7.64c-.3.13-.45.32-.45.57v.54c0,.29.14.4.42.32l.48-.13c.31.07.7-.32,1.16-1.16.3-.41.63-.53.99-.35l.78.41c.28.13.42.06.42-.22v-2.65c0-.35.17-.56.52-.64l1.9-.39c.45-.05.7-.04.74.03.05.16-.06.35-.33.56-.09.06-.14.26-.16.61l-.05,2.57c0,.36.09.51.28.46.2-.05.47-.29.81-.72.43-.51.8-.69,1.12-.56l1.18.45c.63.2.72.51.24.92-.21.16-.31.36-.31.6-.03,2.67-.16,4.96-.36,6.85-.15,1.29-.39,2.27-.71,2.96-.52.77-1.29,1.29-2.32,1.56-.42.11-.62-.02-.62-.4-.01-.55-.12-.98-.31-1.3-.16-.2-.32-.31-.47-.32-.36-.03-.54-.12-.54-.25,0-.15.17-.27.52-.36l1.19-.32c.28-.07.45-.29.52-.66.31-2.32.46-4.82.45-7.51.01-.36-.09-.51-.31-.45-.23.06-.36.23-.38.52-.03.86-.1,1.75-.19,2.66-.2,2.29-.85,4.31-1.96,6.06-.89,1.32-1.91,2.46-3.06,3.4-.38.32-.61.46-.67.41-.08-.08.05-.33.4-.75.67-.81,1.21-1.61,1.61-2.39.16-.32.05-.37-.35-.15l-6.82,4.09c-.09.06-.18.17-.26.33-.14.27-.24.43-.29.49-.17.03-.29-.1-.36-.4-.18-.64-.35-1.3-.5-1.96-.07-.33.07-.54.41-.65l2.44-.74c.32-.12.48-.35.48-.68,0-.39-.14-.55-.42-.48l-2.23.6c-.35.09-.55.09-.62-.02-.08-.15.04-.27.36-.36l2.47-.66c.29-.08.43-.25.43-.53v-.76c0-.29-.12-.4-.35-.34-.24.07-.36.2-.36.39s-.17.38-.52.54l-1.09.47c-.39.16-.59.09-.59-.22v-5.48c0-.35.17-.51.52-.5l1.21.09c.18.02.42,0,.71-.09.31-.08.47-.31.47-.68s-.14-.53-.42-.46l-2.3.62c-.35.09-.56.07-.64-.07-.06-.15.09-.27.43-.36l2.49-.67c.29-.08.43-.25.43-.53v-.33c0-.28-.17-.36-.52-.26l-1.87.6c-.43.11-.65.13-.67.04-.02-.09.15-.22.52-.42,1.8-.98,3.44-2.08,4.93-3.29Zm-2.39,6.59c0-.29-.12-.4-.35-.34-.24.07-.36.24-.36.51v.81c0,.29.12.4.35.34.24-.07.36-.24.36-.51v-.81Zm0,2.16c0-.3-.11-.42-.33-.36-.25.07-.38.24-.38.52v.88c0,.29.12.4.35.34.24-.07.36-.24.36-.51v-.87Zm6.47-5.9c.05-.36,0-.44-.14-.24-.13.2-.36.34-.71.43l-2.92.78c-.29.08-.43.3-.43.67s.12.54.35.48c.24-.06.51-.26.8-.59.3-.33.62-.44.95-.31l1.25.48c.23.16.18.33-.14.5-.18.13-.28.33-.28.61v3.25c0,.35-.12.57-.35.68-.29.12-.26.28.09.46l.38.19c.37.2.51.38.43.54-.1.19-.33.33-.67.42l-2.37.64c-.29.08-.43.28-.43.6s.17.44.52.35c.83-.3,1.66-.59,2.49-.86.27-.09.46-.34.59-.75.45-1.75.65-4.09.61-7.03,0-.29-.14-.4-.42-.32l-.4.11c-.35.09-.56.07-.64-.07-.06-.15.09-.27.43-.36l.57-.15c.28-.07.43-.25.45-.52Zm-3.56,2.96c0-.29-.1-.4-.31-.35-.22.06-.33.23-.33.5v.81c0,.29.1.4.31.35.22-.06.33-.23.33-.5v-.81Zm0,2.16c0-.3-.1-.42-.29-.37-.23.06-.35.23-.35.51v.88c0,.29.1.4.31.35.22-.06.33-.23.33-.5v-.87Zm0,2.16c-.02-.26-.12-.37-.29-.32-.23.06-.35.23-.35.51v.76c0,.29.17.39.5.3.35-.09.68-.36,1-.79l.14-.21c.25-.37.25-.5,0-.4l-.57.24c-.29.12-.43.09-.43-.09Z"/>
      </g>
      <path class="cls-17" d="m311.34,277.13c.28-3.21-1.07-5.36-1.96-6.4-.28-.33-.58-.63-.9-.91,1.94-1.18,3.42-3.04,4.14-5.36.38-1.24.46-2.55.23-3.82-.6-3.26-2.86-4.97-4.21-6-.21-.16-.44-.31-.67-.46.35-.42.67-.89.95-1.42.28-.52.49-1.06.65-1.62.76-2.75.3-5.6-1.28-7.81-.89-1.26-2.92-3.36-6.67-3.81-.77-.14-1.54-.25-2.3-.31-.37-.04-.74-.07-1.11-.07h0c-2.02,0-3.88.64-5.42,1.77-1.01-.52-2.15-.87-3.37-1.02-.33-.04-.65-.06-.98-.06-.08,0-.17,0-.25,0-1.11.04-2.24.12-3.34.26-4.31.39-7.55,3.47-8.28,7.7-1.03-.44-2.17-.74-3.48-.74-.72,0-1.43.09-2.12.28-.79.21-1.53.54-2.21.98-.63-3.71-1.58-7.08-2.82-10.08-2.87-6.91-7.23-11.89-12.98-14.8-3.43-1.74-7.24-2.62-11.32-2.62-2.78,0-5.73.41-8.77,1.23-7.01,1.88-13.1,5.48-18.08,10.72-2.54,2.66-4.77,5.68-6.68,9.03v-4.1c0-2.48-1.15-4.82-3.12-6.33-1.41-1.08-3.12-1.65-4.85-1.65-.69,0-1.38.09-2.06.27l-1.01.27c-1.53.41-2.91,1.27-3.95,2.47-.96,1.1-2.07,2.12-3.31,3.03-1.39,1.02-2.81,1.91-4.23,2.66-1.64.85-3.27,1.65-4.85,2.36-1.56.7-2.94,1.28-4.1,1.71-3.13,1.16-5.2,4.14-5.2,7.48v1.05c0,2.48,1.15,4.82,3.12,6.33,1.41,1.08,3.12,1.65,4.85,1.65.18,0,.35,0,.53-.02v49.69l-1.79.48c-.6.16-1.17.39-1.71.68.68-5.27,1.14-11.65,1.4-19.35.93-1.17,1.56-2.52,1.83-3.99.49-2.62-.18-5.29-1.91-7.53-.31-.4-.66-.78-1.04-1.11l-1.8-1.59s-.09-.08-.14-.12c-1.75-1.47-3.83-2.25-6.01-2.25-.97,0-1.92.16-2.82.45-.27-.46-.58-.9-.94-1.31-1.58-1.81-3.82-2.87-6.31-2.99-.12,0-.24,0-.37,0-.2,0-.4,0-.61.02l-2.43.19c-3.3.23-6.04,1.86-7.65,4.36-1.09-.46-2.29-.72-3.56-.72-.76,0-1.55.09-2.34.27-.85.13-1.71.31-2.56.54-3.25.87-5.69,3.25-6.71,6.36-2.4-2.55-5.1-2.98-6.63-2.98h0c-3.01,0-5.74,1.54-7.49,4.18l-8.17,2.19c-.05-.01-.11-.02-.16-.03,2.18-.68,4.87-2.41,6.56-6.68.05-.12.09-.24.13-.36,1.3-3.8.79-8.15-1.51-12.92-.73-1.53-1.63-3.07-2.68-4.59.28-.41.57-.81.85-1.2,2.87-1.4,4.16-3.59,4.7-4.95.68-1.69,1.43-5.12-1.13-9.04-.49-.75-1.11-1.41-1.82-1.96-.34-.26-.7-.57-1.08-.92-.21-.2-.43-.38-.65-.55-2.28-1.72-4.51-2.08-5.98-2.08-2.07,0-4.02.68-5.65,1.93-.91-1.83-2.47-3.31-4.44-4.19-.74-.33-1.53-.55-2.33-.64-1.5-.17-3.01-.29-4.5-.36-.12,0-.23,0-.35,0-1.35,0-2.68.34-3.87,1-.83.46-1.49,1.01-2.03,1.6-.31-.02-.63-.03-.96-.04l-1.03-.05c-.13,0-.26,0-.39,0-3.92,0-6.72,1.45-8.31,4.31-.54.96-.87,2.03-.98,3.13-.05.57-.12,1.14-.2,1.72-.23-.19-.45-.37-.69-.56-1.38-1.21-3.41-2.82-6.42-2.82-.08,0-.16,0-.24,0-1.28.04-2.53.38-3.65,1.01-1.46.81-2.32,1.82-3.34,3.23-.3.03-.6.09-.89.15-.2.05-.39.1-.58.15-1.58-1.17-3.47-1.82-5.42-1.82-.6,0-1.2.06-1.79.18l-1.51.14c-.27.02-.53.06-.8.11-1.38.27-2.63.8-3.7,1.55-.34-.04-.69-.07-1.05-.07-.09,0-.19,0-.29,0-2.96.1-5.62,1.84-6.91,4.51-.16.34-.35.69-.56,1.04-1.64.13-3.21.78-4.49,1.85-3,2.53-3,5.99-3,7.65,0,.09,0,.19,0,.28.22,6.3.47,12.65.74,18.96-2.57,1.88-3.96,4.95-3.5,8.34.03.24.08.48.13.72.61,2.67,1.83,4.35,3.16,5.4-.92,1.04-1.73,2.39-2.03,4.21-.17,1.02-.13,2.06.1,3.07.6,2.61,2.44,4.79,4.93,5.84.98.41,2.03.62,3.08.62.73,0,1.46-.1,2.17-.3,5.8-1.64,11.2-5.5,16.5-11.81.19-.09.38-.19.57-.3-1.57,1.7-2.52,4.03-2.52,6.7v3.32c-2.7.9-4.22,2.56-5.04,3.9-1.26,2.06-1.6,4.59-.93,6.95.59,2.12,1.89,3.86,3.6,4.99-.99,3.47-2.21,6.76-3.63,9.83-1.2,2.53-1.18,5.34.05,7.71,1.19,2.29,3.33,3.87,5.91,4.37-.22,3.2.95,5.39,2.05,6.7,1.65,1.98,4.11,3.12,6.75,3.12,1.21,0,2.46-.24,3.71-.72,2.07-.74,3.73-2.01,4.9-3.6,1.19.57,2.52.87,3.9.87,1.02,0,2.04-.16,3.12-.48,2.73-.77,4.9-2.5,6.17-4.91.67.44,1.4.78,2.17,1.01.96.28,1.95.42,2.94.42,1.79,0,4.37-.47,6.87-2.57.91.25,1.71.32,2.3.32,2.83,0,6.39-1.5,8.19-5.64,1.69.48,3.49.73,5.35.73.58,0,1.17-.02,1.76-.07.01,0,.03,0,.04,0,2.71-.23,6.33-.94,11.04-2.17.02,0,.04,0,.05-.01l7.42-1.99c.18-.05.36-.1.54-.16l.44-.15c1.22-.37,2.32-.95,3.27-1.7.62.1,1.25.16,1.86.16,3.18,0,6.04-1.37,8.04-3.8.84.21,1.7.31,2.55.31,3.23,0,6.21-1.49,8.4-4.18.39-.48.72-1.01.99-1.56,1.58,1.56,3.73,2.48,6.12,2.48,1.16,0,2.34-.23,3.49-.67,2.55-.93,5.79-2.9,8.13-6.98.48.99,1.16,1.89,2.03,2.62,1.46,1.23,3.28,1.88,5.15,1.88.69,0,1.38-.09,2.06-.27l27.74-7.43c3.1-.83,5.35-3.42,5.82-6.51.4.23.8.46,1.22.67,3.42,1.75,7.23,2.64,11.33,2.64,2.77,0,5.71-.41,8.75-1.23,7-1.88,13.1-5.48,18.12-10.71,1.71-1.78,3.27-3.72,4.69-5.81.24,1.41.86,2.73,1.79,3.82,1.54,1.8,3.79,2.84,6.17,2.84,2.24,0,4.01-.89,5.59-1.84.02-.01.04-.02.05-.03,2.33-1.44,4.66-3.32,6.92-5.6,1.03-1.03,1.99-2.1,2.86-3.19,1.73,2.04,4.14,3.31,6.86,3.6.02,0,.04,0,.07,0,.54.05,1.1.08,1.67.08,3.92,0,8.54-1.25,14.53-3.95.09-.04.17-.08.26-.12,3.9-1.92,6.31-5.31,6.63-9.32.21-2.36-.46-4.61-1.86-6.42Zm-255.92,19.78s.06.05.09.07c-.1.05-.2.1-.3.15.07-.07.14-.14.21-.22Zm210.72-12.55c.4-1.18.76-2.39,1.09-3.61.36.04.73.08,1.11.08.49,0,.98-.04,1.48-.12-1.1,2.34-2.62,4.39-4.62,6.24.33-.84.64-1.7.94-2.58Z"/>
      <g>
        <path class="cls-10" d="m47.21,257.16c.05-1.18.51-1.85,1.35-2.01l2.13-.19c.52-.2.98-.06,1.39.43.3.96-.21,1.75-1.52,2.39-.08.15-.18.55-.29,1.21l-.16,1.27c-.08.78.08,1.11.49,1,.41-.11.92-.72,1.52-1.82.68-1.31,1.11-1.98,1.27-1.99.25.06.64.27,1.19.62l1.64,1.07c.76.2,1,.68.7,1.42-.16.2-.64.41-1.43.62l-4.63,1.24c-.66.18-1.08.76-1.27,1.76-.22,1.07-.4,2.12-.53,3.16-.08.75.31,1.02,1.19.81l1.43-.38c.66-.18,1.38-.81,2.17-1.9.76-1.08,1.22-1.66,1.35-1.73.14-.04.57.32,1.31,1.06,1.39,1.01,2.08,2.08,2.05,3.22-.25.69-.71,1.13-1.39,1.32-.41.17-.66.3-.74.39-.08.15-.16.55-.25,1.2l-1.15,11.15c-.05.77.25,1.07.9.89l5.16-1.38c.66-.18,1.02-.75,1.11-1.71.03-1.36.1-2.73.2-4.11.03-.79-.29-1.1-.94-.93-.63.17-1.27.4-1.93.7-.88.42-1.38.32-1.52-.3-.16-.62.18-1.02,1.02-1.22l2.46-.42c.66-.18,1.02-.75,1.11-1.71l.29-4.98c0-.75-.33-1.04-.98-.87-.57.15-1.16.37-1.76.66-.85.35-1.35.27-1.52-.25-.14-.62.21-1.03,1.02-1.22.79-.09,1.58-.24,2.38-.45.66-.18,1.02-.75,1.11-1.71l.33-5.75c.03-.76-.29-1.05-.94-.88-1.23.27-2.29.63-3.2,1.09-.88.42-1.37.32-1.48-.31-.14-.65.22-1.08,1.07-1.28,1.09-.1,2.04-.28,2.83-.52.66-.18,1.37-.81,2.13-1.89.79-1.12,1.24-1.72,1.35-1.78.14,0,.62.35,1.43,1.08,1.26.89,1.98,1.73,2.17,2.53-.08.93-.53,1.53-1.35,1.78-.44.21-.71.4-.82.55-.47,7.2-.87,14.38-1.23,21.55-.06.77-.01,1.15.12,1.15.14-.04.52-.59,1.15-1.68.3-.61.66-1.24,1.07-1.89.11-.06.53.28,1.27,1.03l1.52,1.76c-.14.76-.66,1.13-1.56,1.12l-33.82,9.06c-.87.33-1.75.7-2.62,1.13-.11-.03-.23-.35-.37-.94-.08-.61.29-.99,1.11-1.15l1.64-.3c.68-.15,1.02-.7,1.02-1.64-.36-7.79-.67-15.6-.94-23.42,0-.94.05-1.46.16-1.55.68.04,1.37.12,2.05.25.63.11,1.28-.2,1.97-.95,1.28-1.63,2.31-3.24,3.07-4.83.14,0,.48.11,1.02.34,1.23.49,2.04.92,2.42,1.29.46.88.12,1.48-1.02,1.78-.57-.32-1.24.02-2.01,1.01-1.37,1.28-2.45,2.18-3.24,2.71-.74.51-1.11.86-1.11,1.05l.16,5.33c.03.75.11,1.12.25,1.11.38-.1.83-.77,1.35-2.01.66-1.12,1.05-1.7,1.19-1.73l2.66,1.64c1.07.37,1.27.93.61,1.67-1.64.53-3.28,1-4.92,1.41-.66.18-.98.74-.98,1.68l.16,4.81c.05.8.41.58,1.07-.66.6-1.17,1.01-1.78,1.23-1.84.25.06.64.27,1.19.62.55.32,1.09.7,1.64,1.12.82.32,1.04.79.66,1.43-.14.16-.61.35-1.43.57l-3.2.86c-.66.18-.98.64-.98,1.4l.16,4.34c.05.74.41,1.02,1.07.85l3.85-1.03c.66-.18,1.07-.76,1.23-1.74.35-3.08.75-6.17,1.19-9.28.11-.97.22-1.55.33-1.74.33-.12.94-.13,1.84-.02.55-.02,1.09,0,1.64.08.66.14.94.45.86.95-.11.78-.49,1.26-1.15,1.44-.3.08-.53.63-.7,1.65-.3,2.06-.56,4.16-.78,6.29-.11.82.16,1.14.82.96l1.27-.34c.66-.18,1.05-.75,1.19-1.73l1.39-13.34c.05-.77-.25-1.07-.9-.89l-2.34.63c-.93.41-1.46.86-1.6,1.37-.47,1.48-1.42,2.09-2.87,1.85-.19-.17-.21-.75-.04-1.73.96-4.69,1.53-9.27,1.72-13.76Zm-2.62,33.8c.3-.74.66-1.5,1.07-2.27.11-.06.6.04,1.48.31l1.64.46c.93.25,1.27.79,1.02,1.61-.27.64-.71.96-1.31.96-.6.13-1.23.66-1.89,1.59-4.32,5.24-8.62,8.47-12.91,9.68-.14-.06-.22-.15-.25-.26.03-.16.46-.56,1.31-1.2,4.04-2.66,7.32-6.28,9.84-10.89Zm10.62-3.65c.16-.17.64-.25,1.43-.24,3.61.26,6.72,1.23,9.35,2.92,1.15,1.23,1.37,2.67.66,4.3-.82,1.01-1.59,1.12-2.3.33-2.19-2.97-5.03-5.13-8.53-6.49-.55-.07-.75-.35-.61-.83Z"/>
        <path class="cls-10" d="m80.51,246.59c.08-.15.53-.22,1.35-.22l1.19.06c.93,0,1.58.09,1.97.27.63.84.38,1.53-.74,2.08-.52.14-.93.7-1.23,1.7-.63,2.15-1.37,4.33-2.21,6.53-.33.84-.23,1.26.29,1.24.76-.08,1.16.19,1.19.81.08.54-.21,1.01-.86,1.41-.36.32-.53.85-.53,1.6v26.31c.25,2.1-.71,3.1-2.87,2.98-.22-.13-.33-.65-.33-1.56v-24.28c0-.85-.3-.67-.9.52-.96,1.92-2.28,3.83-3.98,5.73-.16.08-.3.06-.41-.03-.03-.15.25-.77.82-1.87,4.1-7.86,6.52-15.62,7.26-23.3Zm8.24,17.83c.25-.98.9-1.39,1.97-1.23.55.01,1.09.07,1.64.17,1.31.09,1.65.7,1.03,1.85-.14.16-.4.31-.78.44-.57-.1-.97.45-1.19,1.64-1.53,5.25-3.54,9.88-6.03,13.87-.68,1.38-1.24,1.84-1.68,1.39,2.6-5.72,4.28-11.77,5.04-18.14Zm.94-18.88c.19-1.06.34-1.62.45-1.68,1.31.06,2.62.16,3.93.31.79.35.83.99.12,1.9-.14.1-.4.22-.78.35-.44.15-.83.74-1.19,1.78l-1.52,4.04c-.36.85-.12,1.21.7,1.09l12.5-3.35c.66-.18,1.38-.84,2.17-2,.68-1,1.52-1.13,2.5-.39.57.54,1.13,1.02,1.68,1.44.93,1.42.51,2.33-1.27,2.75-.52.01-1.08.56-1.68,1.63-.88,1.21-1.75,2.46-2.62,3.77-.57.97-1.04,1.3-1.39.99-.03-.18.14-.79.49-1.83l1.35-4.32c.16-.8-.08-1.11-.74-.93l-4.55,1.22c-.68.18-1.02.65-1.02,1.41v27.39c.22,2.3-.81,4.13-3.07,5.49-.9.49-1.37.49-1.39,0,0-1.13-.82-1.92-2.46-2.36-.82-.31-1.23-.55-1.23-.71.11-.25.57-.42,1.39-.51.66.01,1.31-.04,1.97-.15,1.28-.16,1.8-.92,1.56-2.3v-25.93c0-.79-.33-1.09-.98-.92l-3.94,1.1c-.82.35-1.5,1.03-2.05,2.06-1.72,3.35-3.28,5.53-4.67,6.53-.38-.18-.22-.76.49-1.74,2.84-5.41,4.59-10.79,5.25-16.12Zm13.08,16.72c-.47-.94-.59-1.51-.37-1.69.19-.08.63.22,1.31.92,1.86,2.14,3.29,4.27,4.3,6.39,1.37,2.84,1.75,5.14,1.15,6.91-.79,2-1.75,2.54-2.87,1.62-.16-.27-.27-.87-.33-1.8-.41-4.92-1.48-9.04-3.2-12.35Z"/>
        <path class="cls-10" d="m58.37,305.58c0-1.07.41-1.59,1.23-1.56l2.91-.12c1.07.34,1.22,1.12.45,2.33-.25.32-.66.62-1.23.9-.11.15-.16.61-.16,1.36v4.67c0,.75.14,1.11.41,1.07.27-.1.78-.73,1.52-1.87.16-.2.29-.39.37-.57.79-1.19,1.24-1.79,1.35-1.82,1.12.58,2.28,1.26,3.48,2.04.46.13.72.39.78.78-.22.72-.81,1.11-1.76,1.18l-5.12,1.37c-.68.18-1.02.65-1.02,1.41v1.08c0,.75.41,1.34,1.23,1.74,3.28,1.92,5.03,4.25,5.25,6.99-.03.73-.42,1.32-1.19,1.78-.93.38-1.63,0-2.09-1.14-.71-1.66-1.48-3.33-2.3-5-.41-.74-.67-1.08-.78-1.02-.08.15-.12.6-.12,1.35v22.96c.33,1.39-.16,2.31-1.48,2.75-1.45.58-2.02.04-1.72-1.61v-21.5c0-.69-.16-.55-.49.41-.74,3.62-2.28,7.46-4.63,11.52-.79,1.09-1.24,1.67-1.35,1.73-.44-.07-.53-.36-.29-.87,2.81-6.07,4.86-12.75,6.15-20.04.16-.89-.06-1.26-.66-1.1-1.39.31-2.56.7-3.48,1.17-.85.35-1.35.22-1.52-.39-.19-.64.26-1.06,1.35-1.26.9-.05,2.2-.34,3.89-.85.68-.18,1.02-.65,1.02-1.41v-8.49Zm12.46-2.4c0-1.13.42-1.5,1.27-1.09,1.48.92,2.51,1.21,3.12.86l8.81-2.36c.66-.18,1.31-.73,1.97-1.66.71-1.01,1.11-1.52,1.19-1.54.14,0,.63.37,1.48,1.11,1.8,1.03,1.98,2.17.53,3.44-.79.4-1.08,1.06-.86,1.98v34.37c0,1.01-.1,1.63-.29,1.87-.85.82-1.75,1.1-2.7.82-.14-.12-.21-.65-.21-1.6v-1.18c0-.79-.33-1.09-.98-.91l-9.1,2.44c-.68.18-1.02.65-1.02,1.41.03.87,0,1.76-.08,2.66-.25.54-.71.9-1.39,1.08-1.5.47-2.08-.07-1.72-1.61v-40.08Zm4.43,1.03c-.82.38-1.23.94-1.23,1.7v7.73c0,.79.33,1.09.98.92l9.1-2.44c.68-.18,1.03-.65,1.03-1.41v-7.97c0-.79-.33-1.09-.98-.91l-8.9,2.38Zm9.88,10.08c0-.82-.31-1.14-.94-.97l-9.14,2.45c-.68.18-1.02.65-1.02,1.41v8.16c0,.79.33,1.09.98.92l9.1-2.44c.68-.18,1.03-.65,1.03-1.41v-8.11Zm0,11.74c0-.85-.3-1.19-.9-1.03l-9.18,2.46c-.68.18-1.02.65-1.02,1.41v8.72c0,.79.33,1.09.98.92l9.1-2.44c.68-.18,1.03-.65,1.03-1.41v-8.63Z"/>
        <path class="cls-10" d="m99.05,315.71c.74-1.05,1.16-1.58,1.27-1.61.14,0,.61.35,1.43,1.08,2.24,1.25,2.47,2.61.7,4.06-.77.17-1.04.78-.82,1.82v5.94c0,.75.2,1.39.61,1.91,1.69,1.46,3.88,1.99,6.56,1.59,2.71-.44,5.1-.91,7.17-1.4l4.59-1.23c3.03-.91,6.01-1.92,8.94-3.05.82-.25,1.28-.3,1.39-.14.03.18-.2.59-.7,1.22-.46.69-.82,1.41-1.07,2.17-.16.89-.66,1.45-1.48,1.67l-.61.21-7.42,1.99c-4.24,1.1-7.47,1.75-9.71,1.94-3.85.31-7-.94-9.43-3.74-.41-.61-.89-.42-1.43.57-.6,1.32-1.63,3.15-3.07,5.49.25.66.33,1.17.25,1.54-.49,1.36-1.2,1.45-2.13.29l-1.11-1.49c-.49-.81-.31-1.61.53-2.41,1.17-.97,2.47-2.3,3.89-3.97.66-.71.98-1.44.98-2.2v-8.39c0-.79-.33-1.09-.98-.92-1.07.22-2.06.57-2.99,1.04-.85.38-1.34.26-1.48-.36-.16-.62.21-1.03,1.11-1.24,1.07-.1,2.04-.28,2.91-.54.66-.18,1.35-.79,2.09-1.83Zm-4.71-10.43c.14-.22.63-.32,1.48-.3,1.2.18,2.13.45,2.79.81,1.39.57,2.25,1.47,2.58,2.7.16,1.43-.44,2.32-1.8,2.65-.68.03-1.24-.42-1.68-1.34-.68-1.2-1.41-2.26-2.17-3.19-.79-.7-1.19-1.14-1.19-1.33Zm2.54-10.39c.16-.2.76-.2,1.8-.01,3.14.92,4.7,2.47,4.67,4.64-.63,1.77-1.64,2.14-3.03,1.1-.93-1.95-1.79-3.42-2.58-4.4-.71-.63-1-1.07-.86-1.33Zm27.96-7.96c.63-1.21,1.37-1.18,2.21.07.74.56,1.27,1.11,1.6,1.65.63.84.33,1.67-.9,2.51-.49.38-.74.95-.74,1.71v8.63c.25,1.91-.59,2.94-2.5,3.07-.57.03-.81-.4-.7-1.27,0-.63-.33-.86-.98-.68l-3.16.85c-.68.18-1.02.65-1.02,1.41v2.26c0,.79.33,1.09.98.92l5.37-1.44c.66-.18,1.39-.83,2.21-1.96l1.03-1.22c.14,0,.61.32,1.43.98.63.52,1.19,1.06,1.68,1.62.36.63.11,1.24-.74,1.85-.55.4-.82.97-.82,1.73v8.82c0,.94-.12,1.76-.37,2.46-.71,1.39-1.63,2.27-2.75,2.67-.82.35-1.31.07-1.48-.83-.14-.59-.71-1.11-1.72-1.57-1.01-.42-1.46-.76-1.35-1,.16-.23.66-.35,1.48-.35l1.6-.1c1.12.05,1.58-.61,1.39-1.98v-9.1c0-.79-.33-1.09-.98-.92l-5.94,1.59c-.68.18-1.02.65-1.02,1.41v4.1c0,.75.41.94,1.23.57l1.11-.53c.68-.4.89-1.02.62-1.86l-.16-.38c-.38-.84-.51-1.34-.37-1.5,2.24.72,3.77,2.32,4.59,4.81.11,1.79-.55,2.74-1.97,2.84-.63-.21-1.04-.85-1.23-1.93-.16-.74-.67-.79-1.52-.16-2.16,1.55-4.25,2.9-6.27,4.04-1.12.46-1.64,1.15-1.56,2.07-.22.81-.7,1.15-1.43,1-.16-.14-.37-.5-.62-1.06l-.78-2.29c-.27-.96.04-1.57.94-1.81,1.07-.25,2.13-.57,3.2-.95.68-.21,1.02-.7,1.02-1.45v-4.57c0-.79-.33-1.09-.98-.92l-4.71,1.26c-.82.38-1.23.94-1.23,1.7v11.98c.27,1.5-.22,2.4-1.48,2.71-1.01.21-1.57.23-1.68.07-.06-.11-.08-.64-.08-1.58v-15.23c0-1.07.49-1.47,1.48-1.2,1.04.51,1.76.68,2.17.5l5.49-1.47c.68-.18,1.02-.65,1.02-1.41v-2.26c0-.79-.33-1.09-.98-.92l-3.12.83c-.68.18-1.02.53-1.02,1.03.08,1.36-.66,2.14-2.21,2.34-.96.26-1.3-.33-1.02-1.75v-13.91c0-1.04.48-1.42,1.43-1.14.79.26,1.37.4,1.72.43l12.01-3.22c.66-.18,1.31-.73,1.97-1.66l.62-.87Zm-13.28,6.62c-.82.38-1.23.94-1.23,1.7v2.26c0,.79.33,1.09.98.92l3.12-.83c.68-.18,1.02-.65,1.02-1.41v-2.5c0-.79-.33-1.09-.98-.92l-2.91.78Zm3.89,6.22c0-.82-.31-1.14-.94-.97l-3.16.85c-.68.18-1.02.65-1.02,1.41v2.5c0,.79.33,1.09.98.92l3.12-.83c.68-.18,1.02-.65,1.02-1.41v-2.45Zm8.36-8.32c0-.79-.33-1.09-.98-.92l-3.16.85c-.68.18-1.02.65-1.02,1.41v2.5c0,.79.33,1.09.98.92l3.16-.85c.68-.18,1.02-.65,1.02-1.41v-2.5Zm0,6.08c0-.82-.31-1.14-.94-.97l-3.2.86c-.68.18-1.02.65-1.02,1.41v2.5c0,.79.33,1.09.98.92l3.16-.85c.68-.18,1.02-.65,1.02-1.41v-2.45Z"/>
        <path class="cls-10" d="m139.93,284.15c.05-.96.49-1.55,1.31-1.77.68-.18,1.37-.32,2.05-.41,1.09-.32,1.69-.06,1.8.79-.14.67-.48,1.09-1.02,1.26-.52.36-.92,1.02-1.19,1.97-.44,1.53-1.2,3.29-2.3,5.28-.46.88-.37,1.23.29,1.05l2.87-.77c.66-.18,1.35-.79,2.09-1.83.76-1.02,1.56-1.17,2.38-.45.55.45,1.08.95,1.6,1.5.3.58.16,1.15-.41,1.71-.68.5-1.07.8-1.15.92-.11.22-.16.7-.16,1.46v26.55c0,.94-.03,1.5-.08,1.67-.85,1.04-1.8,1.43-2.87,1.15-.16-.14-.25-.69-.25-1.63v-1.56c0-.79-.33-1.09-.98-.92l-5.45,1.46c-.68.18-1.02.65-1.02,1.41.03,1.12,0,2.31-.08,3.56-.66,1.06-1.63,1.44-2.91,1.16-.16-.11-.25-.66-.25-1.63v-32.58c0-1.1.53-1.4,1.6-.9.87.68,1.6.84,2.17.5.46-.12.86-.7,1.19-1.73.68-2.35.94-4.76.78-7.23Zm-1.19,10.03c-.88.39-1.31.93-1.31,1.62v9.52c0,.79.33,1.09.98.91l5.45-1.46c.68-.18,1.02-.65,1.02-1.41v-9.67c0-.79-.33-1.09-.98-.92l-5.16,1.38Zm6.15,12.78c0-.82-.31-1.14-.94-.97l-5.49,1.47c-.68.18-1.02.65-1.02,1.41v10.61c0,.79.33,1.09.98.92l5.45-1.46c.68-.18,1.02-.65,1.02-1.41v-10.56Zm9.18-27.21c.11-.97.71-1.49,1.8-1.57l2.46-.19c.6.03.87.33.82.91-.08.81-.42,1.26-1.03,1.36-.52.17-.87.69-1.07,1.56-.33,1.44-.71,2.94-1.15,4.5-.25.76.03,1.03.82.82l8.65-2.32c.66-.18,1.34-.83,2.05-1.96.68-1.09,1.42-1.31,2.21-.64l1.8,1.59c.68.89.51,1.64-.53,2.26-.82.25-1.15.94-.98,2.06-.27,9.79-.87,17.6-1.8,23.45-.22,1.19-.66,2.56-1.31,4.12-1.01,2.69-2.62,4.43-4.84,5.21-.88.36-1.38.1-1.52-.77-.16-.77-.6-1.41-1.31-1.91-.85-.31-1.3-.52-1.35-.63-.03-.15-.03-.29,0-.42.11-.15.57-.3,1.39-.42,1.26-.02,2.36-.26,3.32-.7.63-.33,1.22-1.13,1.76-2.41.76-2.41,1.31-5.07,1.64-7.98.63-5.29.93-11.55.9-18.77,0-.79-.33-1.09-.98-.92l-9.51,2.55c-.82.38-1.43,1.09-1.84,2.14-.93,2.64-2.12,5.16-3.57,7.56-.76.99-1.23,1.48-1.39,1.46-.16-.11-.01-.7.45-1.77,2.4-5.83,3.77-11.89,4.1-18.17Zm.7,20.42c-.71-.78-.93-1.31-.66-1.57,1.58.08,3.17.91,4.75,2.5,1.01,1.05,1.64,2.14,1.89,3.27.16.65,0,1.32-.49,2.02-1.07,1.1-2.02.86-2.87-.74-.49-1.57-1.37-3.39-2.62-5.47Z"/>
      </g>
      <path class="cls-10" d="m284.41,249.64c0-1.04.42-1.57,1.27-1.61.93-.12,1.86-.2,2.79-.23,1.2.15,1.49.81.86,1.99-.36.44-.82.79-1.39,1.03-.19.21-.29.69-.29,1.44v12.73c0,.79.33,1.09.98.92l8.28-2.22c.71.19,1.54-.66,2.5-2.56.82-1.23,1.28-1.85,1.39-1.88l3.03,1.73c.77.58,1.16.95,1.19,1.1-.25.79-.82,1.18-1.72,1.17l-10.66,2.86c-.68.18-1.02.65-1.02,1.41v14.62c-.19,2.16.45,3.1,1.93,2.83,2.62-.42,4.88-1.06,6.76-1.91.96-1.17,1.6-3.01,1.93-5.51.16-1.11.38-1.69.66-1.73.44-.12.6.15.49.81-.11,1.95.01,3.45.37,4.52.14.18.44.35.9.51.46.32.67.72.62,1.2-.08,1.22-.82,2.17-2.21,2.86-5.36,2.41-9.4,3.48-12.13,3.2-1.5-.16-2.35-1.32-2.54-3.47v-17.02c0-.79-.33-1.09-.98-.91l-3.48.93c-.66.18-1.02.75-1.11,1.71-.03,2.36-.31,4.8-.86,7.3-.85,4.91-3.27,9.36-7.26,13.35-1.83,1.84-3.65,3.32-5.45,4.43-.93.56-1.45.78-1.56.65-.03-.28.37-.81,1.19-1.59,4.02-3.21,6.94-7.08,8.77-11.59,1.26-3.57,1.93-7.56,2.01-11.95,0-.79-.33-1.09-.98-.92l-8.2,2.2c-.41.14-.82.33-1.23.57-.9.4-1.43.29-1.6-.33-.19-.67.26-1.11,1.35-1.31l1.43-.2,12.95-3.47c.68-.18,1.02-.65,1.02-1.41v-16.27Zm-11.03,6.77c-.52-.71-.63-1.17-.33-1.37.19-.05.7.19,1.52.73,2.38,1.69,4.04,3.82,5,6.39.52,1.4.29,2.63-.7,3.68-1.18.76-2.02.18-2.54-1.72-.71-2.89-1.69-5.46-2.95-7.7Zm23.36-7.72c.33-1.19.92-1.71,1.76-1.56.66.04,1.31.14,1.97.27,1.23.08,1.71.61,1.43,1.6-.14.26-.63.56-1.48.91-.41-.05-.77.33-1.07,1.13-1.58,3.69-3.5,6.93-5.74,9.69-1.07,1.07-1.65,1.53-1.76,1.37-.03-.21.23-.86.78-1.95,1.91-3.72,3.28-7.54,4.1-11.47Z"/>
      <g>
        <path class="cls-10" d="m180.09,317.92l.1-1.08,2.13-.57c1.55-.42,2.87-1.33,3.95-2.74,1.08-1.41,1.62-2.88,1.62-4.42v-54.41c0-2.1-.47-3.49-1.42-4.18-.95-.69-2.3-.8-4.05-.33l-3.04.81v-1.05c1.35-.5,2.89-1.14,4.61-1.92,1.72-.78,3.48-1.63,5.27-2.56,1.79-.93,3.54-2.03,5.27-3.3,1.72-1.26,3.26-2.67,4.61-4.22l1.01-.27v68.24c0,1.54.56,2.7,1.67,3.48,1.11.79,2.41.98,3.9.58l2.13-.57v1.05l-27.74,7.43Z"/>
        <path class="cls-10" d="m234.94,229.75c5.6-1.5,10.41-1.23,14.43.8,4.02,2.03,7.09,5.61,9.21,10.74,2.13,5.13,3.19,11.6,3.19,19.43s-1.06,14.79-3.19,21.09c-2.13,6.3-5.2,11.55-9.21,15.73-4.02,4.19-8.83,7.03-14.43,8.53-5.6,1.5-10.4,1.23-14.38-.81-3.98-2.04-7.05-5.64-9.21-10.79-2.16-5.15-3.24-11.61-3.24-19.36s1.08-14.88,3.24-21.15c2.16-6.27,5.23-11.5,9.21-15.68,3.98-4.18,8.77-7.02,14.38-8.52Zm0,3.98c-4.46,1.19-7.92,5.07-10.38,11.64-2.47,6.57-3.7,15.33-3.7,26.31s1.23,19.08,3.7,24.33c2.46,5.25,5.92,7.27,10.38,6.08,4.52-1.21,8-5.09,10.43-11.65,2.43-6.56,3.65-15.32,3.65-26.29s-1.22-19.08-3.65-24.34c-2.43-5.25-5.91-7.27-10.43-6.06Z"/>
      </g>
      <g>
        <g>
          <polygon class="cls-9" points="334.66 204.34 288.72 223.47 335.75 190.81 334.66 204.34"/>
          <polygon class="cls-11" points="335.75 190.81 325.16 185.52 288.72 223.47 335.75 190.81"/>
        </g>
        <g>
          <polygon class="cls-12" points="305.39 193.93 285.72 219.07 301.75 186.03 305.39 193.93"/>
          <polygon class="cls-16" points="301.75 186.03 293.57 186.57 285.72 219.07 301.75 186.03"/>
        </g>
      </g>
      <g>
        <g>
          <polygon class="cls-13" points="1.48 327.53 37.97 314.84 0 337.96 1.48 327.53"/>
          <polygon class="cls-8" points="0 337.96 7.96 342.56 37.97 314.84 0 337.96"/>
        </g>
        <g>
          <polygon class="cls-4" points="23.68 336.95 40.1 318.39 26.13 343.25 23.68 336.95"/>
          <polygon class="cls-6" points="26.13 343.25 32.5 343.21 40.1 318.39 26.13 343.25"/>
        </g>
      </g>
      <g>
        <path class="cls-15" d="m109.02,226.79l-5.77,3.82,4.69,4.12,1.01-2.67.36-.96,1.01-.12,3.06-.36-4.36-3.84Zm-9.46,2.22l8.68-5.74,1.07-.71.96.85,8.16,7.18,2.83,2.49-3.75.44-5.8.67-1.51,3.99-.86,2.27-1.82-1.6-8.16-7.18-1.65-1.45,1.83-1.21Z"/>
        <path class="cls-2" d="m123.93,187.32c2.97,1.87,6.07,3.53,9.14,4.86l4.34-4.93c-2.47-.64-5.89-1.89-9.76-4.32l-3.72,4.39Z"/>
        <path class="cls-3" d="m99.76,227.89l42.07-28.49c-7.91-1.44-17.29-6.04-24.95-11.74-4.52-3.36-8.48-7.13-11.24-10.9-.9-1.23-1.67-2.46-2.29-3.68l-16.32,43.38c-.59,1.99-.09,4.28,1.07,6.33.73,1.29,1.71,2.48,2.84,3.44,1.11.95,2.37,1.68,3.67,2.08,1.7.53,3.49.48,5.14-.43"/>
        <path class="cls-15" d="m94.64,204.4c-.73-.93-.56-2.27.37-2.99.93-.73,2.27-.56,2.99.37,1.78,2.28,4.88,4.89,8.13,6.79,2.68,1.57,5.36,2.61,7.25,2.48,1.17-.08,2.19.8,2.28,1.97.08,1.17-.8,2.19-1.97,2.28-2.82.21-6.37-1.09-9.72-3.05-3.67-2.15-7.24-5.16-9.32-7.83"/>
        <path class="cls-19" d="m112.69,189.02c-2.08-1.08-7.91-6.14-9.05-9.78-1.78,4.76-3.18,8.49-4.96,13.25,1.35,2.99,6.77,6.99,9.64,7.93,1.47-3.92,2.9-7.47,4.37-11.4"/>
        <path class="cls-15" d="m90.78,215.72c-.45-1.09.07-2.34,1.16-2.78,1.09-.45,2.34.07,2.78,1.16.32.77,1.58,2.01,3.13,3.11,1.38.97,2.89,1.75,4.05,1.89,1.17.14,2,1.2,1.87,2.37-.14,1.17-1.2,2-2.37,1.87-1.93-.23-4.14-1.31-6.02-2.64-2.15-1.53-4-3.49-4.61-4.97"/>
        <path class="cls-15" d="m113.24,199.57c-.84-.83-.85-2.18-.03-3.02.83-.84,2.18-.85,3.02-.03,1.21,1.19,3.28,2.58,5.44,3.69,1.95,1,3.9,1.75,5.24,1.86,1.17.1,2.04,1.14,1.93,2.31-.11,1.17-1.14,2.04-2.31,1.93-1.92-.17-4.43-1.09-6.81-2.32-2.51-1.29-4.97-2.96-6.47-4.45"/>
        <path class="cls-15" d="m123.16,153.43c0,.78-.65,1.42-1.43,1.41-.78,0-1.42-.65-1.41-1.43l.11-10.66c0-.78.65-1.42,1.43-1.41.78,0,1.42.65,1.41,1.43l-.12,10.67Z"/>
        <path class="cls-15" d="m134.4,159.99c-.46.63-1.35.77-1.98.31-.63-.46-.77-1.35-.31-1.98l7.47-10.33c.46-.63,1.35-.77,1.98-.31.63.46.77,1.35.31,1.98l-7.47,10.34Z"/>
        <path class="cls-15" d="m144.02,168.21c-.73.28-1.55-.08-1.83-.81-.28-.73.08-1.55.81-1.83l9.96-3.82c.73-.28,1.55.08,1.83.81.28.73-.08,1.55-.81,1.83l-9.96,3.82Z"/>
        <path class="cls-2" d="m109.08,174.25c2.48,3.39,6.13,6.85,10.35,9.98.31.23.63.46.95.69l5.26-6.2,1.25-1.47,1.59,1.1c4.87,3.38,8.88,4.61,11.13,5.05-.26-4.48-4.5-9.41-9.9-13.42-2.5-1.86-5.22-3.49-7.92-4.8-2.68-1.29-5.34-2.26-7.75-2.8-3.43-.76-6.15-.66-7.17.71-.57.77-.9,1.61-1.02,2.48-.33,2.5.93,5.52,3.23,8.66"/>
        <path class="cls-1" d="m133.14,181.14c2.74,1.36,4.98,1.99,6.46,2.28-.26-4.48-4.5-9.41-9.9-13.42-2.5-1.86-5.22-3.49-7.92-4.8-2.68-1.29-5.34-2.26-7.75-2.8-1.38-.31-2.65-.47-3.73-.48.03,0,15.98,4.31,22.25,13.77,0,0,3.89,4.66.59,5.44"/>
        <path class="cls-15" d="m105.64,176.77c-.9-1.23-1.67-2.46-2.29-3.68l-16.32,43.38c-.59,1.99-.09,4.28,1.07,6.33.73,1.29,1.71,2.48,2.84,3.44,1.11.95,2.37,1.68,3.67,2.08,1.7.53,3.49.48,5.14-.43l42.07-28.49c-7.91-1.44-17.29-6.04-24.95-11.74-4.52-3.36-8.48-7.13-11.24-10.9m37.34,10.63l-5.66,6.43c2.31.77,4.54,1.32,6.63,1.6.82.11,1.51.48,2.03,1.03.5.52.84,1.2.98,1.93.14.74.06,1.46-.21,2.11-.27.65-.73,1.22-1.35,1.64l-43.33,29.35-.15.09c-2.79,1.57-5.77,1.69-8.57.82-1.86-.58-3.62-1.6-5.17-2.91-1.52-1.29-2.82-2.87-3.79-4.59-1.71-3.04-2.4-6.55-1.4-9.77l.04-.12,18.52-49.25c.01-.24.04-.49.07-.73.21-1.6.8-3.11,1.81-4.48,2.16-2.91,6.47-3.45,11.53-2.32,2.71.6,5.69,1.69,8.68,3.13,2.96,1.43,5.92,3.21,8.61,5.2,7.3,5.42,12.74,12.62,11.43,19.4-.11.55-.33,1-.7,1.43Zm-3.58-5.38c-.91-4.09-4.85-8.42-9.7-12.02-2.5-1.86-5.22-3.49-7.92-4.8-2.68-1.29-5.34-2.26-7.75-2.8-3.43-.76-6.15-.66-7.17.71-.57.77-.9,1.61-1.02,2.48-.33,2.5.93,5.52,3.23,8.66,2.48,3.39,6.13,6.85,10.35,9.98.31.23.63.46.95.69l5.26-6.2,1.25-1.47,1.59,1.1c4,2.78,7.42,4.14,9.78,4.73.71.18,1.37-.12,1.15-1.08Zm-6.33,10.17l4.34-4.93c-2.47-.64-5.89-1.89-9.76-4.32l-3.72,4.39c2.97,1.87,6.07,3.53,9.14,4.86Z"/>
        <polygon class="cls-5" points="103.29 230.65 107.93 234.73 108.94 232.06 109.3 231.1 110.32 230.98 113.38 230.63 109.02 226.79 107.64 227.7 103.29 230.65"/>
      </g>
    </g>
    <g>
      <path class="cls-18" d="m501.77,174.35c-1.58-3.2-4.18-5.71-7.75-7.48-1.27-.79-2.56-1.51-3.84-2.15-.63-.35-1.27-.66-1.91-.92,1.18-1.45,2.1-3.13,2.7-5,.7-2.19.75-4.53.16-6.75-.64-2.38-1.84-4.53-3.56-6.38-.72-.78-1.55-1.45-2.45-2.01-.01,0-.03-.02-.04-.03l.07-.02c2.88-.77,5.89-1.8,8.37-4.09.82-.76,1.54-1.64,2.12-2.6,3.87-6.38,2.34-14.12-3.62-18.42-.37-.27-.76-.51-1.16-.74l-6.47-3.61c-2.59-1.5-5.46-2.88-8.93-2.88-1.11,0-2.21.14-3.27.43-2.58.69-4.86,2.23-6.47,4.37-1.53,2.03-3.07,4.17-4.58,6.36l-15.78,4.23c-.37-.95-.84-1.89-1.41-2.81-.94-1.51-2.19-2.8-3.69-3.76-2.13-1.38-4.41-1.95-6.56-2.36-.41-.08-.83-.14-1.25-.17l-6.94-.59c-.34-.03-.68-.04-1.01-.04-1.05,0-2.1.14-3.12.41-7.32,1.97-9.02,8.94-9.84,12.29-.05.19-.09.38-.13.58-2.36,12.29-6.3,23.97-11.7,34.77-.47-.25-.94-.49-1.39-.72-2.48-1.4-5.11-2.1-7.82-2.1-3.03,0-8.79.96-13.32,7.38-.34.49-.65,1-.92,1.54-.21.42-.4.78-.57,1.09l-3.17.85v-12.29c4.11-4.7,4.58-9.26,4.16-12.43-.38-2.83-1.98-8.07-8.51-11.39-1.69-.86-3.55-1.3-5.43-1.3-.16,0-.33,0-.49.01l-6.57.27s-.03,0-.05,0c-8.3.38-14.32,6.82-14.32,15.31v30.18l-21.56,5.78-2.49.34c-.18.02-.35.05-.53.08-6.15,1.12-9.33,4.29-10.91,6.75-2.07,3.22-2.68,7.08-1.72,10.87.06.22.12.44.18.65,1.84,5.86,6.99,9.65,13.11,9.65,2.27,0,4.52-.51,6.9-1.56.38-.17.75-.36,1.11-.56.19-.11.35-.19.48-.25l15.42-4.13v34.46c-.56,5.01.56,9.18,3.33,12.42,2.6,3.04,6.45,4.78,10.55,4.78.65,0,1.31-.04,1.97-.13.06,0,.11-.01.17-.02.67-.1,1.3-.22,1.92-.36-.83,3.28-.82,8.52,4.68,13.92.02.02.03.05.05.07-4.95.98-7.64,3.73-9.08,6.11-1.13,1.87-1.73,4.02-1.73,6.21,0,5.46,3.43,9.03,5.96,11.31.96,1.23,1.9,2.64,2.81,4.18-1.32-1.1-2.6-1.89-3.44-2.41-.06-.04-.12-.07-.18-.11l-3.68-2.19c-2.69-1.61-5.54-2.43-8.47-2.43-3.15,0-9.1,1.01-13.6,7.78-.27.4-.51.83-.73,1.26-.27.53-.5.97-.71,1.34l-56.86,15.24c-1.26.09-2.51.26-3.75.5-6.05,1.13-9.17,4.33-10.73,6.82-2.06,3.3-2.6,7.23-1.53,11.08,1.66,6.03,6.92,10.08,13.14,10.08,2.26,0,4.5-.51,6.85-1.57l2.08-.93,72.97-19.55c2.23,2.61,5.4,4.27,9.02,4.57v4.15c-2.49,2.87-4.73,5.14-6.67,6.75-.18.15-.36.31-.54.47-6.06,5.67-7.35,13.69-3.27,20.41.19.32.4.62.62.92l2.5,3.38c.08.11.17.22.26.33,4.18,5.25,8.82,6.35,11.98,6.35,2.29,0,10.01-.75,13.5-10.39.17-.48.32-.97.43-1.47.21-.95.33-1.92.36-2.91,4.93,2.44,10.42,3.7,16.3,3.7,1.15,0,2.33-.05,3.5-.14.02,0,.04,0,.06,0,5.79-.5,13.61-2.04,23.93-4.73.03,0,.05-.01.08-.02l16.75-4.49c.27-.07.54-.16.81-.25l1.1-.38c5.69-1.71,9.81-6.09,11.26-11.9.17-.42.38-.83.63-1.25,1.64-2.14,4.46-6.16,3.65-11.51-.27-1.8-.95-3.51-1.98-5.01-.3-.43-.62-.84-.96-1.23.38-1.92.58-3.95.58-6.1v-16.85c4.89-5.44,4.71-12.17,1.96-17.03-.41-.72-.89-1.4-1.43-2.02-1.51-1.72-3.23-3.39-5.13-4.96-.05-.04-.11-.09-.16-.13-.5-.4-1.01-.81-1.54-1.22v-12.45c2.77-2.93,3.84-5.96,4.22-8.23.64-3.82-.26-7.7-2.54-11.01-1.25-1.95-2.88-3.76-4.94-5.49-.36-.43-.73-.83-1.09-1.2,1.07.26,2.17.4,3.31.4,2.88,0,5.76-.83,8.81-2.54.18-.1.36-.21.53-.32,2.82-1.78,5.09-4.26,6.55-7.18.28-.57.52-1.16.72-1.76.63-2,.75-3.98.75-7.4v-16.34l21.87-5.86c7.28-1.01,12.62-5.95,13.78-12.89.41-2.48.04-5.02-1.07-7.27Zm-33.88-2.27c-.11.21-.21.4-.3.57l-.39.1v-.49l.69-.19Zm-59.52,16.06c.29,0,.57-.01.86-.03v.11c-.57.09-.93.12-1.1.12-.18,0-.36.03-.55.04.08-.09.17-.18.25-.27.18,0,.36.02.54.02Zm27.88,42.85h0c-2.46,0-8.44.76-12.44,7.6l-.74,1.05-22.18,5.94s0,0,0,0c-.13-.04-.25-.08-.38-.12-1.54-.45-3.08-.68-4.58-.68-5.8,0-10.56,3.35-12.74,8.4-1.47-.65-3.09-1.25-4.88-1.77-.39-.11-.78-.21-1.18-.28-1.92-.36-3.48-.52-4.93-.52-.34,0-.67.01-1,.03,1.06-2.38,1.77-5.51,1.3-9.44v-40.6l24.48-6.56c-.29.38-.55.75-.77,1.11-2.02,3.24-2.58,7.12-1.56,10.93,1.63,6.12,6.95,10.23,13.23,10.23,2.08,0,4.23-.46,6.4-1.36.1-.04.19-.08.29-.12l2.09-.93,19.23-5.15v10.52c-.32,4.96.94,9.04,3.74,12.13-1.22-.31-2.36-.42-3.38-.42Z"/>
      <g>
        <path class="cls-10" d="m353.28,151.2c0-2.13.96-3.24,2.87-3.32l6.57-.27c2.84,1.44,2.74,3.52-.28,6.25-1.29.99-1.94,2.33-1.94,4.03v28.1c0,1.77.74,2.46,2.22,2.07l18.04-4.83c1.67.41,3.73-1.85,6.2-6.77,1.67-2.36,3.55-2.9,5.65-1.62,3.64,1.79,5.8,3.41,6.48,4.86-.06.58-1.08,1.32-3.05,2.2l-33.22,8.9c-1.54.41-2.31,1.47-2.31,3.17v48.11c.68,3.79-.96,5.97-4.9,6.53-2.04.26-2.81-1.2-2.31-4.38v-48.22c0-1.77-.74-2.46-2.22-2.07l-28.87,7.74c-.92.32-1.85.75-2.78,1.28-2.04.9-3.27.66-3.7-.71-.37-1.46.68-2.42,3.15-2.87l3.24-.44,28.87-7.74c1.54-.41,2.31-1.47,2.31-3.17v-36.83Z"/>
        <path class="cls-10" d="m423.17,132.47c.55-2.28.99-3.46,1.29-3.54l6.94.59c1.23.24,2,.46,2.31.66,1.36,2.19.62,3.81-2.22,4.85-.99.19-1.88,1.5-2.68,3.91l-.56,1.43c-.8,2.42-.46,3.42,1.02,3.03l36.92-9.89c1.48-.4,2.96-1.65,4.44-3.75,1.54-2.26,3.08-4.41,4.63-6.46.43-.12,1.48.31,3.15,1.29l6.57,3.67c.86.62.99,1.44.37,2.46-.43.4-1.54.84-3.33,1.32l-24.52,6.57c-1.54.41-2.31,1.47-2.31,3.17v15.86c0,1.77.74,2.46,2.22,2.07l2.5-.67c1.48-.4,3.15-1.91,5-4.53l2.87-4.17c.56-.79.99-1.29,1.3-1.52.31-.08,1.39.37,3.24,1.37,2.16,1.12,4.32,2.36,6.48,3.69.37.4.62.83.74,1.29-.49,1.55-1.85,2.38-4.07,2.47l-17.95,4.81c-1.54.41-2.31,1.47-2.31,3.17v20.12c0,1.78.74,2.46,2.22,2.07l15.27-4.09c1.67.41,3.73-1.85,6.2-6.77,1.67-2.36,3.55-2.9,5.65-1.62,1.23.59,2.47,1.29,3.7,2.1,1.42.61,2.34,1.36,2.78,2.24-.31,1.86-1.7,2.87-4.17,3.03l-29.33,7.86c-1.54.41-2.31,1.47-2.31,3.17v22.99c0,2.13-.06,3.39-.19,3.78-.49.98-1.23,1.79-2.22,2.41-3.64,2.04-5.27.99-4.9-3.16v-23.95c0-1.77-.74-2.46-2.22-2.07l-33.04,8.85-2.96,1.33c-1.91.8-3.05.5-3.42-.89-.37-1.39.43-2.28,2.41-2.67,2.53-.11,5.95-.85,10.27-2.22,1.54-.41,2.31-1.47,2.31-3.17v-26.29c0-2.41.96-3.34,2.87-2.79l2.59,1.01c.99.45,2.22.47,3.7.07l15.18-4.07c1.54-.41,2.31-1.47,2.31-3.17v-15.86c0-1.77-.74-2.46-2.22-2.07l-17.58,4.71c-1.48.4-2.78,1.81-3.89,4.23-3.02,7.7-7.25,15.14-12.68,22.35-1.85,1.99-2.9,3.01-3.15,3.08-.87-.69-.49-2,1.11-3.92,6.42-12.36,10.98-25.62,13.7-39.76Zm24.71,35.21c0-1.77-.74-2.46-2.22-2.07l-14.9,3.99c-1.54.41-2.31,1.47-2.31,3.17v20.12c0,1.78.74,2.46,2.22,2.07l14.9-3.99c1.54-.41,2.31-1.47,2.31-3.18v-20.12Z"/>
        <path class="cls-10" d="m342.52,309.21c1.66-2.5,3.64-3.07,5.92-1.69l3.7,2.2c2.16,1.34,3.21,2.26,3.15,2.78-.43,1.39-1.85,2.24-4.26,2.52l-74.77,20.04-2.96,1.33c-1.98.89-3.15.63-3.52-.76-.43-1.52.55-2.49,2.96-2.92,1.11-.23,2.22-.35,3.33-.36l60.15-16.12c1.6.49,3.7-1.84,6.29-7.01Z"/>
        <path class="cls-10" d="m375.77,309.99c1.67-2.36,2.62-3.58,2.87-3.64.31-.01,1.39.8,3.24,2.43,5.06,2.83,5.58,5.89,1.57,9.16-1.73.39-2.34,1.77-1.85,4.12v13.41c0,1.7.46,3.14,1.39,4.31,3.83,3.3,8.76,4.5,14.81,3.59,6.11-1,11.5-2.05,16.19-3.17l10.36-2.78c6.85-2.05,13.57-4.35,20.17-6.9,1.85-.57,2.9-.67,3.15-.31.06.41-.46,1.33-1.57,2.76-1.05,1.56-1.85,3.19-2.41,4.9-.37,2.01-1.48,3.27-3.33,3.77l-1.39.48-16.75,4.49c-9.56,2.49-16.87,3.95-21.93,4.39-8.7.7-15.79-2.12-21.28-8.45-.93-1.38-2.01-.95-3.24,1.29-1.36,2.99-3.67,7.12-6.94,12.4.55,1.48.74,2.64.55,3.47-1.11,3.07-2.71,3.28-4.81.65l-2.5-3.38c-1.11-1.83-.71-3.64,1.2-5.43,2.65-2.2,5.58-5.19,8.79-8.96,1.48-1.6,2.22-3.26,2.22-4.96v-18.95c0-1.77-.74-2.46-2.22-2.07-2.41.5-4.66,1.29-6.75,2.34-1.91.87-3.02.6-3.33-.81-.37-1.39.46-2.32,2.5-2.8,2.41-.22,4.59-.63,6.57-1.23,1.48-.4,3.05-1.78,4.72-4.14Zm-10.64-23.55c.31-.51,1.42-.73,3.33-.68,2.71.41,4.81,1.02,6.29,1.83,3.15,1.29,5.09,3.32,5.83,6.1.37,3.24-.99,5.23-4.07,5.99-1.54.06-2.81-.95-3.79-3.03-1.54-2.71-3.18-5.11-4.9-7.2-1.79-1.58-2.68-2.58-2.68-3.01Zm5.74-23.47c.37-.45,1.73-.46,4.07-.03,7.09,2.07,10.61,5.57,10.55,10.48-1.42,4-3.7,4.82-6.85,2.47-2.1-4.41-4.04-7.72-5.83-9.93-1.6-1.41-2.25-2.41-1.94-2.99Zm63.11-17.97c1.42-2.72,3.08-2.67,5,.15,1.66,1.26,2.87,2.5,3.61,3.72,1.42,1.89.74,3.78-2.04,5.66-1.11.87-1.67,2.15-1.67,3.85v19.48c.56,4.32-1.33,6.64-5.64,6.94-1.29.06-1.82-.9-1.57-2.88,0-1.42-.74-1.93-2.22-1.53l-7.13,1.91c-1.54.41-2.31,1.47-2.31,3.17v5.11c0,1.77.74,2.46,2.22,2.07l12.12-3.25c1.48-.4,3.15-1.87,5-4.43l2.31-2.75c.31-.01,1.39.73,3.24,2.22,1.42,1.18,2.68,2.4,3.79,3.67.8,1.42.25,2.81-1.67,4.17-1.24.9-1.85,2.2-1.85,3.9v19.91c0,2.13-.28,3.98-.83,5.54-1.61,3.13-3.67,5.13-6.2,6.03-1.85.78-2.96.16-3.33-1.88-.31-1.34-1.61-2.51-3.89-3.54-2.28-.95-3.3-1.71-3.05-2.27.37-.53,1.48-.79,3.33-.79l3.61-.22c2.53.1,3.58-1.38,3.15-4.46v-20.54c0-1.77-.74-2.46-2.22-2.07l-13.42,3.6c-1.54.41-2.31,1.47-2.31,3.17v9.26c0,1.7.93,2.13,2.78,1.28l2.5-1.2c1.54-.91,2-2.31,1.39-4.2l-.37-.86c-.86-1.9-1.14-3.03-.83-3.4,5.06,1.62,8.51,5.24,10.36,10.85.25,4.05-1.23,6.19-4.44,6.41-1.42-.47-2.35-1.93-2.78-4.37-.37-1.67-1.51-1.79-3.42-.36-4.87,3.51-9.59,6.55-14.16,9.12-2.53,1.03-3.7,2.59-3.52,4.67-.5,1.84-1.57,2.59-3.24,2.25-.37-.33-.83-1.12-1.39-2.4l-1.76-5.17c-.62-2.18.09-3.54,2.13-4.08,2.41-.57,4.81-1.29,7.22-2.15,1.54-.48,2.31-1.58,2.31-3.28v-10.32c0-1.77-.74-2.46-2.22-2.07l-10.64,2.85c-1.85.85-2.78,2.13-2.78,3.83v27.04c.62,3.38-.49,5.42-3.33,6.11-2.28.47-3.55.53-3.79.17-.12-.25-.18-1.44-.18-3.57v-34.38c0-2.41,1.11-3.31,3.33-2.7,2.34,1.15,3.98,1.52,4.9,1.13l12.4-3.32c1.54-.41,2.31-1.47,2.31-3.17v-5.11c0-1.77-.74-2.46-2.22-2.07l-7.03,1.88c-1.54.41-2.31,1.19-2.31,2.32.19,3.07-1.48,4.83-5,5.28-2.16.58-2.93-.74-2.31-3.96v-31.4c0-2.34,1.08-3.2,3.24-2.57,1.79.58,3.08.91,3.89.98l27.12-7.27c1.48-.4,2.96-1.64,4.44-3.74l1.39-1.97Zm-29.98,14.95c-1.85.85-2.78,2.13-2.78,3.83v5.11c0,1.77.74,2.46,2.22,2.07l7.03-1.88c1.54-.41,2.31-1.47,2.31-3.17v-5.64c0-1.77-.74-2.46-2.22-2.07l-6.57,1.76Zm8.79,14.04c0-1.84-.71-2.58-2.13-2.2l-7.12,1.91c-1.54.41-2.31,1.47-2.31,3.17v5.64c0,1.78.74,2.46,2.22,2.07l7.03-1.88c1.54-.41,2.31-1.47,2.31-3.17v-5.54Zm18.88-18.79c0-1.77-.74-2.46-2.22-2.07l-7.13,1.91c-1.54.41-2.31,1.47-2.31,3.17v5.64c0,1.77.74,2.46,2.22,2.07l7.12-1.91c1.54-.41,2.31-1.47,2.31-3.17v-5.64Zm0,13.73c0-1.84-.71-2.58-2.13-2.2l-7.22,1.93c-1.54.41-2.31,1.47-2.31,3.17v5.64c0,1.78.74,2.46,2.22,2.07l7.12-1.91c1.54-.41,2.31-1.47,2.31-3.17v-5.54Z"/>
      </g>
    </g>
  </g>
</svg>