<svg width="60" height="60" viewBox="0 0 60 60" fill="none" xmlns="http://www.w3.org/2000/svg">
<path d="M26.3845 25.442H23.6693V29.8736H26.3845V42.8912H31.6041V29.8174H35.246L35.6339 25.442H31.6041V22.9497C31.6041 21.9177 31.8112 21.5088 32.8081 21.5088H35.6321V16.9666H32.0183C28.1343 16.9666 26.3827 18.676 26.3827 21.9528V25.442H26.3845Z" fill="white"/>
<path d="M30 60C13.4581 60 0 46.5419 0 30C0 13.4581 13.4581 0 30 0C46.5419 0 60 13.4581 60 30C60 46.5419 46.5419 60 30 60ZM30 2.80817C15.0061 2.80817 2.80817 15.0061 2.80817 30C2.80817 44.9939 15.0061 57.1918 30 57.1918C44.9939 57.1918 57.1918 44.9939 57.1918 30C57.1918 15.0061 44.9939 2.80817 30 2.80817Z" fill="white"/>
</svg>
