<?xml version="1.0" encoding="utf-8"?>
<!-- Generator: Adobe Illustrator 27.9.0, SVG Export Plug-In . SVG Version: 6.00 Build 0)  -->
<svg version="1.1" id="圖層_1" xmlns="http://www.w3.org/2000/svg" xmlns:xlink="http://www.w3.org/1999/xlink" x="0px" y="0px"
	 viewBox="0 0 26 26" style="enable-background:new 0 0 26 26;" xml:space="preserve">
<style type="text/css">
	.st0{fill:#FFFFFF;}
	.st1{clip-path:url(#SVGID_00000106140262324524455190000017488002949804735662_);}
	.st2{fill:#B53204;}
</style>
<circle class="st0" cx="13.6" cy="13.1" r="10.2"/>
<g>
	<defs>
		<rect id="SVGID_1_" x="0" width="26" height="26"/>
	</defs>
	<clipPath id="SVGID_00000134950547465942427550000002885741650939118998_">
		<use xlink:href="#SVGID_1_"  style="overflow:visible;"/>
	</clipPath>
	<g style="clip-path:url(#SVGID_00000134950547465942427550000002885741650939118998_);">
		<path class="st2" d="M0,13c0,7.2,5.8,13,13,13c7.2,0,13-5.8,13-13c0-7.2-5.8-13-13-13C5.8,0,0,5.8,0,13z M6.3,13
			c0-0.4,0.2-0.8,0.5-1l7.1-6.4c0.6-0.6,1.7-0.6,2.3,0c0.6,0.6,0.6,1.5,0,2.1L10.2,13l5.9,5.3c0.6,0.6,0.6,1.5,0,2.1
			c-0.3,0.3-0.7,0.4-1.1,0.4s-0.8-0.1-1.1-0.4L6.7,14C6.4,13.8,6.3,13.4,6.3,13z"/>
	</g>
</g>
</svg>
