<svg width="61" height="60" viewBox="0 0 61 60" fill="none" xmlns="http://www.w3.org/2000/svg">
<path d="M43.3078 28.9592C43.2077 23.3306 37.4826 18.8498 30.5446 18.9727C23.6085 19.0955 18.0466 23.7746 18.1448 29.405C18.2343 34.4509 22.7853 38.6 28.844 39.2915C29.2546 39.3723 29.8163 39.5443 29.9637 39.8918C30.0953 40.2077 30.0602 40.7061 30.0234 41.0291C30.0234 41.0291 29.8917 41.9189 29.8637 42.1102C29.8145 42.4297 29.632 43.3581 30.9641 42.7684C32.298 42.1787 38.1355 38.3736 40.719 35.2881C42.5074 33.2575 43.3464 31.2128 43.306 28.9592H43.3078ZM25.8603 32.6186L23.361 32.6625C22.9977 32.6695 22.6958 32.3782 22.6888 32.0131L22.601 27.0146C22.594 26.6513 22.8854 26.3494 23.2504 26.3424C23.6137 26.3353 23.9156 26.6267 23.9209 26.99L23.9981 31.3286L25.8375 31.297C26.2025 31.29 26.5026 31.5814 26.5079 31.9447C26.5149 32.3097 26.2253 32.6098 25.8603 32.6169V32.6186ZM27.7874 32.5835C27.4223 32.5905 27.1222 32.2992 27.1152 31.9359L27.0274 26.9373C27.0204 26.574 27.3118 26.2722 27.6751 26.2651C28.0384 26.2581 28.3402 26.5495 28.3455 26.9128L28.4333 31.9113C28.4403 32.2764 28.1489 32.5765 27.7856 32.5835H27.7874ZM34.0127 32.4396C33.946 32.4642 33.8741 32.4765 33.8039 32.4765C33.5985 32.48 33.4002 32.3852 33.2721 32.222L30.6482 28.7785L30.7026 31.8709C30.7096 32.236 30.4183 32.5361 30.055 32.5431C29.6917 32.5502 29.3915 32.2588 29.3845 31.8938L29.2968 26.8952C29.2915 26.6109 29.4688 26.3564 29.7355 26.2599C29.8022 26.2371 29.8742 26.2248 29.9444 26.223C30.1498 26.2195 30.3498 26.3143 30.4762 26.4775L33.1001 29.921L33.0457 26.8285C33.0387 26.4652 33.33 26.1633 33.6933 26.1563C34.0584 26.1511 34.3585 26.4407 34.3655 26.8057L34.4533 31.8043C34.4585 32.0886 34.283 32.3448 34.0127 32.4378V32.4396ZM38.5093 32.394L36.0083 32.4378C35.645 32.4449 35.3449 32.1535 35.3378 31.7885L35.294 29.2909V29.2874L35.2501 26.7917V26.7882C35.2431 26.4249 35.5344 26.123 35.8977 26.116L38.397 26.0721C38.762 26.0651 39.0622 26.3564 39.0674 26.7197C39.0745 27.083 38.7831 27.3849 38.4198 27.3919L36.5805 27.4253L36.6015 28.6047L38.4409 28.5713C38.8059 28.5643 39.106 28.8557 39.1131 29.219C39.1201 29.5823 38.8287 29.8842 38.4654 29.8894L36.6261 29.921L36.6471 31.1005L38.4865 31.0671C38.8498 31.0601 39.1517 31.3514 39.1587 31.7147C39.1657 32.0798 38.8744 32.3799 38.5111 32.3869L38.5093 32.394Z" fill="white"/>
<path d="M30.2761 60C13.7343 60 0.276123 46.5419 0.276123 30C0.276123 13.4581 13.7343 0 30.2761 0C46.818 0 60.2761 13.4581 60.2761 30C60.2761 46.5419 46.818 60 30.2761 60ZM30.2761 2.80817C15.2823 2.80817 3.08429 15.0061 3.08429 30C3.08429 44.9939 15.2823 57.1918 30.2761 57.1918C45.27 57.1918 57.468 44.9939 57.468 30C57.468 15.0061 45.2682 2.80817 30.2761 2.80817Z" fill="white"/>
</svg>
