<?xml version="1.0" encoding="UTF-8"?>
<svg id="_圖層_2" data-name="圖層 2" xmlns="http://www.w3.org/2000/svg" xmlns:xlink="http://www.w3.org/1999/xlink" viewBox="0 0 550.71 433.78">
  <defs>
    <style>
      .cls-1 {
        fill: #e2a365;
      }

      .cls-1, .cls-2, .cls-3, .cls-4, .cls-5, .cls-6, .cls-7, .cls-8, .cls-9, .cls-10, .cls-11, .cls-12, .cls-13, .cls-14, .cls-15, .cls-16, .cls-17, .cls-18, .cls-19 {
        stroke-width: 0px;
      }

      .cls-1, .cls-2, .cls-3, .cls-5, .cls-19 {
        fill-rule: evenodd;
      }

      .cls-2 {
        fill: #6e3121;
      }

      .cls-3 {
        fill: url(#_未命名漸層_965-2);
      }

      .cls-4 {
        fill: url(#_未命名漸層_940-7);
      }

      .cls-5 {
        fill: #a15934;
      }

      .cls-6 {
        fill: url(#_未命名漸層_940-8);
      }

      .cls-7 {
        fill: none;
      }

      .cls-8 {
        fill: #e3ab75;
      }

      .cls-9 {
        fill: url(#_未命名漸層_940-6);
      }

      .cls-10 {
        fill: url(#_未命名漸層_940);
      }

      .cls-11 {
        fill: #fff;
      }

      .cls-12 {
        fill: url(#_未命名漸層_940-2);
      }

      .cls-13 {
        fill: url(#_未命名漸層_940-3);
      }

      .cls-14 {
        fill: url(#_未命名漸層_940-5);
      }

      .cls-15 {
        fill: #90492c;
      }

      .cls-16, .cls-19 {
        fill: #8e4331;
      }

      .cls-17 {
        fill: url(#_未命名漸層_940-4);
      }

      .cls-18 {
        fill: url(#_未命名漸層_965);
      }
    </style>
    <linearGradient id="_未命名漸層_965" data-name="未命名漸層 965" x1="110.32" y1="182.02" x2="552.06" y2="418.38" gradientUnits="userSpaceOnUse">
      <stop offset=".06" stop-color="#5c310c"/>
      <stop offset=".16" stop-color="#a9542e"/>
      <stop offset=".27" stop-color="#e8a66a"/>
      <stop offset=".37" stop-color="#c27e45"/>
      <stop offset=".47" stop-color="#4a2a0c"/>
    </linearGradient>
    <linearGradient id="_未命名漸層_940" data-name="未命名漸層 940" x1="550.33" y1="117.17" x2="487.04" y2="141.71" gradientUnits="userSpaceOnUse">
      <stop offset=".06" stop-color="#5c310c"/>
      <stop offset=".16" stop-color="#a9542e"/>
      <stop offset=".37" stop-color="#e8a66a"/>
      <stop offset=".66" stop-color="#c27e45"/>
      <stop offset="1" stop-color="#4a2a0c"/>
    </linearGradient>
    <linearGradient id="_未命名漸層_940-2" data-name="未命名漸層 940" x1="-2600.82" y1="-849.41" x2="-2507.44" y2="-849.41" gradientTransform="translate(-1977.37 1158.69) rotate(139.11)" xlink:href="#_未命名漸層_940"/>
    <linearGradient id="_未命名漸層_940-3" data-name="未命名漸層 940" x1="505.97" y1="89.16" x2="473.03" y2="149.22" xlink:href="#_未命名漸層_940"/>
    <linearGradient id="_未命名漸層_940-4" data-name="未命名漸層 940" x1="495.44" y1="82.35" x2="461.53" y2="155" xlink:href="#_未命名漸層_940"/>
    <linearGradient id="_未命名漸層_940-5" data-name="未命名漸層 940" x1="-3910.99" y1="442.27" x2="-3960.14" y2="461.32" gradientTransform="translate(-3929.62 544.22) rotate(-176.56)" xlink:href="#_未命名漸層_940"/>
    <linearGradient id="_未命名漸層_940-6" data-name="未命名漸層 940" x1="986.55" y1="1821.11" x2="1059.06" y2="1821.11" gradientTransform="translate(-1886.32 -493.81) rotate(-37.45)" xlink:href="#_未命名漸層_940"/>
    <linearGradient id="_未命名漸層_940-7" data-name="未命名漸層 940" x1="-3945.44" y1="420.51" x2="-3971.01" y2="467.15" gradientTransform="translate(-3929.62 544.22) rotate(-176.56)" xlink:href="#_未命名漸層_940"/>
    <linearGradient id="_未命名漸層_940-8" data-name="未命名漸層 940" x1="-3953.61" y1="415.22" x2="-3979.94" y2="471.64" gradientTransform="translate(-3929.62 544.22) rotate(-176.56)" xlink:href="#_未命名漸層_940"/>
    <linearGradient id="_未命名漸層_965-2" data-name="未命名漸層 965" x1="163.6" y1="443.46" x2="-12.71" y2="303.32" gradientTransform="translate(-22.04 -265.79) rotate(-8.81)" xlink:href="#_未命名漸層_965"/>
  </defs>
  <g id="_圖層_2-2" data-name="圖層 2">
    <g>
      <g>
        <path class="cls-8" d="m221.09,196.71c-12.84,0-23.29-10.48-23.29-23.35,0-10.57,7.13-19.85,17.35-22.56l196.3-52.15c1.99-.53,4.02-.8,6.04-.8,12.84,0,23.29,10.48,23.29,23.36,0,10.57-7.13,19.85-17.35,22.56l-196.3,52.15c-1.99.53-4.02.8-6.04.8Z"/>
        <path class="cls-15" d="m417.49,98.84h0c12.29,0,22.29,10.03,22.29,22.36,0,10.12-6.83,19-16.61,21.59l-196.3,52.15c-1.9.51-3.85.76-5.79.76-12.29,0-22.29-10.03-22.29-22.36,0-10.12,6.83-19,16.61-21.59l196.3-52.15c1.9-.51,3.85-.76,5.79-.76m0-2c-2.07,0-4.18.27-6.3.83l-196.3,52.15c-10.67,2.83-18.09,12.49-18.09,23.53,0,13.79,11.28,24.36,24.29,24.36,2.07,0,4.18-.27,6.3-.83l196.3-52.15c10.67-2.83,18.09-12.49,18.09-23.53,0-13.79-11.28-24.36-24.29-24.36h0Z"/>
      </g>
      <g>
        <path class="cls-15" d="m222.27,160.89c0-.61.26-.96.79-1.06l4.2-.84c.3-.04.63-.06.99-.04.42.31.24.73-.54,1.28-.3.23-.45.58-.45,1.03v8.15c0,.47.23.65.68.53l3.92-1.05c.45-.12.93-.53,1.42-1.23.62-.98,1.29-1.97,1.99-2.97.08-.04.4.1.96.42l1.99,1.17c.68.42.9.79.65,1.1-.27.34-.68.58-1.25.73l-9.65,2.59c-.47.13-.71.42-.71.87v12.54c0,.57-.28.97-.85,1.22l-3.12,1.23c-.68.26-1.02.1-1.02-.46v-13.17c0-.47-.23-.65-.68-.53l-8.54,2.29c-.57.15-.91.14-1.02-.04-.13-.27.06-.47.57-.61l8.97-2.4c.47-.13.71-.42.71-.87v-9.88Z"/>
        <path class="cls-15" d="m252.47,152.85c0-.57.28-.8.85-.71.66.09,1.32.2,1.99.35.62.19,1.17.19,1.65-.02l6.98-1.87c.45-.12.94-.53,1.45-1.24.57-.78,1.12-1.07,1.65-.9l1.93.62c.7.29,1.04.48,1.02.58-.04.11-.2.33-.48.67-.3.29-.45.66-.45,1.11v15.24c-.08.66-.42,1.29-1.02,1.89-.55.53-1.48,1-2.78,1.43-.57.15-.89-.05-.96-.59-.13-.76-.34-1.27-.62-1.54-.25-.37-.82-.31-1.73.18-.62.22-.94.12-.94-.32s-.19-.63-.57-.53c-.4.11-.6.45-.6,1.04s-.28,1.03-.85,1.28l-1.11.41c-.57.21-.85.03-.85-.54v-7.15c0-.57.28-.81.85-.74,1.14.32,1.93.36,2.38.13.47-.13.87-.42,1.19-.89.32-.45.77-.57,1.33-.39l.74.26c.83.1,1.02.45.57,1.04-.11.16-.17.47-.17.93v3.12c0,.47.15.67.45.59.32-.09.48-.36.48-.81v-6.24c0-.55-.03-.77-.09-.66-.02.06-.31.17-.88.32l-6.73,1.8c-.47.13-.71.42-.71.87.32,2.94-.45,5.99-2.33,9.14-.49.7-1.03,1.41-1.62,2.14-.51.55-.48.81.09.77l2.1-.42,15.41-4.13c.57-.15.86-.15.88.02,0,.17-.1.39-.31.65-.47.88-.75,1.87-.82,2.97-.04.58-.34.94-.91,1.09l-13.2,3.54c-2.2.11-4-1.05-5.42-3.49-.21-.45-.5-.36-.88.29-1,1.76-1.98,3.55-2.92,5.35-.25.75-.43,1.15-.54,1.22-.11.03-.27,0-.45-.11-.61-.97-1.17-1.96-1.7-2.95-.28-.49-.14-.99.43-1.5l1.36-1.16c.49-.42.74-.84.74-1.28v-6.13c0-.47-.23-.65-.68-.53l-.82.22c-.57.15-.92.11-1.05-.12-.1-.24.14-.43.71-.59l1.11-.3c.45-.12.96-.52,1.53-1.21.49-.59,1.04-.76,1.65-.53l2.04.81c.79.18.91.52.34,1.02-.28.27-.43.63-.43,1.08v4.48c.02.24.07.5.14.78.21.4.43.28.68-.35.57-2.08.87-4.31.91-6.69v-12.86Zm-7.72,6.81c.08-.19.39-.36.94-.51.64-.13,1.32-.25,2.02-.34,2.18-.19,3.23.61,3.15,2.39-.42,1.49-1.21,2.33-2.38,2.51-1.29-.07-1.93-.66-1.93-1.75.02-.46-.26-.95-.82-1.48-.72-.39-1.04-.67-.96-.82Zm.88-5.17c.08-.23.37-.41.88-.55.72-.19,1.47-.33,2.24-.4,1.02-.12,1.78.02,2.27.41.87.71,1.02,1.62.45,2.72-.74,1.22-1.66,1.73-2.75,1.53-.66-.14-1.06-.54-1.19-1.18.08-.66-.3-1.32-1.14-1.97-.55-.25-.8-.44-.77-.56Zm19.21-2.59c0-.49-.22-.68-.65-.56l-7.04,1.89c-.47.13-.71.42-.71.87v5.36c0,.47.23.65.68.53l.65-.17c.47-.13.71-.42.71-.87v-1.02c0-.47-.22-.65-.65-.53-.45.12-.74.07-.85-.17-.11-.23.1-.43.65-.57.57-.15.85-.45.85-.91v-1.25c0-.57.28-.93.85-1.08l3.12-.61c.62.08.61.37-.03.89-.15.12-.23.42-.23.91,0,.64.19.67.57.08.34-.53.73-.64,1.16-.34.43.32.62.59.54.82.04.44-.48.74-1.56.87-.47.13-.71.42-.71.87v1.02c0,.45.09.67.26.64.17-.05.39-.32.65-.83.32-.58.67-.73,1.05-.45.45.33.68.26.68-.21v-5.17Zm-3.86,11c0-.47-.19-.66-.57-.56-.4.11-.6.39-.6.84v2.72c0,.47.19.66.57.56.4-.11.6-.39.6-.84v-2.72Z"/>
        <path class="cls-15" d="m279.69,145.19c.15-.59.59-.91,1.31-.97,1.57-.21,3.14-.39,4.71-.53.64.32.49.74-.45,1.26-.21.17-.48.59-.82,1.27-.32.65-.26.92.2.8l11.01-2.95c.45-.12.93-.53,1.42-1.23l.94-1.36c.49-.68,1.03-.87,1.62-.58l1.45.8c.68.42.92.8.71,1.12-.21.32-.59.55-1.14.7l-7.01,1.88c-.47.13-.71.42-.71.87v4.51c0,.47.23.65.68.53l1.36-.37c.45-.12.92-.53,1.39-1.22.26-.45.56-.91.88-1.37.47-.67.99-.84,1.56-.5l1.42.81c.66.41.9.77.71,1.09-.21.3-.59.53-1.14.67l-6.16,1.65c-.47.13-.71.42-.71.87v5.76c0,.47.23.65.68.53l2.13-.57c.45-.12.93-.53,1.42-1.23.43-.59.83-1.17,1.19-1.74.42-.6.96-.71,1.62-.32l1.7.96c.59.34.77.66.57.98-.25.35-.65.6-1.22.75l-7.38,1.98c-.47.13-.71.42-.71.87v5.59c0,.57-.28.97-.85,1.22l-3.12,1.23c-.66.25-.99.1-.99-.47v-6.22c0-.47-.23-.65-.68-.53l-10.81,2.9c-.57.15-.91.11-1.02-.12-.11-.25.11-.46.68-.61l1.48-.4c.47-.13.71-.42.71-.87v-7.49c.23-.89-.15-.82-1.14.22-.72.5-1.13.7-1.22.61-.1-.09.03-.46.37-1.12,1.53-3.12,2.66-6.34,3.38-9.67Zm8.26,2.47c0-.49-.22-.68-.65-.56l-3.18.85c-.45.12-.91.53-1.36,1.22-.74,1.22-1.62,2.4-2.64,3.55-.51.5-.56.77-.14.83l2.64.49c.32.07.71.04,1.16-.09l3.46-.93c.47-.13.71-.42.71-.87v-4.48Zm0,6.67c0-.49-.22-.68-.65-.56l-3.77,1.01c-.47.13-.71.42-.71.87v5.76c0,.47.23.65.68.53l3.75-1c.47-.13.71-.42.71-.87v-5.73Z"/>
        <path class="cls-15" d="m311.67,137.13c0-.55.28-.9.82-1.04l3.12-.61c.57-.17.98-.14,1.25.09.04.24-.15.5-.57.8-.28.23-.42.57-.42,1.02v3.94c0,.49.21.45.62-.11.42-.57.93-.71,1.53-.44l.57.3c.68.35.95.66.79.95-.17.31-.52.54-1.05.68l-1.76.47c-.47.13-.71.42-.71.87v3.58c0,.45.28.55.85.28l1.22-.7c.64-.36.98-.5,1.02-.42.08.23-.21.65-.85,1.28l-1.56,1.41c-.46.42-.68.86-.68,1.32v9.73c0,.57-.28.97-.85,1.22-.8.29-1.59.61-2.39.95-.64.27-.96.14-.96-.37v-7.63c0-.45-.3-.41-.91.13l-1.36,1.22c-.17.18-.3.38-.4.62-.28.64-.56.92-.82.82-.23-.18-.41-.57-.54-1.16-.21-1-.46-2.01-.74-3.01-.15-.58.11-1,.77-1.26l3.29-1.36c.47-.2.71-.53.71-.98v-4.51c0-.47-.17-.66-.51-.57-.36.1-.66.46-.91,1.09-.4,1.18-1.2,2.63-2.41,4.34-.61.77-.95,1.13-1.02,1.1-.1-.07-.09-.4.03-1,.53-2.64.87-5.64,1.02-9.02.04-.73.35-1.09.94-1.07l2.18-.02c.46-.03.68-.27.68-.72v-2.21Zm0,5.02c0-.42-.11-.35-.34.21l-.2.76c-.17.54-.13.77.11.71.28-.08.42-.34.42-.8v-.88Zm10.22-7.9c0-.55.27-.9.82-1.04.98-.23,2-.42,3.04-.59.57-.19,1.02-.24,1.36-.14.36.17.27.47-.26.89-.21.17-.31.48-.31.94v1.87c0,.47.26.64.77.5.53-.14,1.04-.56,1.53-1.26l.68-1.03c.45-.61.99-.76,1.62-.43.38.18.76.39,1.14.63.62.34.85.67.68.98-.19.33-.57.58-1.14.73l-4.57,1.22c-.47.13-.71.42-.71.87v2.92c0,.47.23.65.68.53l.77-.21c.45-.12.92-.53,1.39-1.22l.71-1.04c.51-.72,1.04-.94,1.59-.65l1.45.8c.6.33.81.64.62.94-.21.32-.6.56-1.16.71l-14.81,3.97c-.57.15-.9.14-.99-.05-.15-.26.03-.46.54-.6l3.86-1.03c.47-.13.71-.42.71-.87v-2.92c0-.47-.23-.65-.68-.53l-1.96.52c-.57.15-.92.11-1.05-.12-.1-.26.14-.46.71-.62l2.27-.61c.47-.13.71-.42.71-.87v-3.21Zm3.75,9.92c0-.57.27-.92.82-1.04,1.04-.22,2.08-.42,3.12-.58.38-.12.76-.17,1.14-.16.66.05.64.41-.06,1.07-.47.28-.63.85-.48,1.72,0,.59.23.55.68-.1l.54-.83c.47-.71.96-.86,1.45-.44l.2.2c.57.51.79.91.68,1.21-.15.34-.5.59-1.05.74l-1.79.48c-.47.13-.71.42-.71.87v8.09c-.15,1.18-.82,2.11-2.02,2.81-.76.45-1.51.78-2.27,1.01-.68.2-1.06.03-1.14-.52-.04-.65-.26-1.26-.65-1.81-.25-.35-.78-.61-1.62-.79-.66,0-.97-.15-.94-.46.02-.08.31-.2.88-.35l2.5-.67c.47-.13.71-.42.71-.87v-5.19c0-.47-.23-.65-.68-.53l-3.8,1.02c-.59.16-.63.31-.14.46,1.38.14,2.13.83,2.24,2.07.09.62-.11,1.32-.6,2.09-1.68,1.83-2.71,1.61-3.09-.68.04-.94-.19-1.8-.68-2.6-.28-.42-.62-.57-1.02-.46-.4.11-.67.05-.82-.18-.15-.22.06-.41.62-.56l7.27-1.95c.47-.13.71-.42.71-.87v-2.19Z"/>
        <path class="cls-15" d="m339.69,129.88c0-.61.27-.89.82-.85l1.96.13c.98.13,1.71.11,2.19-.07l3.04-.81c.45-.12.96-.51,1.53-1.18.51-.59,1.06-.78,1.65-.58l2.04.79c.81.14.92.52.31,1.14-.27.24-.4.55-.4.93v5.96c0,.57-.28.97-.85,1.22l-2.55,1.02c-.66.25-.99.16-.99-.27,0-.47-.23-.65-.68-.53l-.91.24c-.45.12-.71.47-.77,1.06l-.09,1.95c-.04.52.15.73.57.61l.74-.2c.45-.12.96-.53,1.53-1.23.68-.85,1.31-1.15,1.87-.93l2.55,1.02c.47.33.38.74-.28,1.24-.32.22-.48.55-.48.98-.06,4.06-.42,6.97-1.08,8.72-.21.68-.6,1.26-1.16,1.73-.87.53-1.85.95-2.95,1.24-.68.2-1.02-.03-1.02-.69.08-1.14-.42-1.89-1.48-2.27-.45-.03-.68-.13-.68-.3,0-.25.28-.44.85-.6l1.79-.48c.45-.12.75-.5.88-1.14.32-1.71.5-3.73.54-6.05,0-.47-.23-.65-.68-.53l-.96.26c-.45.12-.72.48-.79,1.06-.13,1.45-.45,2.96-.96,4.52-.89,2.79-2.56,5.42-5.02,7.87-.55.56-.92.84-1.11.84-.19-.04-.09-.41.31-1.11.98-1.93,1.63-3.61,1.93-5.06.49-2.63.79-5.62.91-8.96,0-.45-.28-.58-.85-.37l-.28.13c-.64.27-.96.12-.96-.45v-10.02Zm8.74-.27c0-.49-.22-.68-.65-.56l-2.95.79c-.47.13-.71.42-.71.87v5.53c0,.47.23.65.68.53l2.92-.78c.47-.13.71-.42.71-.87v-5.51Zm5.48-.5c0-.59.28-.94.85-1.05,1.02-.23,2.07-.45,3.15-.64.55-.11.83-.02.85.25-.08.15-.22.31-.43.45-.25.16-.37.45-.37.86v13.14c0,.57-.28.98-.85,1.22-.76.28-1.52.59-2.3.93-.61.26-.91.12-.91-.41v-14.76Zm5.76-4.98c0-.57.27-.91.82-1.02,1.04-.22,2.08-.42,3.12-.58.53-.14.98-.18,1.36-.11.25.22.11.54-.4.96-.34.28-.51.65-.51,1.1v21.82c-.13,1.02-.6,1.83-1.39,2.44-.72.53-1.66.97-2.81,1.32-.57.17-.89-.02-.96-.56-.11-1.39-.82-2.19-2.13-2.41-.57-.08-.86-.19-.88-.33.02-.16.31-.31.88-.46l2.19-.59c.47-.13.71-.42.71-.87v-20.72Z"/>
        <path class="cls-15" d="m390.21,115.32c.7-.55,1.32-.7,1.87-.44l2.87,1.28c.74.29.99.68.77,1.16-.23.34-.6.5-1.11.47-.4.07-.79.21-1.19.43l-4.12,1.56c-.45.2-.68.52-.68.98v3.58c0,.47.23.65.68.53l1.25-.33c.45-.12.93-.53,1.42-1.23.36-.57.75-1.15,1.16-1.73.43-.63.96-.77,1.56-.42l1.7,1.02c.62.36.85.69.68.98-.25.35-.64.6-1.19.75l-6.56,1.76c-.47.13-.71.42-.71.87v4.09c0,.47.12.68.37.61.25-.07.62-.45,1.14-1.16.21-.34.44-.69.71-1.04.43-.63.96-.84,1.59-.62l2.84,1.03c.91.23.99.73.26,1.49-.36.42-.54.85-.54,1.31v6.5c0,.57-.28.97-.85,1.22l-3.49,1.39c-.64.25-.96.12-.96-.39v-.71c0-.47-.23-.65-.68-.53l-5.31,1.42c-.47.13-.71.46-.71,1.01s-.28.97-.85,1.22l-3.41,1.37c-.57.21-.85.03-.85-.54v-11.61c0-.57.28-.81.85-.74l4.26.79c.79.22,1.1-.03.91-.75v-4.06c0-.47-.23-.65-.68-.53l-4.57,1.22c-.57.15-.88.18-.94.08-.06-.1-.17.16-.34.77l-1.7,7.21c-.27.83-.34,1.6-.23,2.33.79,1.38,1.18,2.8,1.16,4.26-.19,1.3-.83,2.23-1.93,2.79-.91.47-1.69.54-2.36.21-.45-.24-.72-.68-.79-1.32-.04-.44.05-1.26.26-2.45.25-1.05.38-1.84.4-2.38.11-.69-.19-1.11-.91-1.26-.66-.03-.99-.14-.99-.33,0-.15.28-.33.85-.54.4-.13.76-.38,1.08-.77l2.47-5.15c.25-.52.13-.51-.34.03-1.65,1.37-2.68,1.02-3.09-1.04.04-.46-.15-.98-.57-1.55-.57-.51-.8-.86-.71-1.06.06-.15.37-.3.94-.45.74-.2,1.48-.31,2.21-.34,1.76.12,2.53.91,2.33,2.38-.11.5-.02.45.28-.16l1.82-3.75c.38-.82.62-1.2.74-1.13.09.03.07.38-.09,1.05l-.28,1.18c-.13.57,0,.79.4.69l4.88-1.31c.47-.13.71-.42.71-.87v-3.26c0-.47-.28-.62-.85-.45l-3.83,1.08c-.57.17-.87.18-.91.02-.06-.17.21-.41.79-.7,4.2-2.13,7.91-4.46,11.13-6.98Zm-18.25,5.37c.1-.2.39-.36.88-.49,1.21-.34,2.36-.43,3.43-.27.89.25,1.44.79,1.65,1.6.19.74-.04,1.56-.68,2.45-.91,1.08-1.85,1.41-2.84.99-.51-.32-.79-.8-.82-1.45.04-.69-.26-1.37-.88-2.03-.57-.38-.81-.64-.74-.8Zm17.71,11.83c0-.47-.23-.65-.68-.53l-5.31,1.42c-.47.13-.71.42-.71.87v5.53c0,.47.23.65.68.53l5.31-1.42c.47-.13.71-.42.71-.87v-5.53Z"/>
        <path class="cls-15" d="m411.62,109.61c.64-.55,1.21-.71,1.7-.48,1.06.44,2.12.91,3.18,1.42.49.17.62.4.37.7-.15.1-.42.17-.79.21-.27-.06-.64.02-1.14.25l-2.78,1.06c-.49.21-.74.52-.74.94v.88c0,.47.23.65.68.53l.79-.21c.51.11,1.14-.52,1.9-1.9.49-.68,1.03-.87,1.62-.58l1.28.68c.45.22.68.1.68-.35v-4.34c0-.57.28-.92.85-1.05l3.12-.64c.74-.08,1.14-.07,1.22.04.08.26-.11.57-.54.91-.15.1-.24.43-.26,1l-.09,4.22c0,.59.15.84.45.76.32-.09.77-.48,1.33-1.18.7-.83,1.31-1.14,1.84-.92l1.93.73c1.04.33,1.17.83.4,1.51-.34.26-.51.59-.51.99-.06,4.39-.26,8.13-.6,11.23-.25,2.11-.63,3.73-1.16,4.85-.85,1.27-2.12,2.12-3.8,2.55-.68.18-1.02-.04-1.02-.66-.02-.9-.19-1.61-.51-2.13-.27-.33-.52-.5-.77-.53-.59-.05-.88-.19-.88-.42,0-.25.28-.45.85-.6l1.96-.52c.45-.12.74-.48.85-1.08.51-3.81.76-7.91.74-12.32.02-.59-.15-.84-.51-.74-.38.1-.59.38-.62.85-.06,1.42-.16,2.87-.31,4.37-.32,3.76-1.39,7.07-3.21,9.94-1.46,2.17-3.13,4.03-5.02,5.57-.62.53-.99.75-1.11.67-.13-.13.09-.54.65-1.22,1.1-1.34,1.98-2.64,2.64-3.91.26-.53.08-.61-.57-.25l-11.18,6.71c-.15.1-.29.28-.42.54-.23.44-.39.71-.48.81-.28.06-.48-.16-.6-.66-.3-1.05-.58-2.13-.82-3.21-.11-.54.11-.89.68-1.06l4-1.21c.53-.2.8-.57.8-1.12,0-.64-.23-.9-.68-.78l-3.66.98c-.57.15-.91.14-1.02-.04-.13-.25.07-.44.6-.59l4.06-1.09c.47-.13.71-.42.71-.87v-1.25c0-.47-.19-.66-.57-.56-.4.11-.6.32-.6.64s-.28.62-.85.88l-1.79.76c-.64.27-.96.14-.96-.37v-9c0-.57.28-.84.85-.82l1.99.15c.3.03.69-.01,1.16-.14.51-.14.77-.51.77-1.11s-.23-.88-.68-.75l-3.78,1.01c-.57.15-.92.11-1.05-.12-.1-.24.14-.44.71-.59l4.09-1.1c.47-.13.71-.42.71-.87v-.54c0-.45-.28-.59-.85-.42l-3.07.99c-.7.19-1.07.21-1.11.07-.04-.14.25-.37.85-.68,2.95-1.6,5.65-3.4,8.09-5.4Zm-3.92,10.81c0-.47-.19-.66-.57-.56-.4.11-.6.39-.6.84v1.33c0,.47.19.66.57.56.4-.11.6-.39.6-.84v-1.33Zm0,3.55c0-.49-.18-.69-.54-.59-.42.11-.62.39-.62.85v1.45c0,.47.19.66.57.56.4-.11.6-.39.6-.84v-1.42Zm10.61-9.68c.08-.59,0-.72-.23-.39-.21.32-.59.56-1.16.71l-4.8,1.28c-.47.13-.71.49-.71,1.1s.19.89.57.78c.4-.11.83-.43,1.31-.97.49-.55,1.01-.72,1.56-.5l2.04.79c.38.26.3.53-.23.83-.3.21-.45.55-.45,1v5.34c0,.57-.19.94-.57,1.12-.47.2-.43.45.14.76l.62.32c.6.33.84.63.71.89-.17.31-.54.54-1.11.69l-3.89,1.04c-.47.13-.71.46-.71.98s.28.72.85.57c1.36-.5,2.72-.97,4.09-1.41.43-.15.76-.56.96-1.22.74-2.87,1.07-6.71.99-11.53,0-.47-.23-.65-.68-.53l-.65.18c-.57.15-.92.11-1.05-.12-.1-.24.14-.43.71-.59l.94-.25c.45-.12.7-.41.74-.85Zm-5.85,4.86c0-.47-.17-.66-.51-.57-.36.1-.54.37-.54.83v1.33c0,.47.17.66.51.57.36-.1.54-.37.54-.83v-1.33Zm0,3.55c0-.49-.16-.69-.48-.61-.38.1-.57.38-.57.83v1.45c0,.47.17.66.51.57.36-.1.54-.37.54-.83v-1.42Zm0,3.55c-.04-.43-.2-.6-.48-.52-.38.1-.57.38-.57.83v1.25c0,.47.27.64.82.49.57-.15,1.12-.58,1.65-1.29l.23-.34c.42-.6.42-.82,0-.65l-.94.39c-.47.2-.71.15-.71-.15Z"/>
      </g>
      <path class="cls-18" d="m510.68,246.77c.46-5.26-1.76-8.8-3.21-10.5-.46-.54-.95-1.04-1.48-1.49,3.18-1.93,5.61-4.98,6.8-8.8.63-2.03.76-4.18.37-6.27-.99-5.35-4.69-8.16-6.9-9.84-.35-.27-.72-.52-1.09-.75.57-.69,1.1-1.46,1.56-2.33.45-.85.81-1.74,1.06-2.66,1.25-4.51.49-9.18-2.09-12.81-1.47-2.07-4.79-5.51-10.94-6.25-1.26-.24-2.52-.41-3.78-.51-.61-.07-1.22-.11-1.82-.11h0c-3.31,0-6.36,1.04-8.88,2.91-1.66-.86-3.53-1.43-5.53-1.68-.53-.07-1.07-.1-1.61-.1-.14,0-.28,0-.41,0-1.83.06-3.67.2-5.49.43-7.07.63-12.38,5.69-13.58,12.64-1.69-.72-3.56-1.21-5.71-1.21-1.17,0-2.34.15-3.47.45-1.29.34-2.51.89-3.63,1.61-1.04-6.08-2.58-11.61-4.63-16.53-4.7-11.33-11.86-19.5-21.28-24.27-5.63-2.85-11.87-4.29-18.57-4.29-4.56,0-9.4.68-14.39,2.01-11.5,3.08-21.48,9-29.66,17.58-4.16,4.36-7.82,9.32-10.96,14.81v-6.72c0-4.07-1.89-7.9-5.12-10.38-2.31-1.77-5.11-2.7-7.96-2.7-1.13,0-2.27.15-3.38.45l-1.66.45c-2.51.67-4.77,2.08-6.48,4.04-1.57,1.81-3.4,3.48-5.43,4.97-2.28,1.68-4.61,3.14-6.94,4.36-2.68,1.4-5.36,2.7-7.96,3.88-2.55,1.15-4.82,2.09-6.73,2.8-5.13,1.9-8.53,6.79-8.53,12.26v1.72c0,4.07,1.89,7.9,5.12,10.37,2.31,1.77,5.11,2.7,7.96,2.7.29,0,.58,0,.87-.03v81.5l-2.93.78c-.99.26-1.92.64-2.8,1.11,1.12-8.65,1.88-19.11,2.3-31.73,1.52-1.92,2.56-4.14,3.01-6.54.81-4.3-.3-8.68-3.13-12.36-.51-.66-1.08-1.27-1.71-1.82l-2.96-2.61c-.08-.07-.15-.13-.23-.2-2.87-2.42-6.28-3.69-9.86-3.69-1.6,0-3.15.26-4.62.75-.44-.76-.96-1.47-1.54-2.15-2.59-2.97-6.26-4.71-10.35-4.9-.2,0-.4-.01-.6-.01-.33,0-.66.01-1,.04l-3.99.3c-5.42.38-9.91,3.06-12.55,7.15-1.79-.76-3.76-1.18-5.84-1.18-1.25,0-2.54.15-3.84.45-1.4.21-2.81.51-4.2.88-5.34,1.43-9.34,5.34-11,10.43-3.93-4.19-8.37-4.89-10.88-4.89h0c-4.93,0-9.41,2.53-12.28,6.86l-13.4,3.59c-.09-.02-.18-.03-.26-.05,3.58-1.12,7.99-3.96,10.76-10.95.08-.2.15-.39.22-.59,2.12-6.24,1.29-13.37-2.47-21.2-1.2-2.52-2.67-5.03-4.4-7.52.46-.67.93-1.32,1.39-1.97,4.71-2.29,6.82-5.89,7.71-8.12,1.11-2.78,2.35-8.4-1.86-14.82-.81-1.23-1.81-2.32-2.98-3.21-.55-.42-1.14-.93-1.76-1.51-.34-.32-.7-.62-1.07-.9-3.74-2.82-7.4-3.41-9.8-3.41-3.39,0-6.59,1.12-9.27,3.17-1.5-3-4.04-5.43-7.28-6.87-1.22-.54-2.51-.9-3.83-1.05-2.46-.28-4.94-.48-7.38-.59-.19,0-.38-.01-.57-.01-2.22,0-4.4.56-6.35,1.64-1.36.75-2.45,1.65-3.33,2.62-.51-.03-1.03-.05-1.57-.06l-1.68-.08c-.22-.01-.43-.02-.65-.02-6.43,0-11.02,2.38-13.64,7.06-.88,1.58-1.43,3.33-1.6,5.13-.09.94-.2,1.87-.33,2.82-.37-.31-.74-.61-1.14-.91-2.27-1.98-5.59-4.63-10.54-4.63-.13,0-.26,0-.39,0-2.1.06-4.15.63-5.98,1.65-2.39,1.33-3.8,2.99-5.48,5.3-.49.06-.98.14-1.46.25-.32.07-.64.16-.95.25-2.59-1.92-5.69-2.99-8.9-2.99-.99,0-1.97.1-2.93.29l-2.47.22c-.44.04-.87.1-1.31.19-2.26.44-4.31,1.32-6.06,2.55-.55-.07-1.12-.11-1.72-.11-.15,0-.32,0-.47,0-4.86.17-9.22,3.02-11.33,7.39-.27.56-.58,1.13-.92,1.71-2.69.22-5.27,1.27-7.36,3.03-4.92,4.15-4.92,9.82-4.92,12.55,0,.15,0,.3,0,.46.36,10.33.77,20.76,1.22,31.09-4.22,3.08-6.5,8.13-5.75,13.68.05.4.13.79.21,1.18,1.01,4.38,3.01,7.13,5.19,8.86-1.5,1.7-2.84,3.93-3.33,6.9-.27,1.67-.22,3.38.16,5.04.98,4.28,4.01,7.86,8.09,9.57,1.61.68,3.33,1.02,5.06,1.02,1.19,0,2.39-.16,3.56-.49,9.51-2.69,18.37-9.03,27.06-19.37.32-.15.62-.32.93-.49-2.58,2.78-4.14,6.62-4.14,10.98v5.44c-4.43,1.47-6.92,4.19-8.27,6.39-2.07,3.38-2.63,7.53-1.53,11.4.97,3.48,3.09,6.33,5.9,8.18-1.63,5.69-3.62,11.08-5.95,16.12-1.97,4.16-1.94,8.75.07,12.64,1.95,3.76,5.47,6.36,9.7,7.17-.36,5.26,1.56,8.83,3.36,11,2.71,3.25,6.75,5.12,11.07,5.12,1.99,0,4.03-.4,6.09-1.18,3.39-1.22,6.12-3.29,8.03-5.9,1.95.93,4.13,1.42,6.4,1.42,1.67,0,3.35-.26,5.12-.78,4.48-1.27,8.03-4.1,10.11-8.05,1.09.72,2.29,1.28,3.56,1.65,1.58.46,3.2.69,4.82.69,2.94,0,7.17-.77,11.27-4.22,1.48.41,2.8.52,3.78.52,4.64,0,10.47-2.46,13.44-9.25,2.78.79,5.72,1.2,8.78,1.2.95,0,1.92-.04,2.89-.12.02,0,.05,0,.07,0,4.45-.38,10.38-1.55,18.11-3.56.03,0,.06-.02.09-.02l12.17-3.26c.3-.08.59-.17.88-.27l.72-.25c2-.61,3.8-1.56,5.36-2.78,1.02.17,2.05.26,3.05.26,5.22,0,9.91-2.24,13.18-6.23,1.38.34,2.78.52,4.18.52,5.29,0,10.18-2.44,13.78-6.86.64-.79,1.19-1.65,1.63-2.57,2.59,2.56,6.12,4.07,10.04,4.07,1.91,0,3.83-.37,5.72-1.1,4.19-1.53,9.49-4.75,13.33-11.45.79,1.63,1.91,3.09,3.33,4.29,2.39,2.02,5.39,3.09,8.44,3.09,1.13,0,2.27-.15,3.38-.45l45.51-12.19c5.08-1.36,8.77-5.6,9.54-10.68.66.38,1.32.75,2,1.1,5.6,2.88,11.86,4.34,18.58,4.34,4.54,0,9.37-.68,14.35-2.01,11.49-3.08,21.48-8.99,29.72-17.57,2.8-2.92,5.36-6.1,7.7-9.53.4,2.31,1.4,4.47,2.93,6.26,2.52,2.96,6.21,4.66,10.13,4.66,3.67,0,6.57-1.45,9.16-3.02.03-.02.06-.04.09-.05,3.82-2.36,7.64-5.44,11.35-9.18,1.69-1.69,3.26-3.44,4.69-5.24,2.84,3.34,6.79,5.42,11.25,5.91.04,0,.07,0,.11.01.89.09,1.81.13,2.74.13,6.44,0,14.01-2.06,23.83-6.47.14-.06.28-.13.42-.2,6.39-3.15,10.34-8.71,10.87-15.28.35-3.87-.75-7.56-3.06-10.52Zm-419.78,32.44s.09.07.14.11c-.16.08-.33.16-.49.24.11-.12.24-.23.35-.35Zm345.63-20.58c.65-1.93,1.25-3.91,1.79-5.92.6.07,1.2.12,1.82.12.8,0,1.61-.07,2.42-.2-1.8,3.83-4.3,7.21-7.57,10.23.54-1.39,1.06-2.8,1.54-4.23Z"/>
      <g>
        <path class="cls-11" d="m77.44,214.02c.09-1.93.83-3.03,2.22-3.3l3.5-.32c.85-.33,1.61-.1,2.29.7.49,1.57-.34,2.87-2.49,3.91-.13.24-.29.9-.47,1.98l-.27,2.08c-.13,1.27.13,1.82.81,1.64s1.5-1.18,2.49-2.99c1.12-2.16,1.82-3.24,2.08-3.27.4.1,1.05.44,1.95,1.02l2.69,1.75c1.25.33,1.64,1.11,1.14,2.32-.27.33-1.05.67-2.35,1.02l-7.6,2.04c-1.08.29-1.77,1.25-2.08,2.88-.36,1.75-.65,3.47-.87,5.18-.13,1.22.51,1.67,1.95,1.33l2.35-.63c1.08-.29,2.26-1.33,3.56-3.12,1.25-1.78,1.99-2.72,2.22-2.84.22-.06.94.52,2.15,1.74,2.29,1.66,3.41,3.42,3.36,5.29-.4,1.14-1.17,1.86-2.29,2.16-.67.28-1.08.49-1.21.63-.13.24-.27.9-.4,1.96l-1.88,18.29c-.09,1.26.4,1.75,1.48,1.46l8.47-2.27c1.07-.29,1.68-1.22,1.81-2.81.04-2.23.16-4.47.34-6.74.04-1.3-.47-1.81-1.55-1.52-1.03.28-2.08.66-3.16,1.16-1.44.69-2.26.53-2.49-.49-.27-1.01.29-1.68,1.68-2l4.03-.69c1.08-.29,1.68-1.22,1.82-2.81l.47-8.17c0-1.24-.54-1.71-1.61-1.42-.94.25-1.91.61-2.89,1.08-1.39.58-2.22.44-2.49-.42-.22-1.02.34-1.69,1.68-2,1.3-.14,2.6-.39,3.9-.73,1.08-.29,1.68-1.22,1.81-2.81l.54-9.42c.04-1.25-.47-1.73-1.55-1.44-2.02.44-3.76,1.04-5.24,1.79-1.44.69-2.24.52-2.42-.51-.22-1.07.36-1.77,1.75-2.09,1.79-.17,3.34-.46,4.64-.86,1.08-.29,2.24-1.32,3.5-3.1,1.3-1.84,2.04-2.81,2.22-2.91.22,0,1.01.58,2.35,1.77,2.06,1.46,3.25,2.84,3.56,4.15-.13,1.53-.87,2.5-2.22,2.91-.72.35-1.17.65-1.34.9-.76,11.81-1.44,23.59-2.02,35.34-.09,1.26-.02,1.89.2,1.88.22-.06.85-.97,1.88-2.75.49-1.01,1.08-2.04,1.75-3.1.18-.1.87.46,2.08,1.68l2.49,2.89c-.23,1.25-1.08,1.86-2.55,1.84l-55.47,14.86c-1.43.54-2.87,1.16-4.3,1.85-.18-.05-.38-.57-.61-1.54-.13-.99.47-1.62,1.81-1.88l2.69-.49c1.12-.25,1.68-1.15,1.68-2.69-.58-12.78-1.1-25.59-1.55-38.41,0-1.55.09-2.39.27-2.55,1.12.06,2.24.2,3.36.41,1.03.19,2.11-.33,3.23-1.56,2.11-2.68,3.79-5.32,5.04-7.92.22,0,.78.18,1.68.55,2.02.8,3.34,1.5,3.97,2.11.76,1.45.2,2.42-1.68,2.93-.94-.52-2.04.03-3.29,1.66-2.24,2.1-4.01,3.58-5.31,4.44-1.21.84-1.81,1.41-1.81,1.72l.27,8.74c.04,1.23.18,1.84.4,1.83.63-.17,1.37-1.27,2.22-3.3,1.08-1.83,1.72-2.78,1.95-2.84l4.37,2.7c1.75.61,2.08,1.53,1.01,2.75-2.69.88-5.38,1.65-8.07,2.32-1.08.29-1.61,1.21-1.61,2.75l.27,7.89c.09,1.32.67.95,1.75-1.09.99-1.91,1.66-2.92,2.02-3.02.4.1,1.05.44,1.95,1.02.9.53,1.79,1.14,2.69,1.83,1.34.52,1.7,1.3,1.08,2.34-.22.27-1.01.58-2.35.94l-5.24,1.4c-1.08.29-1.61,1.05-1.61,2.29l.27,7.12c.09,1.21.67,1.68,1.75,1.39l6.32-1.69c1.08-.29,1.75-1.24,2.02-2.86.58-5.05,1.23-10.12,1.95-15.22.18-1.59.36-2.54.54-2.85.54-.2,1.55-.21,3.03-.04.9-.03,1.79,0,2.69.13,1.08.23,1.55.75,1.41,1.56-.18,1.29-.81,2.07-1.88,2.36-.49.13-.87,1.03-1.14,2.7-.49,3.38-.92,6.82-1.28,10.32-.18,1.34.27,1.86,1.34,1.57l2.08-.56c1.08-.29,1.72-1.24,1.95-2.84l2.29-21.88c.09-1.26-.4-1.75-1.48-1.46l-3.83,1.03c-1.52.67-2.4,1.42-2.62,2.25-.76,2.42-2.33,3.43-4.71,3.04-.31-.28-.34-1.22-.07-2.84,1.57-7.69,2.51-15.21,2.82-22.57Zm-4.3,55.45c.49-1.21,1.08-2.45,1.75-3.72.18-.1.99.07,2.42.51l2.69.75c1.52.42,2.08,1.3,1.68,2.64-.45,1.05-1.17,1.58-2.15,1.58-.99.21-2.02,1.08-3.09,2.61-7.08,8.6-14.14,13.89-21.18,15.88-.22-.09-.36-.24-.4-.43.04-.27.76-.93,2.15-1.97,6.63-4.36,12.01-10.31,16.14-17.86Zm17.41-5.98c.27-.28,1.05-.41,2.35-.4,5.92.43,11.03,2.02,15.33,4.79,1.88,2.02,2.24,4.37,1.08,7.06-1.34,1.65-2.6,1.83-3.77.54-3.59-4.87-8.25-8.41-13.98-10.64-.9-.12-1.23-.57-1.01-1.35Z"/>
        <path class="cls-11" d="m132.06,196.68c.13-.24.87-.36,2.22-.36l1.95.1c1.52,0,2.6.15,3.23.45,1.03,1.37.63,2.51-1.21,3.42-.85.23-1.52,1.16-2.02,2.78-1.03,3.52-2.24,7.1-3.63,10.72-.54,1.38-.38,2.06.47,2.04,1.25-.13,1.91.32,1.95,1.33.13.89-.34,1.66-1.41,2.31-.58.52-.87,1.39-.87,2.63v43.15c.4,3.45-1.17,5.08-4.71,4.9-.36-.21-.54-1.07-.54-2.56v-39.83c0-1.39-.49-1.1-1.48.86-1.57,3.15-3.74,6.29-6.52,9.4-.27.12-.49.11-.67-.05-.05-.25.4-1.27,1.34-3.07,6.72-12.89,10.69-25.63,11.9-38.22Zm13.51,29.25c.4-1.6,1.48-2.28,3.23-2.02.9.02,1.79.11,2.69.29,2.15.15,2.71,1.16,1.68,3.03-.22.27-.65.51-1.28.73-.94-.16-1.59.74-1.95,2.69-2.51,8.61-5.81,16.2-9.88,22.76-1.12,2.26-2.04,3.02-2.76,2.29,4.26-9.39,7.01-19.31,8.27-29.75Zm1.55-30.96c.31-1.73.56-2.65.74-2.75,2.15.09,4.3.27,6.45.51,1.3.58,1.37,1.62.2,3.12-.22.16-.65.36-1.28.57-.72.24-1.37,1.22-1.95,2.92l-2.49,6.62c-.58,1.39-.2,1.99,1.14,1.78l20.51-5.5c1.08-.29,2.26-1.38,3.56-3.27,1.12-1.64,2.49-1.85,4.1-.64.94.88,1.86,1.67,2.76,2.35,1.52,2.33.83,3.83-2.08,4.5-.85.02-1.77.91-2.76,2.67-1.44,1.98-2.87,4.04-4.3,6.18-.94,1.59-1.7,2.13-2.29,1.62-.04-.3.22-1.3.81-3l2.22-7.09c.27-1.31-.13-1.82-1.21-1.53l-7.46,2c-1.12.3-1.68,1.07-1.68,2.31v44.93c.36,3.77-1.32,6.77-5.04,9.01-1.48.81-2.24.81-2.29,0,0-1.86-1.34-3.15-4.03-3.87-1.34-.52-2.02-.9-2.02-1.16.18-.41.94-.69,2.29-.84,1.08.02,2.15-.06,3.23-.25,2.11-.26,2.96-1.52,2.55-3.78v-42.54c0-1.29-.54-1.79-1.61-1.5l-6.45,1.81c-1.35.57-2.47,1.69-3.36,3.38-2.82,5.5-5.38,9.07-7.66,10.72-.63-.3-.36-1.24.81-2.85,4.66-8.88,7.53-17.69,8.61-26.44Zm21.45,27.43c-.76-1.55-.96-2.47-.61-2.78.31-.13,1.03.37,2.15,1.51,3.05,3.51,5.4,7.01,7.06,10.48,2.24,4.66,2.87,8.44,1.88,11.33-1.3,3.29-2.87,4.17-4.71,2.65-.27-.44-.45-1.43-.54-2.95-.67-8.07-2.42-14.82-5.24-20.25Z"/>
        <path class="cls-11" d="m95.75,293.44c0-1.75.67-2.6,2.02-2.55l4.77-.2c1.75.56,1.99,1.84.74,3.82-.4.52-1.08,1.01-2.02,1.47-.18.25-.27,1-.27,2.24v7.66c0,1.24.22,1.82.67,1.75.45-.17,1.28-1.19,2.49-3.06.27-.33.47-.64.61-.94,1.3-1.95,2.04-2.94,2.22-2.99,1.84.95,3.74,2.07,5.71,3.34.76.21,1.19.64,1.28,1.28-.36,1.18-1.32,1.82-2.89,1.93l-8.4,2.25c-1.12.3-1.68,1.07-1.68,2.31v1.78c0,1.24.67,2.19,2.02,2.86,5.38,3.15,8.25,6.97,8.61,11.46-.05,1.2-.7,2.17-1.95,2.92-1.52.62-2.67,0-3.43-1.87-1.17-2.73-2.42-5.46-3.77-8.19-.67-1.21-1.1-1.77-1.28-1.67-.13.24-.2.98-.2,2.22v37.66c.54,2.28-.27,3.78-2.42,4.52-2.38.95-3.32.06-2.82-2.65v-35.27c0-1.13-.27-.91-.81.68-1.21,5.94-3.74,12.24-7.6,18.9-1.3,1.79-2.04,2.74-2.22,2.84-.72-.12-.87-.59-.47-1.42,4.62-9.95,7.98-20.91,10.09-32.87.27-1.46-.09-2.06-1.08-1.8-2.29.51-4.19,1.15-5.72,1.92-1.39.58-2.22.36-2.49-.65-.31-1.05.43-1.74,2.22-2.06,1.48-.09,3.61-.55,6.39-1.4,1.12-.3,1.68-1.07,1.68-2.31v-13.92Zm20.44-3.93c0-1.86.69-2.45,2.08-1.8,2.42,1.52,4.12,1.99,5.11,1.41l14.45-3.87c1.08-.29,2.15-1.2,3.23-2.72,1.17-1.65,1.81-2.5,1.95-2.53.22,0,1.03.6,2.42,1.83,2.96,1.68,3.25,3.56.87,5.64-1.3.66-1.77,1.74-1.41,3.24v56.38c0,1.65-.16,2.67-.47,3.07-1.39,1.35-2.87,1.8-4.44,1.34-.22-.2-.34-1.07-.34-2.62v-1.93c0-1.29-.54-1.79-1.61-1.5l-14.93,4c-1.12.3-1.68,1.07-1.68,2.31.04,1.43,0,2.89-.13,4.37-.4.88-1.17,1.47-2.29,1.77-2.47.76-3.41-.12-2.82-2.65v-65.74Zm7.26,1.69c-1.34.62-2.02,1.55-2.02,2.78v12.68c0,1.29.54,1.79,1.61,1.5l14.93-4c1.12-.3,1.68-1.07,1.68-2.31v-13.07c0-1.29-.54-1.79-1.61-1.5l-14.59,3.91Zm16.2,16.54c0-1.34-.52-1.87-1.55-1.6l-14.99,4.02c-1.12.3-1.68,1.07-1.68,2.31v13.38c0,1.29.54,1.79,1.61,1.5l14.93-4c1.12-.3,1.68-1.07,1.68-2.31v-13.3Zm0,19.26c0-1.39-.5-1.96-1.48-1.69l-15.06,4.04c-1.12.3-1.68,1.07-1.68,2.31v14.31c0,1.29.54,1.79,1.61,1.5l14.93-4c1.12-.3,1.68-1.07,1.68-2.31v-14.15Z"/>
        <path class="cls-11" d="m162.46,310.06c1.21-1.72,1.9-2.6,2.08-2.65.22,0,1.01.58,2.35,1.77,3.68,2.06,4.06,4.28,1.14,6.65-1.26.29-1.7,1.28-1.34,2.99v9.75c0,1.24.34,2.28,1.01,3.13,2.78,2.4,6.36,3.27,10.76,2.61,4.44-.72,8.36-1.49,11.77-2.3l7.53-2.02c4.98-1.49,9.86-3.16,14.66-5.01,1.35-.41,2.11-.49,2.29-.23.04.3-.34.97-1.14,2.01-.76,1.13-1.34,2.32-1.75,3.56-.27,1.46-1.08,2.38-2.42,2.74l-1.01.35-12.17,3.26c-6.95,1.81-12.26,2.87-15.93,3.19-6.32.51-11.48-1.54-15.46-6.14-.67-1.01-1.46-.69-2.35.94-.99,2.17-2.67,5.17-5.04,9.01.4,1.08.54,1.92.4,2.52-.81,2.23-1.97,2.39-3.5.47l-1.81-2.45c-.81-1.33-.52-2.65.87-3.95,1.93-1.6,4.06-3.77,6.39-6.51,1.08-1.17,1.61-2.37,1.61-3.6v-13.77c0-1.29-.54-1.79-1.61-1.5-1.75.37-3.39.93-4.91,1.7-1.39.63-2.2.43-2.42-.59-.27-1.01.34-1.69,1.82-2.03,1.75-.16,3.34-.46,4.77-.89,1.08-.29,2.22-1.29,3.43-3.01Zm-7.73-17.11c.22-.37,1.03-.53,2.42-.49,1.97.3,3.5.74,4.57,1.33,2.29.93,3.7,2.41,4.24,4.43.27,2.35-.72,3.8-2.96,4.35-1.12.04-2.04-.69-2.76-2.2-1.12-1.97-2.31-3.71-3.56-5.23-1.3-1.15-1.95-1.88-1.95-2.18Zm4.17-17.05c.27-.33,1.25-.34,2.96-.02,5.15,1.51,7.71,4.04,7.66,7.61-1.03,2.91-2.69,3.5-4.98,1.8-1.52-3.2-2.94-5.61-4.24-7.22-1.17-1.03-1.64-1.75-1.41-2.17Zm45.85-13.06c1.03-1.98,2.24-1.94,3.63.11,1.21.91,2.08,1.81,2.62,2.7,1.03,1.37.54,2.74-1.48,4.11-.81.63-1.21,1.56-1.21,2.8v14.15c.4,3.14-.96,4.82-4.1,5.04-.94.05-1.32-.65-1.14-2.09,0-1.03-.54-1.4-1.61-1.11l-5.18,1.39c-1.12.3-1.68,1.07-1.68,2.31v3.71c0,1.29.54,1.79,1.61,1.5l8.81-2.36c1.08-.29,2.29-1.36,3.63-3.22l1.68-2c.22,0,1.01.53,2.35,1.61,1.03.86,1.95,1.75,2.76,2.66.58,1.03.18,2.04-1.21,3.03-.9.65-1.34,1.6-1.34,2.84v14.46c0,1.55-.2,2.89-.6,4.03-1.17,2.27-2.67,3.73-4.5,4.38-1.34.57-2.15.11-2.42-1.36-.22-.97-1.17-1.83-2.82-2.57-1.66-.69-2.4-1.24-2.22-1.65.27-.38,1.08-.57,2.42-.57l2.62-.16c1.84.08,2.6-1.01,2.29-3.24v-14.93c0-1.29-.54-1.79-1.61-1.5l-9.75,2.61c-1.12.3-1.68,1.07-1.68,2.31v6.73c0,1.24.67,1.55,2.02.93l1.81-.87c1.12-.66,1.46-1.68,1.01-3.05l-.27-.62c-.63-1.38-.83-2.2-.6-2.47,3.67,1.18,6.18,3.81,7.53,7.88.18,2.94-.9,4.49-3.23,4.65-1.03-.34-1.7-1.4-2.02-3.17-.27-1.22-1.1-1.3-2.49-.26-3.54,2.55-6.97,4.76-10.29,6.62-1.84.75-2.69,1.88-2.55,3.39-.36,1.33-1.14,1.88-2.35,1.64-.27-.24-.61-.82-1.01-1.74l-1.28-3.76c-.45-1.58.07-2.57,1.55-2.97,1.75-.42,3.5-.94,5.24-1.56,1.12-.35,1.68-1.15,1.68-2.38v-7.5c0-1.29-.54-1.79-1.61-1.5l-7.73,2.07c-1.34.62-2.02,1.55-2.02,2.78v19.65c.45,2.46-.36,3.94-2.42,4.44-1.66.34-2.58.38-2.76.12-.09-.18-.13-1.05-.13-2.59v-24.98c0-1.75.81-2.41,2.42-1.96,1.7.83,2.89,1.11,3.56.82l9.01-2.41c1.12-.3,1.68-1.07,1.68-2.31v-3.71c0-1.29-.54-1.79-1.61-1.5l-5.11,1.37c-1.12.3-1.68.86-1.68,1.69.13,2.23-1.08,3.51-3.63,3.83-1.57.42-2.13-.54-1.68-2.87v-22.82c0-1.7.78-2.32,2.35-1.87,1.3.43,2.24.66,2.82.71l19.7-5.28c1.08-.29,2.15-1.19,3.23-2.72l1.01-1.43Zm-21.78,10.86c-1.34.62-2.02,1.55-2.02,2.78v3.71c0,1.29.54,1.79,1.61,1.5l5.11-1.37c1.12-.3,1.68-1.07,1.68-2.31v-4.1c0-1.29-.54-1.79-1.61-1.5l-4.77,1.28Zm6.39,10.2c0-1.34-.52-1.87-1.55-1.6l-5.18,1.39c-1.12.3-1.68,1.07-1.68,2.31v4.1c0,1.29.54,1.79,1.61,1.5l5.11-1.37c1.12-.3,1.68-1.07,1.68-2.31v-4.02Zm13.72-13.65c0-1.29-.54-1.79-1.61-1.5l-5.18,1.39c-1.12.3-1.68,1.07-1.68,2.31v4.1c0,1.29.54,1.79,1.61,1.5l5.18-1.39c1.12-.3,1.68-1.07,1.68-2.31v-4.1Zm0,9.98c0-1.34-.52-1.87-1.55-1.6l-5.24,1.4c-1.12.3-1.68,1.07-1.68,2.31v4.1c0,1.29.54,1.79,1.61,1.5l5.18-1.39c1.12-.3,1.68-1.07,1.68-2.31v-4.02Z"/>
        <path class="cls-11" d="m229.52,258.29c.09-1.57.81-2.54,2.15-2.9,1.12-.3,2.24-.52,3.36-.67,1.79-.53,2.78-.1,2.96,1.3-.22,1.09-.78,1.78-1.68,2.07-.85.59-1.5,1.67-1.95,3.23-.72,2.51-1.97,5.4-3.77,8.67-.76,1.44-.6,2.02.47,1.73l4.71-1.26c1.08-.29,2.22-1.29,3.43-3.01,1.25-1.68,2.55-1.92,3.9-.74.9.74,1.77,1.56,2.62,2.47.49.95.27,1.89-.67,2.81-1.12.82-1.75,1.32-1.88,1.51-.18.36-.27,1.16-.27,2.39v43.54c0,1.55-.04,2.46-.13,2.74-1.39,1.71-2.96,2.34-4.71,1.88-.27-.24-.4-1.13-.4-2.68v-2.55c0-1.29-.54-1.79-1.61-1.5l-8.94,2.4c-1.12.3-1.68,1.07-1.68,2.31.04,1.84,0,3.79-.13,5.84-1.07,1.73-2.67,2.36-4.77,1.9-.27-.19-.4-1.08-.4-2.68v-53.44c0-1.8.87-2.3,2.62-1.48,1.43,1.11,2.62,1.38,3.56.82.76-.2,1.41-1.15,1.95-2.84,1.12-3.86,1.55-7.81,1.28-11.87Zm-1.95,16.45c-1.44.64-2.15,1.53-2.15,2.66v15.62c0,1.29.54,1.79,1.61,1.5l8.94-2.4c1.12-.3,1.68-1.07,1.68-2.31v-15.85c0-1.29-.54-1.79-1.61-1.5l-8.47,2.27Zm10.08,20.96c0-1.34-.52-1.87-1.55-1.6l-9.01,2.41c-1.12.3-1.68,1.07-1.68,2.31v17.4c0,1.29.54,1.79,1.61,1.5l8.94-2.4c1.12-.3,1.68-1.07,1.68-2.31v-17.32Zm15.06-44.64c.18-1.59,1.17-2.45,2.96-2.57l4.03-.31c.99.05,1.43.54,1.34,1.5-.13,1.32-.7,2.07-1.68,2.23-.85.28-1.43,1.13-1.75,2.56-.54,2.36-1.17,4.82-1.88,7.39-.4,1.24.04,1.69,1.34,1.34l14.19-3.8c1.08-.29,2.2-1.36,3.36-3.22,1.12-1.8,2.33-2.14,3.63-1.05l2.96,2.61c1.12,1.45.83,2.69-.87,3.72-1.34.41-1.88,1.54-1.61,3.37-.45,16.05-1.44,28.87-2.96,38.46-.36,1.95-1.07,4.21-2.15,6.76-1.66,4.41-4.3,7.26-7.93,8.54-1.43.59-2.26.17-2.49-1.27-.27-1.27-.99-2.31-2.15-3.14-1.39-.51-2.13-.85-2.22-1.03-.04-.25-.04-.48,0-.7.18-.25.94-.48,2.29-.69,2.06-.04,3.88-.42,5.45-1.15,1.03-.53,1.99-1.85,2.89-3.94,1.25-3.94,2.15-8.31,2.69-13.09,1.03-8.68,1.52-18.94,1.48-30.79,0-1.29-.54-1.79-1.61-1.5l-15.6,4.18c-1.35.62-2.35,1.79-3.03,3.52-1.52,4.33-3.47,8.46-5.85,12.4-1.26,1.63-2.02,2.42-2.29,2.39-.27-.19-.02-1.15.74-2.91,3.94-9.56,6.18-19.5,6.72-29.8Zm1.14,33.49c-1.17-1.29-1.52-2.14-1.08-2.57,2.6.13,5.2,1.49,7.8,4.1,1.66,1.72,2.69,3.51,3.09,5.36.27,1.06,0,2.17-.81,3.31-1.75,1.81-3.32,1.4-4.71-1.21-.81-2.57-2.24-5.56-4.3-8.98Z"/>
      </g>
      <path class="cls-11" d="m466.51,201.68c0-1.7.69-2.58,2.08-2.65,1.52-.2,3.05-.33,4.57-.37,1.97.25,2.44,1.33,1.41,3.26-.58.72-1.34,1.29-2.29,1.7-.31.34-.47,1.13-.47,2.37v20.88c0,1.29.54,1.79,1.61,1.5l13.58-3.64c1.17.31,2.53-1.09,4.1-4.19,1.34-2.01,2.11-3.04,2.29-3.09l4.98,2.84c1.26.95,1.9,1.55,1.95,1.8-.4,1.29-1.34,1.93-2.82,1.92l-17.48,4.68c-1.12.3-1.68,1.07-1.68,2.31v23.98c-.31,3.54.74,5.09,3.16,4.64,4.3-.69,8-1.73,11.09-3.13,1.57-1.92,2.62-4.93,3.16-9.04.27-1.82.63-2.77,1.08-2.84.72-.19.99.25.81,1.33-.18,3.19.02,5.67.61,7.42.22.3.72.58,1.48.84.76.52,1.1,1.17,1.01,1.97-.13,2-1.34,3.56-3.63,4.68-8.79,3.95-15.42,5.7-19.9,5.26-2.47-.27-3.86-2.16-4.17-5.69v-27.92c0-1.29-.54-1.79-1.61-1.5l-5.72,1.53c-1.07.29-1.68,1.22-1.81,2.81-.05,3.88-.52,7.87-1.41,11.98-1.39,8.06-5.36,15.36-11.9,21.9-3,3.02-5.98,5.44-8.94,7.27-1.52.92-2.38,1.28-2.55,1.07-.05-.45.61-1.32,1.95-2.61,6.59-5.27,11.38-11.61,14.39-19.01,2.06-5.86,3.16-12.4,3.29-19.6,0-1.29-.54-1.79-1.61-1.5l-13.45,3.6c-.67.23-1.34.54-2.02.93-1.48.65-2.35.48-2.62-.53-.31-1.1.43-1.82,2.22-2.14l2.35-.32,21.25-5.69c1.12-.3,1.68-1.07,1.68-2.31v-26.68Zm-18.09,11.11c-.85-1.16-1.03-1.91-.54-2.25.31-.08,1.14.31,2.49,1.19,3.9,2.77,6.63,6.27,8.2,10.49.85,2.3.47,4.31-1.14,6.03-1.93,1.24-3.32.3-4.17-2.83-1.17-4.74-2.78-8.95-4.84-12.62Zm38.32-12.67c.54-1.95,1.5-2.8,2.89-2.55,1.08.07,2.15.22,3.23.45,2.02.13,2.8,1,2.35,2.62-.22.42-1.03.92-2.42,1.5-.67-.08-1.26.54-1.75,1.86-2.6,6.06-5.74,11.36-9.41,15.9-1.75,1.76-2.71,2.51-2.89,2.24-.05-.35.38-1.42,1.28-3.2,3.14-6.1,5.38-12.37,6.72-18.82Z"/>
      <g>
        <path class="cls-11" d="m295.39,313.68l.17-1.76,3.49-.93c2.55-.68,4.7-2.18,6.48-4.49,1.77-2.31,2.66-4.72,2.66-7.24v-89.24c0-3.44-.78-5.72-2.33-6.86-1.55-1.13-3.77-1.31-6.64-.54l-4.98,1.33v-1.72c2.21-.82,4.73-1.87,7.56-3.14,2.82-1.27,5.7-2.67,8.64-4.2,2.93-1.53,5.81-3.33,8.64-5.41,2.82-2.07,5.34-4.38,7.56-6.93l1.66-.45v111.93c0,2.52.91,4.43,2.74,5.71,1.83,1.29,3.96,1.6,6.39.95l3.49-.93v1.72l-45.51,12.19Z"/>
        <path class="cls-11" d="m385.36,169.07c9.19-2.46,17.08-2.02,23.67,1.31,6.59,3.34,11.63,9.21,15.11,17.61,3.49,8.41,5.23,19.03,5.23,31.87s-1.74,24.25-5.23,34.59c-3.49,10.34-8.53,18.94-15.11,25.8-6.59,6.87-14.48,11.53-23.67,13.99-9.19,2.46-17.05,2.02-23.58-1.33-6.53-3.35-11.57-9.25-15.11-17.7-3.54-8.45-5.31-19.04-5.31-31.76s1.77-24.4,5.31-34.69c3.54-10.29,8.58-18.86,15.11-25.71,6.53-6.85,14.39-11.51,23.58-13.97Zm0,6.53c-7.31,1.96-12.98,8.32-17.02,19.09-4.04,10.77-6.06,25.15-6.06,43.15s2.02,31.3,6.06,39.9c4.04,8.61,9.72,11.93,17.02,9.97,7.42-1.99,13.12-8.36,17.11-19.11,3.99-10.75,5.98-25.13,5.98-43.13s-1.99-31.3-5.98-39.92c-3.99-8.62-9.69-11.93-17.11-9.94Z"/>
      </g>
      <g>
        <g>
          <polygon class="cls-10" points="548.92 127.38 473.57 158.76 550.71 105.19 548.92 127.38"/>
          <polygon class="cls-12" points="550.71 105.19 533.34 96.51 473.57 158.76 550.71 105.19"/>
        </g>
        <g>
          <polygon class="cls-13" points="500.91 110.31 468.65 151.54 494.94 97.35 500.91 110.31"/>
          <polygon class="cls-17" points="494.94 97.35 481.52 98.23 468.65 151.54 494.94 97.35"/>
        </g>
      </g>
      <g>
        <g>
          <polygon class="cls-14" points="2.42 329.44 62.29 308.62 0 346.55 2.42 329.44"/>
          <polygon class="cls-9" points="0 346.55 13.06 354.09 62.29 308.62 0 346.55"/>
        </g>
        <g>
          <polygon class="cls-4" points="38.84 344.9 65.77 314.45 42.86 355.23 38.84 344.9"/>
          <polygon class="cls-6" points="42.86 355.23 53.3 355.17 65.77 314.45 42.86 355.23"/>
        </g>
      </g>
      <g>
        <path class="cls-16" d="m178.82,164.21l-9.47,6.26,7.69,6.77,1.66-4.39.59-1.57,1.66-.19,5.03-.58-7.15-6.29Zm-15.52,3.65l14.24-9.41,1.76-1.16,1.58,1.39,13.38,11.78,4.65,4.09-6.15.71-9.51,1.1-2.47,6.55-1.41,3.73-2.99-2.63-13.38-11.78-2.71-2.38,3.01-1.99Z"/>
        <path class="cls-2" d="m203.27,99.47c4.87,3.07,9.96,5.79,14.99,7.98l7.11-8.08c-4.05-1.05-9.65-3.1-16-7.09l-6.1,7.19Z"/>
        <path class="cls-3" d="m163.63,166.01l69-46.73c-12.97-2.37-28.36-9.91-40.93-19.25-7.42-5.51-13.92-11.7-18.43-17.87-1.47-2.01-2.73-4.03-3.76-6.04l-26.76,71.16c-.96,3.27-.15,7.01,1.76,10.38,1.19,2.12,2.8,4.06,4.67,5.65,1.82,1.55,3.88,2.75,6.02,3.41,2.79.86,5.73.78,8.43-.7"/>
        <path class="cls-16" d="m155.24,127.48c-1.19-1.52-.92-3.72.6-4.91,1.52-1.19,3.72-.92,4.91.6,2.91,3.73,8.01,8.01,13.34,11.13,4.4,2.57,8.79,4.29,11.88,4.06,1.93-.14,3.6,1.31,3.74,3.24.14,1.93-1.31,3.6-3.24,3.74-4.63.34-10.44-1.79-15.94-5.01-6.02-3.53-11.87-8.47-15.29-12.85"/>
        <path class="cls-19" d="m184.84,102.25c-3.41-1.77-12.97-10.07-14.85-16.05-2.92,7.81-5.21,13.93-8.14,21.74,2.21,4.91,11.11,11.47,15.82,13,2.41-6.43,4.75-12.26,7.17-18.69"/>
        <path class="cls-16" d="m148.91,146.05c-.74-1.79.12-3.83,1.9-4.57,1.79-.74,3.83.12,4.57,1.9.52,1.27,2.59,3.3,5.13,5.1,2.26,1.6,4.73,2.87,6.65,3.1,1.92.23,3.29,1.96,3.06,3.88-.23,1.92-1.96,3.29-3.88,3.06-3.17-.38-6.79-2.15-9.87-4.33-3.53-2.5-6.57-5.73-7.56-8.15"/>
        <path class="cls-16" d="m185.75,119.55c-1.38-1.35-1.4-3.57-.04-4.95,1.35-1.38,3.57-1.4,4.95-.04,1.98,1.96,5.37,4.23,8.93,6.06,3.19,1.64,6.39,2.86,8.59,3.06,1.92.17,3.35,1.87,3.17,3.8-.17,1.92-1.87,3.34-3.8,3.17-3.14-.28-7.26-1.79-11.18-3.81-4.12-2.12-8.15-4.85-10.62-7.29"/>
        <path class="cls-16" d="m202.01,43.88c-.01,1.29-1.06,2.32-2.35,2.31-1.29-.01-2.32-1.06-2.31-2.35l.19-17.49c.01-1.29,1.06-2.32,2.35-2.31,1.29.01,2.32,1.06,2.31,2.35l-.19,17.49Z"/>
        <path class="cls-16" d="m220.45,54.64c-.76,1.04-2.22,1.26-3.25.51-1.04-.76-1.26-2.22-.5-3.25l12.25-16.95c.76-1.04,2.22-1.26,3.25-.5,1.04.76,1.26,2.22.5,3.25l-12.25,16.95Z"/>
        <path class="cls-16" d="m236.23,68.11c-1.2.46-2.55-.14-3.01-1.33-.46-1.2.14-2.55,1.34-3.01l16.34-6.26c1.2-.46,2.55.14,3.01,1.34.46,1.2-.14,2.55-1.34,3.01l-16.34,6.26Z"/>
        <path class="cls-2" d="m178.91,78.03c4.06,5.56,10.05,11.23,16.98,16.38.51.38,1.03.76,1.56,1.14l8.62-10.16,2.05-2.42,2.61,1.81c7.98,5.54,14.57,7.55,18.26,8.29-.42-7.35-7.37-15.43-16.24-22.02-4.09-3.04-8.56-5.73-12.99-7.87-4.39-2.12-8.76-3.71-12.71-4.59-5.63-1.25-10.09-1.09-11.76,1.16-.94,1.27-1.48,2.63-1.67,4.08-.54,4.1,1.53,9.05,5.31,14.21"/>
        <path class="cls-1" d="m218.38,89.32c4.5,2.22,8.17,3.26,10.6,3.74-.42-7.35-7.37-15.43-16.24-22.02-4.09-3.04-8.56-5.73-12.99-7.87-4.39-2.12-8.76-3.71-12.71-4.59-2.26-.5-4.34-.78-6.12-.78.04.01,26.2,7.07,36.49,22.59,0,0,6.38,7.65.97,8.92"/>
        <path class="cls-16" d="m173.27,82.16c-1.47-2.01-2.73-4.03-3.75-6.04l-26.76,71.16c-.96,3.27-.15,7.01,1.76,10.38,1.19,2.12,2.8,4.06,4.67,5.65,1.82,1.55,3.88,2.75,6.02,3.41,2.79.86,5.73.78,8.43-.7l69-46.73c-12.97-2.37-28.37-9.91-40.93-19.25-7.42-5.51-13.92-11.7-18.43-17.87m61.25,17.43l-9.28,10.55c3.78,1.27,7.45,2.17,10.88,2.62,1.34.18,2.47.79,3.33,1.68.82.85,1.38,1.97,1.6,3.17.23,1.21.1,2.4-.35,3.46-.44,1.07-1.2,2-2.21,2.68l-71.07,48.14-.24.15c-4.57,2.58-9.47,2.77-14.06,1.35-3.05-.95-5.95-2.62-8.47-4.77-2.49-2.12-4.63-4.71-6.22-7.53-2.81-4.98-3.94-10.74-2.3-16.02l.06-.2,30.38-80.78c.02-.4.06-.8.11-1.19.35-2.63,1.31-5.1,2.98-7.34,3.54-4.77,10.6-5.66,18.91-3.81,4.44.99,9.34,2.77,14.24,5.13,4.86,2.35,9.72,5.26,14.12,8.53,11.97,8.9,20.89,20.69,18.74,31.83-.17.91-.54,1.65-1.15,2.34Zm-5.87-8.83c-1.5-6.71-7.95-13.82-15.9-19.72-4.09-3.04-8.56-5.73-12.99-7.87-4.39-2.12-8.76-3.71-12.71-4.59-5.63-1.25-10.09-1.09-11.76,1.16-.94,1.27-1.48,2.63-1.67,4.08-.54,4.1,1.53,9.05,5.31,14.21,4.06,5.56,10.05,11.23,16.98,16.38.51.38,1.03.76,1.56,1.14l8.62-10.16,2.05-2.42,2.61,1.81c6.57,4.56,12.17,6.79,16.03,7.76,1.16.29,2.25-.19,1.89-1.77Zm-10.38,16.68l7.12-8.08c-4.05-1.05-9.65-3.1-16-7.09l-6.1,7.19c4.87,3.07,9.96,5.79,14.99,7.98Z"/>
        <polygon class="cls-5" points="169.42 170.53 177.03 177.23 178.69 172.84 179.28 171.28 180.94 171.08 185.97 170.5 178.82 164.21 176.56 165.7 169.42 170.53"/>
      </g>
    </g>
    <rect class="cls-7" x="53.94" width="433.78" height="433.78"/>
  </g>
</svg>