<?xml version="1.0" encoding="UTF-8"?>
<svg id="_圖層_2" data-name="圖層 2" xmlns="http://www.w3.org/2000/svg" xmlns:xlink="http://www.w3.org/1999/xlink" viewBox="0 0 119.62 122.75">
  <defs>
    <style>
      .cls-1 {
        fill: url(#_未命名漸層_959-2);
      }

      .cls-1, .cls-2, .cls-3, .cls-4, .cls-5 {
        stroke-width: 0px;
      }

      .cls-2 {
        fill: url(#_未命名漸層_959);
      }

      .cls-3 {
        fill: url(#_未命名漸層_959-4);
      }

      .cls-4 {
        fill: url(#_未命名漸層_959-3);
      }

      .cls-5 {
        fill: url(#_未命名漸層_959-5);
      }
    </style>
    <linearGradient id="_未命名漸層_959" data-name="未命名漸層 959" x1="19.4" y1="6.68" x2="101.18" y2="104.46" gradientUnits="userSpaceOnUse">
      <stop offset="0" stop-color="#e9ac5e"/>
      <stop offset="1" stop-color="#c36e3f"/>
    </linearGradient>
    <linearGradient id="_未命名漸層_959-2" data-name="未命名漸層 959" x1="14.09" y1="11.13" x2="95.87" y2="108.9" xlink:href="#_未命名漸層_959"/>
    <linearGradient id="_未命名漸層_959-3" data-name="未命名漸層 959" x1="1.47" y1="21.68" x2="83.25" y2="119.46" xlink:href="#_未命名漸層_959"/>
    <linearGradient id="_未命名漸層_959-4" data-name="未命名漸層 959" x1="9.37" y1="15.07" x2="91.15" y2="112.85" xlink:href="#_未命名漸層_959"/>
    <linearGradient id="_未命名漸層_959-5" data-name="未命名漸層 959" x1="16.96" y1="8.73" x2="98.74" y2="106.5" xlink:href="#_未命名漸層_959"/>
  </defs>
  <g id="_圖層_6" data-name="圖層 6">
    <g>
      <path class="cls-2" d="m104.46,121.2c2.4,2.48,7.05,1.91,10.36-1.28l1.75-1.69c3.3-3.19,4.04-7.83,1.65-10.31l-25.6-26.51-13.75,13.28,25.6,26.51Z"/>
      <path class="cls-1" d="m36.85,54l1.43-1.38c.05.05.07.12.12.17l4.62,4.79,13.75-13.28-4.62-4.79c-.05-.05-.12-.08-.17-.12l1.43-1.38c3.83-3.7,4.67-9.11,1.87-12.01L37.75,7.85c-2.81-2.91-8.47-6.21-12.6-7.35,0,0-10.48-2.89-18.9,5.24C-2.17,13.87.35,24.44.35,24.44c.99,4.16,4.1,9.94,6.9,12.85l17.53,18.15c2.8,2.9,8.24,2.25,12.07-1.45Z"/>
      <path class="cls-4" d="m49.6,79.39l-1.14,1.1,3.86,4,1.14-1.1c.3-.29.45-.64.45-1.06s-.14-.77-.43-1.07l-1.76-1.82c-.32-.33-.67-.5-1.06-.5-.39-.01-.75.14-1.07.45Z"/>
      <path class="cls-3" d="m57.03,72.22l-1.14,1.1,3.86,4,1.14-1.1c.3-.29.45-.64.45-1.06,0-.41-.14-.77-.43-1.07l-1.76-1.82c-.7-.73-1.41-.74-2.13-.05Z"/>
      <path class="cls-5" d="m57.08,47.3l-11.07,10.69-17.01,16.42,32.07,33.22,17.01-16.42,11.07-10.69,17.01-16.43-32.07-33.22-17.01,16.43Zm-1.81,32.16c.8.82,1.19,1.81,1.18,2.95-.01,1.14-.42,2.11-1.24,2.9l-1.09,1.05,4.54,4.71-1.88,1.82-12.06-12.49,2.97-2.87c.92-.89,1.93-1.3,3.03-1.25,1.04.06,1.97.52,2.8,1.38l1.75,1.81Zm13.37,1.97l-.14.14-5.69-3.6-.17.16-1.09,1.05,4.54,4.71-1.88,1.82-12.06-12.49,2.97-2.87c.57-.55,1.14-.92,1.71-1.14.48-.19.96-.27,1.44-.23.92.09,1.82.58,2.69,1.49l1.75,1.81c.85.88,1.24,1.96,1.16,3.21l6.66,4.11-1.89,1.83Zm-1.37-19.18l-3.48,3.36,3.29,3.41,2.54-2.45,1.83,1.89-2.54,2.45,3.29,3.41,3.48-3.36,1.83,1.9-5.36,5.18-12.07-12.5,5.36-5.18,1.83,1.89Zm16.25,3.12c.1.71-.04,1.42-.44,2.14-.21.38-.51.76-.91,1.15-.74.71-1.53,1.12-2.37,1.22-.3.04-.6.02-.91,0-.4-.04-.81-.13-1.23-.29-.73-.29-1.44-.74-2.12-1.37l.84-.94.83-.92c.79.65,1.49.99,2.11,1.03.46.03.84-.11,1.12-.4.4-.41.53-.93.4-1.56-.06-.31-.27-.65-.61-1.01-.5-.52-1.23-.81-2.2-.87-.71,0-1.78.02-3.2.03-.88,0-1.58-.08-2.21-.2-.23-.05-.5-.08-.69-.14-.8-.27-1.5-.72-2.11-1.35-.86-.89-1.31-1.83-1.37-2.83-.02-.28-.02-.57.02-.86.13-.81.55-1.55,1.25-2.22s1.39-1.05,2.16-1.22c.6-.13,1.21-.09,1.85.11.64.2,1.24.55,1.81,1.04l-1.49,2.07c-.54-.46-1.08-.72-1.59-.77-.37-.04-.72.1-1.04.42-.35.34-.46.74-.35,1.22.09.39.31.77.67,1.13.55.57,1.36.92,2.42,1.03.4.05.94.04,1.61-.01.79-.06,1.32-.08,1.61-.07.91.01,1.72.13,2.41.33.32.1.61.2.86.31.61.27,1.09.58,1.43.93.85.86,1.35,1.82,1.48,2.89Zm7.53-7.27c.1.72-.05,1.43-.44,2.14-.21.38-.51.76-.91,1.15-.74.71-1.53,1.12-2.37,1.22-.69.09-1.41,0-2.14-.29-.73-.29-1.44-.74-2.13-1.37l1.67-1.86c.79.65,1.48.99,2.11,1.03.46.03.83-.1,1.11-.4.4-.41.53-.93.4-1.56-.06-.32-.26-.65-.61-1.01-.5-.52-1.24-.81-2.2-.86-.71,0-1.78.02-3.21.03-1.21,0-2.17-.12-2.9-.35-.8-.27-1.5-.72-2.11-1.35-1.1-1.14-1.55-2.37-1.35-3.69.13-.81.55-1.55,1.25-2.22s1.39-1.05,2.16-1.22c.6-.13,1.21-.09,1.85.11.63.2,1.23.55,1.81,1.04l-1.49,2.07c-.54-.46-1.08-.72-1.59-.77-.37-.04-.72.1-1.04.42-.34.33-.46.74-.34,1.22.09.39.31.77.66,1.13.55.57,1.36.92,2.43,1.03.4.05.94.05,1.61,0,.79-.06,1.33-.08,1.61-.07.91.01,1.72.13,2.41.33.32.1.61.2.86.31.61.27,1.09.58,1.43.93.85.86,1.34,1.82,1.48,2.89Z"/>
    </g>
  </g>
</svg>