<svg width="88" height="88" viewBox="0 0 88 88" fill="none" xmlns="http://www.w3.org/2000/svg">
<path d="M14.371 59.6865L8.29085 58.0439V63.7004L10.7249 62.7854L11.5957 62.4578L12.2854 63.0769L14.3714 64.9482V59.6865H14.371ZM7.16105 54.5831L16.3015 57.052L17.4309 57.3573V71.7893L14.8785 69.4997L10.9303 65.9571L7.29852 67.3223L5.23047 68.0997V54.0624L7.16105 54.5839V54.5831Z" fill="#5C2C19"/>
<path fill-rule="evenodd" clip-rule="evenodd" d="M50.3018 46.197C50.8077 49.3356 51.5418 52.4393 52.4764 55.3244H58.4515C57.4031 53.26 56.2025 50.1903 55.5359 46.1015L50.3018 46.1974V46.197Z" fill="#FFBC81"/>
<path fill-rule="evenodd" clip-rule="evenodd" d="M8.04835 54.0483L52.8133 65.602C49.0425 59.3585 46.5425 50.2218 45.8247 41.6046C45.4013 36.5178 45.5957 31.5634 46.5128 27.4382C46.8117 26.094 47.19 24.8332 47.6516 23.6769L8.19964 38.5543C6.48461 39.3482 5.22507 41.054 4.51986 43.071C4.07616 44.3383 3.85613 45.7148 3.8785 47.0667C3.90087 48.389 4.15628 49.6797 4.66424 50.8077C5.32634 52.2782 6.43987 53.4693 8.04835 54.0483Z" fill="#FFBC81"/>
<path fill-rule="evenodd" clip-rule="evenodd" d="M52.8136 65.6016C49.0424 59.3581 46.5428 50.221 45.825 41.6038C45.4016 36.5174 45.596 31.563 46.5131 27.4378C46.812 26.094 47.1903 24.8328 47.6523 23.6765L44.0847 25.0215L44.4231 26.343C44.4231 26.343 39.5688 46.9282 52.8141 65.6016" fill="#FFBC81"/>
<path d="M21.0192 36.5024C21.2164 35.4534 22.2307 34.7627 23.2845 34.959C24.3378 35.1554 25.0321 36.1652 24.8352 37.2138C24.3476 39.7847 24.4346 43.4609 25.0886 46.8068C25.6287 49.5684 26.5254 52.0154 27.7545 53.2171C28.5187 53.9649 28.5288 55.188 27.7777 55.9487C27.0261 56.7091 25.7975 56.7192 25.0337 55.9714C23.1971 54.1758 21.9489 50.9903 21.273 47.5335C20.5332 43.748 20.4474 39.5199 21.0192 36.5032" fill="#5C2C19"/>
<path fill-rule="evenodd" clip-rule="evenodd" d="M42.3861 39.5661C41.8745 37.5073 41.8273 30.5124 43.6265 27.5519C39.3033 29.1896 35.9123 30.4759 31.5887 32.114C30.3544 34.8218 30.8839 40.9078 31.973 43.4176C35.5385 42.0698 38.821 40.9143 42.3865 39.5665" fill="#5C2C19"/>
<path d="M10.9654 40.6556C11.4396 39.6985 12.6036 39.3053 13.565 39.7778C14.526 40.2499 14.9209 41.409 14.4467 42.3657C14.1083 43.0439 14.0209 44.6419 14.2035 46.3565C14.3658 47.8748 14.7428 49.3684 15.3504 50.2453C15.9588 51.1227 15.7376 52.3255 14.8563 52.9312C13.9745 53.5373 12.7667 53.3171 12.1582 52.4397C11.1537 50.9899 10.564 48.842 10.3428 46.7651C10.0894 44.3868 10.3212 41.9491 10.9658 40.6564" fill="#5C2C19"/>
<path d="M35.5105 46.259C35.569 45.1933 36.4845 44.3767 37.5549 44.4354C38.6254 44.4937 39.4453 45.4055 39.3867 46.4707C39.298 48.0048 39.5941 50.2445 40.1358 52.3846C40.6226 54.309 41.286 56.0807 42.0107 57.0617C42.6447 57.9225 42.4577 59.1322 41.593 59.763C40.7284 60.3938 39.5136 60.208 38.8795 59.3468C37.8433 57.9431 36.9632 55.6811 36.3662 53.3223C35.7386 50.8433 35.3999 48.172 35.5105 46.2586" fill="#5C2C19"/>
<path d="M72.9923 25.3794C72.4526 25.8446 71.636 25.7859 71.1683 25.2482C70.701 24.7102 70.76 23.8972 71.3001 23.432L78.6552 17.1249C79.1952 16.6597 80.0123 16.7184 80.4792 17.2561C80.9465 17.7938 80.8875 18.6071 80.3474 19.0723L72.9919 25.3794H72.9923Z" fill="#5C2C19"/>
<path d="M75.27 36.9567C74.5591 37.0206 73.9308 36.4992 73.8661 35.7915C73.8023 35.0841 74.3261 34.4578 75.037 34.3942L86.5908 33.2877C87.3017 33.2242 87.9305 33.7456 87.9943 34.453C88.0586 35.1603 87.5347 35.7862 86.8238 35.8502L75.2696 36.9567H75.27Z" fill="#5C2C19"/>
<path d="M75.4478 48.4181C74.8153 48.0894 74.5701 47.3124 74.9003 46.6829C75.2306 46.0533 76.011 45.8096 76.6434 46.1379L85.2398 50.6275C85.8718 50.9563 86.117 51.7332 85.7868 52.3628C85.4565 52.9924 84.6761 53.2365 84.0437 52.9077L75.4473 48.4181H75.4478Z" fill="#5C2C19"/>
<path fill-rule="evenodd" clip-rule="evenodd" d="M5.86887 44.0111C6.5749 41.9941 7.83362 40.2883 9.54906 39.4948L47.0635 25.3478C47.242 24.7697 47.4381 24.2122 47.6516 23.6769L8.19964 38.5543C6.48461 39.3486 5.22507 41.054 4.51986 43.071C4.07616 44.3383 3.85613 45.7148 3.8785 47.0667C3.90087 48.389 4.15628 49.6797 4.66424 50.8077C5.23931 52.0855 6.15559 53.1523 7.44116 53.7895C6.83599 53.2191 6.3626 52.5223 6.01406 51.7482C5.5061 50.6202 5.25029 49.3295 5.22833 48.0072C5.20596 46.6549 5.42598 45.2792 5.86928 44.0115" fill="#FFCDA0"/>
<path fill-rule="evenodd" clip-rule="evenodd" d="M50.298 28.2702C49.4728 31.9832 49.3057 36.5401 49.701 41.2864C49.7303 41.639 49.7628 41.992 49.7982 42.3463L57.1935 42.2111L58.9529 42.1787L59.1546 43.9208C59.7728 49.2526 61.3492 52.7183 62.3984 54.5167C65.3026 51.6603 66.1213 45.827 65.615 39.747C65.3811 36.9385 64.8618 34.1064 64.1269 31.4881C63.3989 28.8925 62.4594 26.4993 61.378 24.5425C59.8346 21.7497 58.1293 19.9606 56.5811 20.0882C55.7091 20.1598 54.9409 20.4351 54.2706 20.8829C52.3661 22.1554 51.0642 24.8207 50.2976 28.2698" fill="#FFCDA0"/>
<path fill-rule="evenodd" clip-rule="evenodd" d="M60.0694 48.7578C60.7925 51.4348 61.7092 53.3357 62.3986 54.5171C65.3028 51.6607 66.1215 45.8274 65.6151 39.7474C65.3813 36.9389 64.8619 34.1068 64.127 31.4885C63.3991 28.8929 62.4596 26.4997 61.3782 24.5429C60.7576 23.4202 60.1109 22.4603 59.459 21.7214C59.47 21.7433 66.1243 35.1663 63.4271 45.099C63.4271 45.099 62.5804 50.5364 60.0686 48.7578" fill="#ECECEC"/>
<path d="M46.5126 27.4384C46.8116 26.0947 47.1898 24.8335 47.6518 23.6772L8.19987 38.5546C6.48483 39.3489 5.22529 41.0542 4.52008 43.0713C4.07638 44.3385 3.85636 45.7151 3.87872 47.067C3.90109 48.3893 4.1565 49.68 4.66446 50.808C5.32656 52.2784 6.44009 53.4696 8.04857 54.0481L52.8136 65.6023C49.0423 59.3588 46.5427 50.2217 45.8249 41.6044C45.4015 36.5181 45.5959 31.5637 46.513 27.4384M61.7096 59.1989H53.9121C54.7706 61.2297 55.7406 63.0804 56.8098 64.6658C57.2283 65.2869 57.3861 65.9801 57.3295 66.6598C57.2758 67.3105 57.0147 67.9497 56.5962 68.483C56.1769 69.0174 55.6332 69.3976 55.0268 69.6024C54.4196 69.8073 53.7567 69.8348 53.0983 69.6652L6.98873 57.764L6.83662 57.7179C4.08736 56.7648 2.21127 54.8004 1.12255 52.3813C0.398223 50.7719 0.0334166 48.9605 0.00210107 47.1269C-0.0279944 45.3228 0.26564 43.4879 0.856162 41.8C1.90056 38.8149 3.88604 36.2472 6.68492 34.9982L6.79148 34.9524L51.5744 18.0649C51.7497 17.9285 51.9294 17.7985 52.1128 17.6754C53.3362 16.8588 54.7169 16.3576 56.2624 16.23C59.5476 15.9592 62.5068 18.5621 64.7838 22.682C66.0015 24.8849 67.0552 27.5652 67.867 30.4596C68.6723 33.3317 69.2396 36.4087 69.4918 39.4299C70.1754 47.6407 68.532 55.6462 63.1074 58.8199C62.6646 59.0795 62.2241 59.1985 61.71 59.1985L61.7096 59.1989ZM63.2315 53.5416C65.4773 50.4699 66.0698 45.2005 65.6155 39.7477C65.3817 36.9391 64.8623 34.1071 64.1274 31.4888C63.3995 28.8931 62.46 26.5 61.3786 24.5432C59.8352 21.7504 58.1299 19.9613 56.5816 20.0888C55.7097 20.1605 54.9414 20.4358 54.2712 20.8836C52.3666 22.1561 51.0648 24.8214 50.2982 28.2705C49.473 31.9835 49.3058 36.5403 49.7011 41.2866C49.7304 41.6393 49.7629 41.9931 49.7983 42.3466L57.1937 42.2113L58.9531 42.179L59.1548 43.9211C59.6631 48.3091 60.7889 51.4489 61.7995 53.4036C62.1041 53.9923 62.7032 54.2643 63.2315 53.5412V53.5416ZM52.4764 55.3247H58.452C57.4035 53.2603 56.2022 50.1909 55.5356 46.1017L50.3022 46.1973C50.8077 49.3358 51.5414 52.44 52.476 55.3251L52.4764 55.3247Z" fill="#5C2C19"/>
<path fill-rule="evenodd" clip-rule="evenodd" d="M53.1617 55.3244C52.3178 52.6126 51.6496 49.7226 51.1791 46.8019L55.6422 46.7201C55.6056 46.5169 55.5698 46.3104 55.5356 46.1015L50.3022 46.197C50.8078 49.3356 51.5415 52.4397 52.476 55.3248H53.1613L53.1617 55.3244Z" fill="#FFBC81"/>
<path fill-rule="evenodd" clip-rule="evenodd" d="M8.29053 58.0998V63.7008L10.725 62.7858L11.5953 62.4582L12.2851 63.0773L14.371 64.9486V59.6865L12.9175 59.2938L8.29053 58.0998Z" fill="#FFBC81"/>
<path fill-rule="evenodd" clip-rule="evenodd" d="M8.72569 63.5372V58.6767L13.3527 59.8711L14.371 60.1464V59.6865L12.926 59.2962L12.9175 59.2938L12.9086 59.2917L8.29053 58.0998V63.7008L8.72569 63.5372Z" fill="#FFBC81"/>
</svg>
