<svg width="45" height="45" viewBox="0 0 45 45" fill="none" xmlns="http://www.w3.org/2000/svg">
<g clip-path="url(#clip0_69_175)">
<path d="M45 22.5C45 10.0736 34.9264 -4.40333e-07 22.5 -9.83506e-07C10.0736 -1.52668e-06 3.37436e-06 10.0736 2.83119e-06 22.5C2.28802e-06 34.9264 10.0736 45 22.5 45C34.9264 45 45 34.9264 45 22.5ZM20.7187 33.3204L9.72636 21.0709C9.23478 20.5231 8.98859 19.8041 8.98859 19.0859C8.98859 18.3677 9.23478 17.6495 9.72636 17.1008C10.7103 16.0043 12.3049 16.0043 13.2889 17.1008L22.5 27.366L31.7111 17.1008C32.6951 16.0044 34.2897 16.0044 35.2736 17.1008C36.2576 18.1973 36.2576 19.9745 35.2736 21.0709L24.2813 33.3204C23.8084 33.847 23.1685 34.1429 22.5 34.1429C21.8315 34.1429 21.1916 33.847 20.7187 33.3204Z" fill="#FFBC81"/>
</g>
<defs>
<clipPath id="clip0_69_175">
<rect width="45" height="45" fill="white" transform="translate(45) rotate(90)"/>
</clipPath>
</defs>
</svg>
