<svg width="209" height="56" viewBox="0 0 209 56" fill="none" xmlns="http://www.w3.org/2000/svg">
<rect width="209" height="56" rx="19" fill="#401F11"/>
<path d="M51.744 17.448L49.756 20.136C48.664 19.296 46.284 17.98 44.66 17.056L46.536 14.648C48.104 15.432 50.54 16.664 51.744 17.448ZM50.4 25.008L48.552 27.78C47.404 26.968 44.996 25.652 43.344 24.756L45.136 22.292C46.676 23.048 49.168 24.252 50.4 25.008ZM46.536 40.128L43.736 37.86C45.22 35.76 47.376 32.288 49.056 29.04L51.492 31.28C50.008 34.22 48.244 37.412 46.536 40.128ZM64.708 36.264V32.148H56.28V36.264H64.708ZM69.272 25.596H62.16V29.124H67.872V40.296H64.708V39.288H56.28V40.436H53.284V29.124H58.996V25.596H51.548V22.404H58.996V19.128C57.148 19.408 55.3 19.604 53.536 19.772C53.424 18.96 52.976 17.672 52.612 16.916C57.372 16.44 62.608 15.516 65.688 14.284L68.264 16.916C66.444 17.616 64.372 18.148 62.16 18.568V22.404H69.272V25.596Z" fill="#FFCDA0"/>
<path d="M84.392 34.64V36.068C85.988 35.956 87.64 35.816 89.264 35.676C91.448 32.652 92.12 28.648 92.316 23.636H89.768V21.452H84.392V22.544H89.348V31.196H84.392V32.288H89.46V34.64H84.392ZM79.184 29.124H81.368V27.864H79.184V29.124ZM86.576 27.864H84.392V29.124H86.576V27.864ZM84.392 25.876H86.576V24.644H84.392V25.876ZM79.184 24.644V25.876H81.368V24.644H79.184ZM95.564 20.584H101.248C101.248 20.584 101.22 21.676 101.22 22.068C100.968 33.52 100.744 37.58 99.848 38.868C99.204 39.792 98.56 40.072 97.636 40.268C96.796 40.436 95.508 40.408 94.164 40.38C94.108 39.456 93.744 38.112 93.184 37.188C94.416 37.3 95.48 37.328 96.012 37.328C96.432 37.328 96.712 37.216 96.964 36.852C97.552 36.096 97.832 32.68 98 23.636H95.48C95.116 31.14 93.828 36.908 89.124 40.632C88.704 39.96 87.892 39.036 87.164 38.42C83.132 38.84 79.1 39.26 76.076 39.512L75.684 36.712C77.252 36.6 79.212 36.46 81.368 36.32V34.64H76.44V32.288H81.368V31.196H76.552V22.544H81.368V21.452H75.852V19.044H81.368V17.924C79.744 18.036 78.148 18.12 76.636 18.148C76.524 17.476 76.216 16.44 75.908 15.796C80.052 15.572 84.896 15.096 87.976 14.424L89.432 16.916C87.948 17.224 86.212 17.476 84.392 17.672V19.044H89.768V20.584H92.4C92.428 18.736 92.428 16.804 92.428 14.732H95.62C95.62 16.776 95.62 18.736 95.564 20.584Z" fill="#FFCDA0"/>
<path d="M114.576 20.696V18.176H111.804V20.696H114.576ZM114.576 25.708V23.132H111.804V25.708H114.576ZM114.576 30.776V28.172H111.804V30.776H114.576ZM117.264 15.516V33.408H109.228V15.516H117.264ZM110.46 33.856L112.924 34.64C112.168 36.516 111.02 38.756 110.124 40.184C109.62 39.736 108.556 39.036 107.912 38.7C108.836 37.412 109.816 35.48 110.46 33.856ZM113.624 34.976L115.696 33.8C116.62 35.172 117.684 36.992 118.244 38.112L116.088 39.54C115.612 38.308 114.52 36.376 113.624 34.976ZM128.912 31.644H122.612V33.128H128.912V31.644ZM122.612 36.824H128.912V35.284H122.612V36.824ZM119.812 40.38V29.124H131.796V40.268H128.912V39.232H122.612V40.38H119.812ZM121.324 21.396L123.032 20.892C123.564 22.096 124.152 23.664 124.376 24.616L122.584 25.232C122.332 24.252 121.8 22.6 121.324 21.396ZM128.8 25.26L127.092 24.784C127.512 23.692 128.044 22.04 128.296 20.892L130.256 21.424C129.752 22.796 129.248 24.252 128.8 25.26ZM130.284 25.68V20.472H126.756V25.68H130.284ZM121.128 20.472V25.68H124.656V20.472H121.128ZM130.172 18.064H133V28.088H118.552V18.064H121.912C121.548 17.168 120.932 16.104 120.372 15.236L123.004 14.256C123.732 15.292 124.544 16.608 124.936 17.504L123.564 18.064H127.204C127.96 16.888 128.744 15.348 129.192 14.172L132.216 15.152C131.544 16.16 130.844 17.168 130.172 18.064Z" fill="#FFCDA0"/>
<path d="M158.62 22.348V18.568H148.82V22.348H158.62ZM162.008 15.376V25.512H145.6V15.376H162.008ZM149.072 31.028H144.9V35.844H149.072V31.028ZM141.736 40.436V27.836H152.404V40.296H149.072V39.036H144.9V40.436H141.736ZM157.976 35.844H162.428V31.028H157.976V35.844ZM154.784 27.836H165.788V40.324H162.428V39.036H157.976V40.436H154.784V27.836Z" fill="#FFCDA0"/>
</svg>
