<svg width="209" height="56" viewBox="0 0 209 56" fill="none" xmlns="http://www.w3.org/2000/svg">
<rect width="209" height="56" rx="19" fill="#401F11"/>
<path d="M52.024 18.448L50.092 21.164C48.972 20.268 46.592 18.924 44.884 18.056L46.732 15.62C48.412 16.348 50.82 17.58 52.024 18.448ZM50.4 26.092L48.552 28.864C47.432 27.996 45.052 26.68 43.344 25.84L45.108 23.348C46.76 24.076 49.168 25.252 50.4 26.092ZM49.364 30.18L51.828 32.392C50.344 35.332 48.58 38.524 46.872 41.24L44.072 39C45.556 36.872 47.712 33.4 49.364 30.18ZM62.3 37.46H69.384V40.624H51.212V37.46H58.828V31.748H53.172V28.584H58.828V23.656H52.052V20.492H59.5C59.164 19.316 58.324 17.552 57.54 16.208L60.62 15.172C61.46 16.488 62.44 18.308 62.832 19.512L60.116 20.492H68.656V23.656H62.3V28.584H67.648V31.748H62.3V37.46Z" fill="#FFCDA0"/>
<path d="M92.4 19.428H85.12C85.428 20.044 85.736 20.8 85.904 21.388H91.616C91.896 20.744 92.204 20.016 92.4 19.428ZM100.912 21.388V23.964H76.692V21.388H82.544C82.404 20.856 82.18 20.296 81.984 19.848L84.084 19.428H78.064V16.852H87.136C86.996 16.404 86.828 15.928 86.66 15.536L89.908 14.948C90.216 15.508 90.496 16.208 90.72 16.852H99.428V19.428H93.688L95.928 19.82C95.592 20.38 95.312 20.912 95.032 21.388H100.912ZM94.584 28.248V27.044H82.992V28.248H94.584ZM94.584 31.412V30.208H82.992V31.412H94.584ZM97.888 24.972V33.512H89.32C90.412 34.1 91.56 34.8 92.26 35.36L90.216 37.404C89.292 36.536 87.388 35.36 85.82 34.632L86.968 33.512H79.856V24.972H97.888ZM78.68 40.736L75.908 39.112C77.364 37.908 78.624 36.032 79.38 34.352L82.152 35.584C81.312 37.348 80.136 39.392 78.68 40.736ZM87.528 38.468H91.392C92.428 38.468 92.596 38.16 92.736 36.2C93.38 36.62 94.696 37.068 95.564 37.236C95.2 40.344 94.304 41.128 91.7 41.128H87.192C83.664 41.128 82.796 40.316 82.796 37.684V34.744H86.044V37.656C86.044 38.384 86.268 38.468 87.528 38.468ZM95.116 35.276L97.804 34.1C99.148 35.584 100.604 37.628 101.22 39.056L98.336 40.344C97.832 38.972 96.432 36.844 95.116 35.276Z" fill="#FFCDA0"/>
<path d="M127.876 34.968V33.652H122.836V34.968H127.876ZM122.836 29.9V31.104H127.876V29.9H122.836ZM115.052 24.328H119.448V22.984H115.052V24.328ZM127.372 22.984H122.836V24.328H127.372V22.984ZM134.176 31.104V33.652H131.264V38.524H127.876V37.376H122.836V38.244C122.836 39.896 122.444 40.568 121.352 41.044C120.288 41.464 118.776 41.52 116.396 41.52C116.228 40.736 115.724 39.588 115.304 38.888C116.648 38.944 118.3 38.944 118.748 38.944C119.28 38.916 119.448 38.748 119.448 38.244V37.376H110.936V34.968H119.448V33.652H108.36V31.104H119.448V29.9H111.16V27.66H119.448V26.428H111.86V20.884H119.448V19.736H109.004V17.104H119.448V15.284H122.836V17.104H133.532V19.736H122.836V20.884H130.788V26.428H122.836V27.66H131.264V31.104H134.176Z" fill="#FFCDA0"/>
<path d="M150.976 29.956L151.508 32.84C148.12 34.128 144.48 35.444 141.68 36.452L140.308 33.26C141.372 32.952 142.716 32.56 144.172 32.112V21.36H141.064V18.28H150.64V21.36H147.532V31.076L150.976 29.956ZM155.232 31.692V33.484H162.568V31.692H155.232ZM155.232 27.604V29.396H162.568V27.604H155.232ZM155.232 23.6V25.364H162.568V23.6H155.232ZM165.816 35.92H155.204L157.78 37.74C155.932 39.168 152.992 40.624 150.528 41.408C150.08 40.764 149.184 39.756 148.512 39.14C150.78 38.44 153.552 37.068 154.98 35.92H152.152V21.136H156.548C156.688 20.492 156.8 19.82 156.912 19.204H151.004V16.404H166.852V19.204H160.664C160.44 19.876 160.188 20.52 159.964 21.136H165.816V35.92ZM159.292 37.768L161.756 36.004C163.52 36.956 166.04 38.44 167.328 39.504L164.696 41.464C163.548 40.428 161.112 38.832 159.292 37.768Z" fill="#FFCDA0"/>
</svg>
